<?xml version="1.0" encoding="utf-8"?>
<!-- Generator: Adobe Illustrator 21.1.0, SVG Export Plug-In . SVG Version: 6.00 Build 0)  -->
<svg version="1.1" id="Layer_1" xmlns="http://www.w3.org/2000/svg" xmlns:xlink="http://www.w3.org/1999/xlink" x="0px" y="0px"
	 viewBox="0 0 368.5 48" style="enable-background:new 0 0 368.5 48;" xml:space="preserve">
<style type="text/css">
	.st0{fill:#FFFFFF;}
</style>
<!--scale: 0.01875-->
<!--FITNESSTRACKER-->
<!--F-->
<path class="st0" d="M 25 0 l 9.975 0.0375 q 0.3937 0 0.7125 -0.4969 t 0.4969 -1.2375 t 0.2062 -1.6031 t -0.15 -1.6031 t -0.5719 -1.2375 t -1.05 -0.4781 l -9.6 0.1125 l 0.0187 -12.1687 q 0 -0.3563 -0.4875 -0.6469 t -1.2188 -0.4688 t -1.5938 -0.2344 t -1.5938 0.0562 t -1.2188 0.4219 t -0.4875 0.8531 l -0.0562 26.4187 v 2.1656 t 0.0375 1.6406 q 1.6687 0 8.7937 -0.0187 t 3.5437 -0.0094 h 3.3281 t 2.8219 0.0187 q 0.6563 0 1.05 -0.4781 t 0.5719 -1.2 t 0.15 -1.575 t -0.2062 -1.5844 t -0.4969 -1.2188 t -0.7125 -0.4875 h -12.2438 z" transform="scale(1, -1)"/>
<!--I-->
<path class="st0" d="M 50 -21 q -0.3885 0 -0.703 0.4875 t -0.4902 1.2188 t -0.2035 1.575 t 0.148 1.575 t 0.5642 1.2094 t 1.036 0.4781 l 4.4585 -0.0187 v 3.1219 v 3.4781 t 0.0092 3.6375 t 0.0092 3.6 v 3.3844 v 2.9906 l -5.143 0.0375 q -0.3515 0 -0.6012 0.4781 t -0.3885 1.1906 t -0.1573 1.5375 t 0.0925 1.5375 t 0.3422 1.1812 t 0.6198 0.4688 l 16.872 0.0562 q 0.3885 0 0.703 -0.4875 t 0.4902 -1.2188 t 0.2035 -1.575 t -0.148 -1.575 t -0.5642 -1.2094 t -1.036 -0.4781 l -4.8655 0.0187 l 0.0925 -20.2125 l 5.476 -0.0375 q 0.3515 0 0.6012 -0.4781 t 0.3885 -1.1906 t 0.1573 -1.5375 t -0.0925 -1.5375 t -0.3515 -1.1812 t -0.6105 -0.4688 z" transform="scale(1, -1)"/>
<!--T-->
<path class="st0" d="M 100 12 q 0.3937 0 0.7125 -0.4875 t 0.4969 -1.2188 t 0.2062 -1.575 t -0.15 -1.575 t -0.5719 -1.2094 t -1.05 -0.4781 l -4.9312 0.0187 l 0.1125 -25.8562 q 0 -0.3937 -0.4875 -0.7125 t -1.2375 -0.4969 t -1.6125 -0.2062 t -1.6031 0.15 t -1.2375 0.5719 t -0.4781 1.05 q 0 0.4312 0.0094 1.4625 t 0.0094 2.4844 v 3.2437 t 0.0094 3.75 t 0.0094 3.975 v 3.9281 v 3.6281 v 3.0656 l -5.2125 0.0375 q -0.3563 0 -0.6094 0.4781 t -0.3937 1.1906 t -0.1594 1.5375 t 0.0938 1.5375 t 0.3469 1.1812 t 0.6281 0.4688 z" transform="scale(1, -1)"/>
<!--N-->
<path class="st0" d="M -115 -11 q 0 -0.375 -0.3656 -0.7031 t -0.9562 -0.5625 t -1.3125 -0.3469 t -1.4063 -0.075 t -1.2656 0.2437 t -0.8812 0.6188 q -0.4312 0.5812 -1.3406 1.8656 t -2.1375 3.0281 t -2.6906 3.8344 t -2.9906 4.2938 t -3.0562 4.3969 t -2.8969 4.1437 l 0.1313 -20.85 q 0 -0.3937 -0.4875 -0.7125 t -1.2281 -0.4969 t -1.6125 -0.2062 t -1.6125 0.15 t -1.2281 0.5719 t -0.4875 1.05 l 0.1125 31.2375 q 0 0.2437 0.3937 0.4781 t 0.9937 0.4219 t 1.3313 0.3 t 1.4156 0.1031 t 1.2281 -0.1594 t 0.7875 -0.4875 l 14.9437 -20.925 q 0 2.1187 0.0094 4.35 t 0.0094 4.3687 v 4.0781 t 0.0094 3.4969 t 0.0187 2.625 t 0.0281 1.4625 q 0 0.3563 0.4781 0.6188 t 1.1812 0.4031 t 1.5188 0.1687 t 1.5188 -0.0656 t 1.1719 -0.3375 t 0.4688 -0.6188 z" transform="scale(-1, 1)"/>
<!--E-->
<path class="st0" d="M 165 -2 l 10.9688 0.0375 q 0.3937 0 0.7125 -0.4969 t 0.4969 -1.2375 t 0.2062 -1.6031 t -0.15 -1.6031 t -0.5719 -1.2375 t -1.05 -0.4781 l -10.5938 0.1125 l 0.0187 -6.8625 h 12.2438 q 0.3937 0 0.7125 -0.4781 t 0.4969 -1.2 t 0.2062 -1.5562 t -0.15 -1.5469 t -0.5719 -1.1906 t -1.05 -0.4594 q -1.2375 0.0187 -2.8219 0.0187 h -3.3281 t -3.5437 -0.0094 t -3.4688 -0.0094 q -1.425 0 -2.3813 0.1406 t -1.5469 0.4406 t -0.8812 0.7969 t -0.4031 1.2094 t -0.1125 1.6594 v 2.1656 l -0.0562 21.1125 v 2.1656 t 0.1125 1.6594 t 0.525 1.9875 t 0.975 0.6 t 1.5375 0.4406 q 1.6687 0 3.4688 -0.0094 t 3.5437 -0.0094 h 5.475 t 2.8219 0.0187 q 0.6563 0 1.05 -0.4781 t 0.5719 -1.2 t 0.15 -1.575 t -0.2062 -1.5844 t -0.4969 -1.2188 t -0.7125 -0.4875 h -12.2438 z" transform="scale(1, -1)"/>
<!--S-->
<path class="st0" d="M 210 -14 q 0 -2.2125 -0.7125 -3.8531 t -1.9031 -2.7281 t -2.7469 -1.6312 t -3.225 -0.5437 q -1.575 0 -3.1875 0.45 t -3.1031 1.275 t -2.7937 2.0063 t -2.2781 2.6437 q -0.2625 0.3937 -0.1313 0.9281 t 0.5062 1.0875 t 0.9094 1.0406 t 1.0687 0.7969 t 1.0031 0.3563 t 0.7125 -0.2906 q 0.6375 -0.9 1.4344 -1.65 t 1.6594 -1.3125 t 1.7625 -0.8906 t 1.7437 -0.3844 q 0.75 -0.0562 1.275 0.1594 t 0.825 0.6 t 0.4219 0.8906 t 0.1031 1.05 t -0.1875 1.0781 t -0.4125 0.9656 q -0.5437 0.9187 -1.5 1.8375 t -2.1094 1.8469 t -2.4 1.875 t -2.3813 1.9406 t -2.0625 2.025 t -1.4344 2.1375 q -0.8438 1.8562 -0.75 3.7594 t 0.9937 3.5531 q 0.6937 1.3125 1.6969 2.2406 t 2.175 1.4812 t 2.4844 0.75 t 2.6531 0.0562 t 2.6531 -0.6094 t 2.4937 -1.2375 q 0.525 -0.3375 1.2094 -0.8906 t 1.3687 -1.1812 t 1.2656 -1.2375 t 0.8812 -1.0594 q 0.3375 -0.525 0.1781 -1.0781 t -0.6188 -1.0687 t -1.125 -0.9375 t -1.3219 -0.6563 t -1.2094 -0.2625 t -0.7781 0.2719 q -1.1625 1.425 -2.4844 2.2969 t -2.5219 1.2 t -2.1187 0.0938 t -1.275 -1.0219 q -0.3 -0.6563 -0.0562 -1.3969 t 0.8719 -1.5469 t 1.5562 -1.6687 t 2.0063 -1.7531 t 2.2125 -1.8094 t 2.1656 -1.8281 t 1.875 -1.8187 t 1.35 -1.7719 q 0.6 -1.0687 0.9562 -2.1938 t 0.3563 -2.3813 z" transform="scale(1, -1)"/>
<!--S-->
<path class="st0" d="M 240 -14 q 0 -2.2125 -0.7125 -3.8531 t -1.9031 -2.7281 t -2.7469 -1.6312 t -3.225 -0.5437 q -1.575 0 -3.1875 0.45 t -3.1031 1.275 t -2.7937 2.0063 t -2.2781 2.6437 q -0.2625 0.3937 -0.1313 0.9281 t 0.5062 1.0875 t 0.9094 1.0406 t 1.0687 0.7969 t 1.0031 0.3563 t 0.7125 -0.2906 q 0.6375 -0.9 1.4344 -1.65 t 1.6594 -1.3125 t 1.7625 -0.8906 t 1.7437 -0.3844 q 0.75 -0.0562 1.275 0.1594 t 0.825 0.6 t 0.4219 0.8906 t 0.1031 1.05 t -0.1875 1.0781 t -0.4125 0.9656 q -0.5437 0.9187 -1.5 1.8375 t -2.1094 1.8469 t -2.4 1.875 t -2.3813 1.9406 t -2.0625 2.025 t -1.4344 2.1375 q -0.8438 1.8562 -0.75 3.7594 t 0.9937 3.5531 q 0.6937 1.3125 1.6969 2.2406 t 2.175 1.4812 t 2.4844 0.75 t 2.6531 0.0562 t 2.6531 -0.6094 t 2.4937 -1.2375 q 0.525 -0.3375 1.2094 -0.8906 t 1.3687 -1.1812 t 1.2656 -1.2375 t 0.8812 -1.0594 q 0.3375 -0.525 0.1781 -1.0781 t -0.6188 -1.0687 t -1.125 -0.9375 t -1.3219 -0.6563 t -1.2094 -0.2625 t -0.7781 0.2719 q -1.1625 1.425 -2.4844 2.2969 t -2.5219 1.2 t -2.1187 0.0938 t -1.275 -1.0219 q -0.3 -0.6563 -0.0562 -1.3969 t 0.8719 -1.5469 t 1.5562 -1.6687 t 2.0063 -1.7531 t 2.2125 -1.8094 t 2.1656 -1.8281 t 1.875 -1.8187 t 1.35 -1.7719 q 0.6 -1.0687 0.9562 -2.1938 t 0.3563 -2.3813 z" transform="scale(1, -1)"/>
<!--T-->
<!-- <path class="st0" d="M 270 11 q 0.3937 0 0.7125 -0.4875 t 0.4969 -1.2188 t 0.2062 -1.575 t -0.15 -1.575 t -0.5719 -1.2094 t -1.05 -0.4781 l -4.9312 0.0187 l 0.1125 -25.8562 q 0 -0.3937 -0.4875 -0.7125 t -1.2375 -0.4969 t -1.6125 -0.2062 t -1.6031 0.15 t -1.2375 0.5719 t -0.4781 1.05 q 0 0.4312 0.0094 1.4625 t 0.0094 2.4844 v 3.2437 t 0.0094 3.75 t 0.0094 3.975 v 3.9281 v 3.6281 v 3.0656 l -5.2125 0.0375 q -0.3563 0 -0.6094 0.4781 t -0.3937 1.1906 t -0.1594 1.5375 t 0.0938 1.5375 t 0.3469 1.1812 t 0.6281 0.4688 z" transform="scale(1, -1)"/> -->
<!--R-->
<!-- <path class="st0" d="M 290 10 q 1.8 0.2062 3.9375 0.2531 t 4.3031 -0.2156 t 4.2 -0.9 t 3.6375 -1.7906 t 2.6156 -2.8781 t 1.125 -4.1812 q 0.075 -1.7625 -0.3187 -3.1781 t -1.1438 -2.5125 t -1.7719 -1.9031 t -2.2125 -1.3781 t -2.4656 -0.9375 t -2.4937 -0.5531 l 10.4812 -9.2438 q 0.3 -0.2625 0.225 -0.8438 t -0.4125 -1.275 t -0.8719 -1.3781 t -1.1344 -1.1438 t -1.2188 -0.5812 t -1.125 0.3094 l -11.9625 10.9313 l 0.15 -9.825 q 0 -0.3937 -0.4875 -0.7125 t -1.2375 -0.4969 t -1.6125 -0.2062 t -1.6031 0.15 t -1.2375 0.5719 t -0.4781 1.05 q 0 0.7875 0.0281 2.3906 t 0.0469 3.7312 t 0.0375 4.6125 t 0.0281 5.0438 t 0 5.0344 t -0.0469 4.5562 q -0.0187 1.35 0.0844 2.6531 t 0.4406 2.3438 t 0.9375 1.7156 t 1.5562 0.7875 z M 8.2687 19.4625 q 0.3187 -0.0562 0.9187 -0.0844 t 1.3594 -0.0094 t 1.6219 0.1219 t 1.7063 0.3094 t 1.6031 0.5437 t 1.3219 0.8344 t 0.8625 1.1906 t 0.225 1.5938 q -0.075 0.9187 -0.5625 1.6031 t -1.2469 1.1625 t -1.7344 0.7594 t -2.025 0.4125 t -2.1187 0.1031 t -2.025 -0.1594 z" transform="scale(1, -1)"/> -->
<!--A-->
<!-- <path class="st0" d="M 340 -18 l -11.1375 0.075 l -2.6062 -7.0687 q -0.1313 -0.3563 -0.675 -0.4969 t -1.2656 -0.0844 t -1.5094 0.2906 t -1.3969 0.6188 t -0.9375 0.8906 t -0.1219 1.1062 q 0.1125 0.3563 0.4406 1.2937 t 0.825 2.3062 t 1.1156 3.0938 t 1.3031 3.6375 t 1.4156 3.9375 t 1.4437 3.9844 t 1.3687 3.7875 t 1.2094 3.3656 t 0.9656 2.6906 t 0.6188 1.7719 q 0.1313 0.375 0.6094 0.6094 t 1.1344 0.3469 t 1.4063 0.1031 t 1.4063 -0.1313 t 1.1438 -0.3469 t 0.6188 -0.525 q 0.3375 -0.75 0.9562 -2.3344 t 1.425 -3.7031 t 1.725 -4.6031 t 1.8469 -4.9969 t 1.8094 -4.9219 t 1.5844 -4.3687 t 1.1812 -3.3188 t 0.6281 -1.7906 q 0.1875 -0.6 -0.1313 -1.1062 t -0.9281 -0.8906 t -1.3969 -0.6188 t -1.5094 -0.2906 t -1.2656 0.0844 t -0.675 0.4969 z M 12.3937 13.4063 l 6.45 -0.0187 l -3.225 8.7937 z" transform="scale(1, -1)"/> -->
<!--C-->
<!-- <path class="st0" d="M 380 -20 q 0.3563 0.45 0.9469 0.4688 t 1.2375 -0.2625 t 1.275 -0.7781 t 1.0687 -1.0594 t 0.6094 -1.1062 t -0.0938 -0.9375 q -0.7312 -1.05 -1.8375 -1.9969 t -2.4469 -1.6594 t -2.85 -1.1531 t -3.0469 -0.4594 q -2.325 -0.0375 -4.2281 0.5906 t -3.375 1.7813 t -2.55 2.7656 t -1.7625 3.5625 t -1.0125 4.1719 t -0.2906 4.5656 q 0.0375 2.5688 0.5062 4.8187 t 1.3219 4.1437 t 2.0719 3.375 t 2.7188 2.5125 t 3.2719 1.575 t 3.7594 0.5437 q 1.6312 0 3.1406 -0.3844 t 2.775 -1.125 t 2.2031 -1.8187 t 1.425 -2.4844 q 0.15 -0.45 -0.15 -0.9375 t -0.8531 -0.9094 t -1.2656 -0.75 t -1.3875 -0.4781 t -1.2188 -0.075 t -0.75 0.45 q -0.6188 1.1062 -1.7437 1.6969 t -2.9063 0.4594 q -1.2937 -0.0938 -2.5219 -0.8438 t -2.2031 -2.0812 t -1.5938 -3.2156 t -0.7312 -4.2656 q -0.1313 -2.9063 0.4031 -5.0625 t 1.5094 -3.5812 t 2.2594 -2.1375 t 2.6719 -0.7125 q 0.75 0 1.5844 0.2531 t 1.6031 0.6563 t 1.4156 0.9 t 1.0406 0.9844 z" transform="scale(1, -1)"/> -->
<!--K-->
<!-- <path class="st0" d="M 100 50 l 11.925 11.8312 q 0.2813 0.2813 0.8063 0.1594 t 1.125 -0.5062 t 1.1625 -0.975 t 0.9094 -1.2375 t 0.3844 -1.275 t -0.4312 -1.0969 l -11.25 -10.7625 l 12.5812 -12.7687 q 0.2813 -0.2813 0.15 -0.8531 t -0.5437 -1.2188 t -1.0125 -1.2656 t -1.2469 -1.0125 t -1.2844 -0.4594 t -1.0875 0.4219 l -12.1312 12.5437 l 0.0562 -12.1125 q 0 -0.3937 -0.4875 -0.7125 t -1.2375 -0.4969 t -1.6125 -0.2062 t -1.6031 0.15 t -1.2375 0.5719 t -0.4781 1.05 q 0 0.6563 0.0094 1.8656 t 0.0187 2.8219 t 0.0094 3.525 v 3.975 t 0.0094 4.1719 t 0.0094 4.1063 t 0.0094 3.7969 t 0.0094 3.2344 t 0.0094 2.4187 t 0.0281 1.3594 q 0 0.3563 0.4781 0.6188 t 1.1812 0.4031 t 1.5188 0.1687 t 1.5188 -0.0656 t 1.1719 -0.3375 t 0.4688 -0.6188 z" transform="scale(1, -1)"/> -->
<!--E-->
<!-- <path class="st0" d="M 125 50 l 10.9688 0.0375 q 0.3937 0 0.7125 -0.4969 t 0.4969 -1.2375 t 0.2062 -1.6031 t -0.15 -1.6031 t -0.5719 -1.2375 t -1.05 -0.4781 l -10.5938 0.1125 l 0.0187 -6.8625 h 12.2438 q 0.3937 0 0.7125 -0.4781 t 0.4969 -1.2 t 0.2062 -1.5562 t -0.15 -1.5469 t -0.5719 -1.1906 t -1.05 -0.4594 q -1.2375 0.0187 -2.8219 0.0187 h -3.3281 t -3.5437 -0.0094 t -3.4688 -0.0094 q -1.425 0 -2.3813 0.1406 t -1.5469 0.4406 t -0.8812 0.7969 t -0.4031 1.2094 t -0.1125 1.6594 v 2.1656 l -0.0562 21.1125 v 2.1656 t 0.1125 1.6594 t 0.525 1.9875 t 0.975 0.6 t 1.5375 0.4406 q 1.6687 0 3.4688 -0.0094 t 3.5437 -0.0094 h 5.475 t 2.8219 0.0187 q 0.6563 0 1.05 -0.4781 t 0.5719 -1.2 t 0.15 -1.575 t -0.2062 -1.5844 t -0.4969 -1.2188 t -0.7125 -0.4875 h -12.2438 z" transform="scale(1, -1)"/> -->
<!--R-->
<!-- <path class="st0" d="M 150 50 q 1.8 0.2062 3.9375 0.2531 t 4.3031 -0.2156 t 4.2 -0.9 t 3.6375 -1.7906 t 2.6156 -2.8781 t 1.125 -4.1812 q 0.075 -1.7625 -0.3187 -3.1781 t -1.1438 -2.5125 t -1.7719 -1.9031 t -2.2125 -1.3781 t -2.4656 -0.9375 t -2.4937 -0.5531 l 10.4812 -9.2438 q 0.3 -0.2625 0.225 -0.8438 t -0.4125 -1.275 t -0.8719 -1.3781 t -1.1344 -1.1438 t -1.2188 -0.5812 t -1.125 0.3094 l -11.9625 10.9313 l 0.15 -9.825 q 0 -0.3937 -0.4875 -0.7125 t -1.2375 -0.4969 t -1.6125 -0.2062 t -1.6031 0.15 t -1.2375 0.5719 t -0.4781 1.05 q 0 0.7875 0.0281 2.3906 t 0.0469 3.7312 t 0.0375 4.6125 t 0.0281 5.0438 t 0 5.0344 t -0.0469 4.5562 q -0.0187 1.35 0.0844 2.6531 t 0.4406 2.3438 t 0.9375 1.7156 t 1.5562 0.7875 z M 8.2687 19.4625 q 0.3187 -0.0562 0.9187 -0.0844 t 1.3594 -0.0094 t 1.6219 0.1219 t 1.7063 0.3094 t 1.6031 0.5437 t 1.3219 0.8344 t 0.8625 1.1906 t 0.225 1.5938 q -0.075 0.9187 -0.5625 1.6031 t -1.2469 1.1625 t -1.7344 0.7594 t -2.025 0.4125 t -2.1187 0.1031 t -2.025 -0.1594 z" transform="scale(1, -1)"/> -->
</svg>
