<?xml version="1.0" encoding="utf-8"?>
<!-- Generator: Adobe Illustrator 21.1.0, SVG Export Plug-In . SVG Version: 6.00 Build 0)  -->
<svg version="1.1" id="Layer_1" xmlns="http://www.w3.org/2000/svg" xmlns:xlink="http://www.w3.org/1999/xlink" x="0px" y="0px"
	 viewBox="0 0 368.5 48" style="enable-background:new 0 0 368.5 48;" xml:space="preserve">
<style type="text/css">
	.st0{fill:#FFFFFF;}
</style>

<!--FITNESSTRACKER-->
<!--F-->
<path class="st0" d="M 0 0 h 12 q 1.35 0 2.1187 -0.825 t 0.7687 -2.3625 t -0.7687 -2.2687 t -2.1187 -0.7312 h -8.2125 v -4.05 h 6.825 q 1.3875 0 2.2312 -0.6937 t 0.8438 -2.1938 q 0 -0.75 -0.2813 -1.4625 t -1.0313 
						-1.0875 t -1.7625 -0.375 h -6.825 v -6.225 q 0 -1.5375 -0.75 -2.25 t -2.4375 -0.7125 h -0.6 q -1.725 0 -2.4562 0.6937 t -0.7312 2.2687 v 19.2375 q 0 1.575 0.75 2.3062 t 2.4375 0.7312 z" 
						transform="rotate(180deg)"/>
<!--I-->
<path class="st0" d="M 0 0 h 0.6 q 1.6875 0 2.4375 -0.7312 t 0.75 -2.3062 v -19.2375 q 0 -1.5375 -0.75 -2.25 t -2.4375 -0.7125 h -0.6 q -1.725 0 -2.4562 0.6937 t -0.7312 2.2687 v 19.2375 q 0 1.575 0.75 2.3062 t 2.4375 0.7312 z" 
						transform="rotate(180deg) translate(50 50)"/>
<!--T-->y
<path class="st0" d="M 0 0 h 15.675 q 1.35 0 2.1187 -0.7875 t 0.7687 -2.325 t -0.7875 -2.3438 t -2.1 -0.8063 h -4.35 v -16.0125 q 0 -1.5375 -0.75 -2.25 t -2.4375 -0.7125 h -0.6375 q -1.6875 0 -2.4187 0.6937 t -0.7312 2.2687 
						v 16.0125 h -4.35 q -1.3125 0 -2.1 0.8063 t -0.7875 2.3438 t 0.7687 2.325 t 2.1187 0.7875 z" 
						transform="rotate(180deg) translate(500 v)"/>
<!--N-->
<path class="st0" d="M 0 0 h 1.3125 q 0.9 0 1.7625 -0.4125 t 1.7625 -1.7625 l 8.0625 -11.625 v 10.7625 q 0 1.6125 0.7125 2.325 t 2.3625 0.7125 h 0.4125 q 1.6875 0 2.4 -0.7125 t 0.7125 -2.325 v -19.125 q 0 -1.575 -0.7687 -2.325 t -2.4187 -0.75 
						h -0.7125 q -2.475 0 -4.0125 2.1375 l -8.3625 11.475 v -10.65 q 0 -1.575 -0.6937 -2.2687 t -2.3438 -0.6937 h -0.2625 q -1.725 0 -2.4187 0.6937 t -0.6937 2.2687 v 19.125 q 0 1.6125 0.75 2.3813 t 2.4375 0.7687 z" 
						transform="rotate(180deg) translate(500 500)"/>
<!--E-->
<path class="st0" d="M 0 0 h 11.775 q 1.35 0 2.1187 -0.7875 t 0.7687 -2.325 t -0.7875 -2.325 t -2.1 -0.7875 h -7.9875 v -3.7125 h 6.1875 q 1.425 0 2.0437 -0.4688 t 0.7312 -1.1062 t 0.1125 -0.9375 q 0 -1.05 -0.5625 -1.7813 t -2.325 -0.7312 
						h -6.1875 v -4.0875 h 8.25 q 1.35 0 2.1187 -0.7687 t 0.7687 -2.3062 t -0.7875 -2.325 t -2.1 -0.7875 h -12.0375 q -1.725 0 -2.4562 0.6937 t -0.7312 2.2687 v 19.2375 q 0 1.575 0.75 2.3062 t 2.4375 0.7312 z" 
						transform="rotate(180deg) translate(500 500)"/>
<!--S-->
<path class="st0" d="M 0 0 q 0 -0.975 -0.5625 -1.8562 t -1.5 -1.3313 q -2.8875 1.8375 -6.3375 1.8375 q -1.425 0 -2.2125 -0.5437 t -0.7875 -1.4063 q 0 -0.5625 0.525 -1.05 t 2.2875 -0.9 q 3.375 -0.7875 5.4375 -1.7813 t 3.1125 -2.4 
						t 1.05 -3.7312 q 0 -1.6875 -0.75 -3.1687 t -2.1375 -2.5875 t -3.375 -1.725 t -4.3125 -0.6188 q -2.4 0 -4.6875 0.5625 t -3.525 1.65 t -1.2375 2.325 q 0 0.975 0.4875 1.95 t 1.725 1.5375 q 0.4875 -0.525 1.875 -1.1625 
						t 2.8875 -0.9562 t 2.625 -0.3187 q 1.3875 0 2.2687 0.5625 t 0.8812 1.4625 q 0 0.7875 -0.8812 1.3125 t -2.9438 0.9375 q -4.2375 0.8625 -6.375 2.7563 t -2.1375 5.1937 q 0 1.7625 0.7125 3.2625 t 2.0063 2.5875 
						t 3.1125 1.6687 t 3.9562 0.5812 q 1.9125 0 3.5437 -0.3 t 2.8125 -0.8812 t 1.8187 -1.4625 t 0.6375 -2.0063 z" 
						transform="rotate(180deg) translate(500 500)"/>
<!--S-->
<path class="st0" d="M 0 0 q 0 -0.975 -0.5625 -1.8562 t -1.5 -1.3313 q -2.8875 1.8375 -6.3375 1.8375 q -1.425 0 -2.2125 -0.5437 t -0.7875 -1.4063 q 0 -0.5625 0.525 -1.05 t 2.2875 -0.9 q 3.375 -0.7875 5.4375 -1.7813 t 3.1125 -2.4 
						t 1.05 -3.7312 q 0 -1.6875 -0.75 -3.1687 t -2.1375 -2.5875 t -3.375 -1.725 t -4.3125 -0.6188 q -2.4 0 -4.6875 0.5625 t -3.525 1.65 t -1.2375 2.325 q 0 0.975 0.4875 1.95 t 1.725 1.5375 q 0.4875 -0.525 1.875 -1.1625 
						t 2.8875 -0.9562 t 2.625 -0.3187 q 1.3875 0 2.2687 0.5625 t 0.8812 1.4625 q 0 0.7875 -0.8812 1.3125 t -2.9438 0.9375 q -4.2375 0.8625 -6.375 2.7563 t -2.1375 5.1937 q 0 1.7625 0.7125 3.2625 t 2.0063 2.5875 
						t 3.1125 1.6687 t 3.9562 0.5812 q 1.9125 0 3.5437 -0.3 t 2.8125 -0.8812 t 1.8187 -1.4625 t 0.6375 -2.0063 z" 
						transform="rotate(180deg) translate(500 500)"/>
<!--T-->
<path class="st0" d="M 0 0 h 15.675 q 1.35 0 2.1187 -0.7875 t 0.7687 -2.325 t -0.7875 -2.3438 t -2.1 -0.8063 h -4.35 v -16.0125 q 0 -1.5375 -0.75 -2.25 t -2.4375 -0.7125 h -0.6375 q -1.6875 0 -2.4187 0.6937 t -0.7312 2.2687 v 16.0125 h -4.35 
						q -1.3125 0 -2.1 0.8063 t -0.7875 2.3438 t 0.7687 2.325 t 2.1187 0.7875 z" 
						transform="rotate(180deg) translate(500 500)"/>
<!--R-->
<path class="st0" d="M 0 0 h 7.575 q 2.1375 0 3.9187 -0.5437 t 3.0562 -1.5938 t 1.9688 -2.6062 t 0.6937 -3.4688 q 0 -1.875 -0.6937 -3.2625 t -1.8562 -2.2687 t -2.5125 -1.2562 q 1.125 -1.9125 2.9063 -3.7875 t 3.4688 -2.625 
						q -0.075 -1.05 -0.6937 -2.1187 t -1.5375 -1.5188 t -1.8937 -0.45 q -0.6375 0 -1.425 0.2062 t -1.7625 0.9 t -1.875 1.9312 t -1.5375 2.4562 t -1.2 2.4187 t -0.75 1.575 h -2.0625 v -6.2625 q 0 -1.575 -0.75 -2.2687 
						t -2.4375 -0.6937 h -0.525 q -1.3125 0 -1.9875 0.2437 t -0.9562 0.8063 t -0.2813 1.8375 v 19.3125 q 0 1.6125 0.75 2.325 t 2.4 0.7125 z M 9.375 13.95 h 3.3 q 1.3875 0 2.3438 0.7125 t 0.9562 1.9875 q 0 1.35 -0.9187 2.025 
						t -2.3813 0.675 h -3.3 v -5.4 z" 
						transform="rotate(180deg) translate(500 500)"/>
<!--A-->
<path class="st0" d="M 0 0 h 0.825 q 1.05 0 2.1938 -0.375 t 2.0625 -1.35 t 1.3687 -2.2875 q 3.525 -10.3875 5.2125 -17.025 q 0.3375 -1.4625 0.3375 -1.875 q 0 -2.3625 -3.15 -2.3625 h -0.975 q -1.4625 0 -2.2687 0.6 t -1.1625 1.6687 
						t -0.8812 3.6937 h -6.3 q -0.5625 -2.775 -0.975 -3.8438 t -1.1812 -1.5938 t -2.1563 -0.525 h -0.975 q -3.15 0 -3.15 2.1375 q 0 0.825 0.3375 2.1 q 2.175 8.5875 5.2125 17.025 q 0.75 2.0625 2.25 3.0375 t 3.375 0.975 
						z M 10.65 11.1375 h 4.65 q -0.975 4.65 -2.325 7.9125 q -1.1625 -2.5125 -2.325 -7.9125 z" 
						transform="rotate(180deg) translate(500 500)"/>
<!--C scale: 0.0375 -->
<path class="st0" d="M 0 0 q 0 -1.35 -0.9937 -2.2875 t -2.8687 -1.0875 q -0.4875 1.275 -1.7625 1.95 t -3.075 0.675 q -2.55 0 -4.05 -1.7625 t -1.5 -4.725 q 0 -3 1.5375 -4.6875 t 4.0125 -1.6875 q 1.7625 0 3.0187 0.7125 t 1.9688 1.9125 
						q 1.0875 -0.1125 2.0812 -0.675 t 1.4063 -1.3687 t 0.4125 -1.5188 q 0 -0.825 -0.4312 -1.7625 t -1.5 -1.7813 t -2.8312 -1.425 t -4.125 -0.5812 q -2.5125 0 -4.8 0.7687 t -4.0687 2.3625 t -2.8125 4.0687 t -1.0313 5.6625 
						t 0.9937 5.6812 t 2.7188 4.125 t 4.0125 2.4375 t 4.8 0.8063 q 1.9875 0 3.4688 -0.3937 t 2.5875 -1.0313 t 1.9688 -1.7813 t 0.8625 -2.6062 z" 
						transform="rotate(180deg) translate(500 500)"/>
<!--K-->
<path class="st0" d="M 0 0 h 0.6375 q 1.8 0 2.475 -0.8438 t 0.675 -2.7563 v -6.9 q 1.0125 1.125 2.1563 2.5875 t 2.3438 3.4125 t 1.2375 1.9875 q 0.975 1.575 2.175 2.0437 t 2.625 0.4688 h 1.2 q 0.9375 0 1.4812 -0.5062 t 0.5437 -1.2188 
						q 0 -0.375 -0.1875 -0.825 q -0.9375 -1.875 -2.8312 -4.275 t -4.5562 -4.875 q 3.975 -3.9 5.5125 -6 t 2.3625 -3.525 q 0.675 -1.2 0.675 -2.325 q 0 -0.75 -0.5625 -1.2188 t -1.575 -0.4688 h -2.8125 q -1.725 0 -2.7 1.725 
						q -0.7125 1.2375 -1.9688 3.075 t -2.6437 3.4312 t -2.475 2.5313 v -6.7125 q 0 -2.4375 -0.825 -3.2437 t -2.325 -0.8063 h -0.6375 q -1.0125 0 -1.7813 0.2625 t -1.0687 1.05 t -0.3 2.2125 v 18.1125 q 0 1.9125 0.675 2.7563 t 2.475 0.8438 z" 
						transform="rotate(180deg) translate(500 500)"/>
<!--E-->
<path class="st0" d="M 0 0 h 11.775 q 1.35 0 2.1187 -0.7875 t 0.7687 -2.325 t -0.7875 -2.325 t -2.1 -0.7875 h -7.9875 v -3.7125 h 6.1875 q 1.425 0 2.0437 -0.4688 t 0.7312 -1.1062 t 0.1125 -0.9375 q 0 -1.05 -0.5625 -1.7813 t -2.325 -0.7312 
						h -6.1875 v -4.0875 h 8.25 q 1.35 0 2.1187 -0.7687 t 0.7687 -2.3062 t -0.7875 -2.325 t -2.1 -0.7875 h -12.0375 q -1.725 0 -2.4562 0.6937 t -0.7312 2.2687 v 19.2375 q 0 1.575 0.75 2.3062 t 2.4375 0.7312 z" 
						transform="rotate(180deg) translate(500 500)"/>
<!--R-->
<path class="st0" d="M 0 0 h 7.575 q 2.1375 0 3.9187 -0.5437 t 3.0562 -1.5938 t 1.9688 -2.6062 t 0.6937 -3.4688 q 0 -1.875 -0.6937 -3.2625 t -1.8562 -2.2687 t -2.5125 -1.2562 q 1.125 -1.9125 2.9063 -3.7875 t 3.4688 -2.625 
						q -0.075 -1.05 -0.6937 -2.1187 t -1.5375 -1.5188 t -1.8937 -0.45 q -0.6375 0 -1.425 0.2062 t -1.7625 0.9 t -1.875 1.9312 t -1.5375 2.4562 t -1.2 2.4187 t -0.75 1.575 h -2.0625 v -6.2625 q 0 -1.575 -0.75 -2.2687 
						t -2.4375 -0.6937 h -0.525 q -1.3125 0 -1.9875 0.2437 t -0.9562 0.8063 t -0.2813 1.8375 v 19.3125 q 0 1.6125 0.75 2.325 t 2.4 0.7125 z M 9.375 13.95 h 3.3 q 1.3875 0 2.3438 0.7125 t 0.9562 1.9875 q 0 1.35 -0.9187 2.025 
						t -2.3813 0.675 h -3.3 v -5.4 z" 
						transform="rotate(180deg) translate(500 500)"/>
</svg>
