<?xml version="1.0" encoding="utf-8"?>
<!-- Generator: Adobe Illustrator 22.1.0, SVG Export Plug-In . SVG Version: 6.00 Build 0)  -->
<svg version="1.1" id="Layer_1" xmlns="http://www.w3.org/2000/svg" xmlns:xlink="http://www.w3.org/1999/xlink" x="0px" y="0px"
	 viewBox="0 0 41.3 48.1" style="enable-background:new 0 0 41.3 48.1;" xml:space="preserve">
<style type="text/css">
	.st0{fill:#FFFFFF;}
</style>
<!--F-->
<path class="st0" d="M 7 -10 l 9.975 0.0375 q 0.3937 0 0.7125 -0.4969 t 0.4969 -1.2375 t 0.2062 -1.6031 t -0.15 -1.6031 t -0.5719 -1.2375 t -1.05 -0.4781 l -9.6 0.1125 l 0.0187 -12.1687 q 0 -0.3563 -0.4875 -0.6469 t -1.2188 -0.4688 t -1.5938 -0.2344 t -1.5938 0.0562 t -1.2188 0.4219 t -0.4875 0.8531 l -0.0562 26.4187 v 2.1656 t 0.0375 1.6406 q 1.6687 0 8.7937 -0.0187 t 3.5437 -0.0094 h 3.3281 t 2.8219 0.0187 q 0.6563 0 1.05 -0.4781 t 0.5719 -1.2 t 0.15 -1.575 t -0.2062 -1.5844 t -0.4969 -1.2188 t -0.7125 -0.4875 h -12.2438 z" transform="scale(1, -1)"/>
<!--T-->
<path class="st0" d="M 40 1 q 0.3937 0 0.7125 -0.4875 t 0.4969 -1.2188 t 0.2062 -1.575 t -0.15 -1.575 t -0.5719 -1.2094 t -1.05 -0.4781 l -4.9312 0.0187 l 0.1125 -25.8562 q 0 -0.3937 -0.4875 -0.7125 t -1.2375 -0.4969 t -1.6125 -0.2062 t -1.6031 0.15 t -1.2375 0.5719 t -0.4781 1.05 q 0 0.4312 0.0094 1.4625 t 0.0094 2.4844 v 3.2437 t 0.0094 3.75 t 0.0094 3.975 v 3.9281 v 3.6281 v 3.0656 l -5.2125 0.0375 q -0.3563 0 -0.6094 0.4781 t -0.3937 1.1906 t -0.1594 1.5375 t 0.0938 1.5375 t 0.3469 1.1812 t 0.6281 0.4688 z" transform="scale(1, -1)"/>
</svg>
