<?xml version="1.0" standalone="no"?>
<!DOCTYPE svg PUBLIC "-//W3C//DTD SVG 1.1//EN" "http://www.w3.org/Graphics/SVG/1.1/DTD/svg11.dtd" >
<svg xmlns="http://www.w3.org/2000/svg" xmlns:xlink="http://www.w3.org/1999/xlink" version="1.1">
<metadata>
Created by FontForge 20200427 at Tue Jul 21 19:36:34 2015
 By www
Copyright (c) 2012 by Philatype.com. All rights reserved.
</metadata>
<defs>
<font id="MergeW00-Bold" horiz-adv-x="567" >
  <font-face 
    font-family="MergeW00-Bold"
    font-weight="700"
    font-stretch="normal"
    units-per-em="1000"
    panose-1="1 0 0 0 0 0 0 0 0 0"
    ascent="800"
    descent="-200"
    x-height="518"
    cap-height="673"
    bbox="-75 -342 1063 916"
    underline-thickness="50"
    underline-position="-125"
    unicode-range="U+0020-F6C3"
  />
<missing-glyph horiz-adv-x="354" 
 />
    <glyph glyph-name=".notdef" horiz-adv-x="354" 
 />
    <glyph glyph-name=".null" horiz-adv-x="0" 
 />
    <glyph glyph-name="nonmarkingreturn" horiz-adv-x="333" 
 />
    <glyph glyph-name="space" unicode=" " horiz-adv-x="229" 
 />
    <glyph glyph-name="exclam" unicode="!" horiz-adv-x="302" 
d="M157 239h-13q-30 0 -45 19.5t-19 64.5l-26 265l-1 17q0 41 21.5 60.5t66.5 19.5h19q46 0 66.5 -19t20.5 -61v-17l-26 -265q-4 -45 -19.5 -64.5t-44.5 -19.5zM255 87q0 -51 -30.5 -75t-74.5 -24q-43 0 -73.5 24t-30.5 75q0 50 30.5 74.5t73.5 24.5q44 0 74.5 -24.5
t30.5 -74.5z" />
    <glyph glyph-name="quotedbl" unicode="&#x22;" horiz-adv-x="452" 
d="M127 392h-8q-34 0 -44 28q-12 34 -22 98t-12 116q-1 31 19.5 47t59.5 16h6q39 0 59.5 -16t19.5 -47q-2 -52 -12 -116t-22 -98q-10 -28 -44 -28zM334 392h-8q-34 0 -44 28q-12 34 -22 98t-12 116q-1 31 19.5 47t59.5 16h6q39 0 59.5 -16t19.5 -47q-2 -52 -12 -116t-22 -98
q-10 -28 -44 -28z" />
    <glyph glyph-name="numbersign" unicode="#" horiz-adv-x="723" 
d="M331 97l20 65h-97q-1 -4 -13.5 -43t-24 -61t-29.5 -34.5t-44 -12.5q-70 0 -70 52q0 22 25 99q-34 0 -51.5 4t-28 17.5t-10.5 41.5q0 29 15 46t69 17h46l35 111h-35q-51 0 -64 16.5t-13 46.5q0 27 13 45t55 18h84q1 2 2 6.5t11.5 42t22.5 59.5t31 35.5t48 13.5
q35 0 52 -13.5t17 -41.5q0 -24 -27 -102h96q2 5 17.5 57.5t38.5 76t59 23.5q17 0 33.5 -6.5t25.5 -22.5t9 -35q0 -13 -26 -93q45 0 62 -8.5t22 -23.5t5 -31q0 -30 -15 -46.5t-70 -16.5h-44l-36 -111h30q51 0 66.5 -16.5t15.5 -46.5q0 -27 -12.5 -44.5t-55.5 -18.5h-85
q-3 -9 -13 -43t-19 -52.5t-19 -30t-24 -18.5t-35 -7q-36 0 -54.5 14t-18.5 37q0 14 8 35zM294 288h97l35 111h-96z" />
    <glyph glyph-name="dollar" unicode="$" horiz-adv-x="596" 
d="M214 671v18q0 44 17 65.5t60 21.5h2q44 0 61.5 -21.5t17.5 -65.5v-11q73 -9 119.5 -39.5t46.5 -80.5q0 -26 -15 -49.5t-40 -35.5q-77 49 -169 49q-38 0 -59 -14.5t-21 -37.5q0 -15 14 -28t61 -24q90 -21 145 -47.5t83 -64t28 -99.5q0 -75 -52 -131t-141 -76v-10
q0 -32 -9 -52t-28 -27t-40 -7h-4q-44 0 -60.5 21t-16.5 65v5q-81 10 -132 41.5t-51 75.5q0 26 13 52t46 41q13 -14 50 -31t77 -25.5t70 -8.5q37 0 60.5 15t23.5 39q0 21 -23.5 35t-78.5 25q-113 23 -170 73.5t-57 138.5q0 76 46.5 130.5t125.5 74.5z" />
    <glyph glyph-name="percent" unicode="%" horiz-adv-x="743" 
d="M682 645q0 -7 -5 -18.5t-33 -46.5l-463 -555q-25 -30 -47 -30q-18 0 -39 18h-1q-25 22 -25 42q0 18 22 45l15 18l463 556q25 31 48 31q16 0 40 -18q25 -22 25 -42zM342 536q0 -49 -21.5 -83.5t-58 -53.5t-76.5 -19q-25 0 -54 9.5t-52 28.5t-37.5 49t-14.5 69
q0 49 23.5 86.5t62 54.5t72.5 17q39 0 76 -19.5t58.5 -54.5t21.5 -84zM128 538q0 -31 17.5 -46.5t39.5 -15.5q16 0 30 8.5t20 23.5t6 30t-6 30t-20 23t-30 8q-22 0 -39.5 -15t-17.5 -46zM714 151q0 -48 -21.5 -82.5t-58 -53t-76.5 -18.5t-77 18.5t-58.5 53t-21.5 82.5
q0 29 9.5 58t34 54.5t57 36t56.5 10.5q41 0 81 -22.5t57.5 -60t17.5 -76.5zM501 154q0 -31 17 -46.5t39 -15.5t39.5 15.5t17.5 46.5q0 15 -6.5 30t-20.5 23t-30 8t-30 -8t-20 -23t-6 -30z" />
    <glyph glyph-name="ampersand" unicode="&#x26;" horiz-adv-x="665" 
d="M651 39q0 -19 -20.5 -29.5t-54.5 -10.5q-24 0 -43 6.5t-59 38.5q-36 -30 -80.5 -43.5t-104.5 -13.5q-125 0 -196.5 51.5t-71.5 136.5q0 113 122 178q-41 34 -62 69.5t-21 83.5q0 25 10 54t38.5 60t73 47t91.5 16q35 0 72 -10.5t68 -34.5t51 -60t20 -79q0 -52 -25 -90
t-94 -79l102 -99q12 16 15.5 31.5t9.5 58.5q36 -2 61.5 -18.5t34.5 -37t9 -36.5q0 -48 -30 -93l70 -70q14 -14 14 -27zM272 407q62 33 62 82q0 24 -18 42.5t-45 18.5q-26 0 -41 -16t-15 -41q0 -17 9 -34.5t48 -51.5zM370 148l-134 123q-51 -28 -51 -79q0 -29 26 -51t67 -22
q31 0 54.5 8t37.5 21z" />
    <glyph glyph-name="quotesingle" unicode="'" horiz-adv-x="245" 
d="M127 392h-8q-34 0 -44 28q-12 34 -22 98t-12 116q-1 31 19.5 47t59.5 16h6q39 0 59.5 -16t19.5 -47q-2 -52 -12 -116t-22 -98q-10 -28 -44 -28z" />
    <glyph glyph-name="parenleft" unicode="(" horiz-adv-x="392" 
d="M352 -162q0 -32 -22.5 -54t-54.5 -22q-22 0 -45 15t-37 32q-71 85 -108 187.5t-37 232.5v8q0 137 38 242.5t112 191.5q15 17 31.5 29t40.5 12q36 0 60.5 -22.5t24.5 -56.5q0 -10 -4.5 -23t-31.5 -49q-51 -67 -77 -143.5t-26 -172.5v-16q0 -96 26 -172.5t77 -143.5
q26 -35 32 -62z" />
    <glyph glyph-name="parenright" unicode=")" horiz-adv-x="392" 
d="M73 -87q51 65 76.5 142t25.5 174v16q0 192 -103 317q-16 19 -26 35t-10 36q0 33 23 55.5t56 22.5q25 0 46.5 -13.5t36.5 -31.5q72 -86 109 -191t37 -238q0 -67 -12.5 -143t-48 -150t-85.5 -135q-14 -17 -36.5 -32t-44.5 -15q-33 0 -55.5 22t-22.5 55l1 12q6 27 33 62z
" />
    <glyph glyph-name="asterisk" unicode="*" horiz-adv-x="470" 
d="M174 587v54q0 25 13 40.5t28.5 18.5t21.5 3q30 0 45.5 -14.5t15.5 -38.5v-62q5 3 27 14.5t33 15.5t16 4q19 0 36.5 -19.5t17.5 -47.5q0 -10 -3 -20t-11 -19.5t-21 -17t-33 -16t-26 -11.5q5 -5 24.5 -26.5t28 -35.5t8.5 -24q0 -20 -20.5 -40.5t-48.5 -20.5q-14 0 -31 9
t-37 34.5t-24 29.5q-4 -4 -15 -18.5t-18.5 -23t-16.5 -15.5t-19.5 -11.5t-21.5 -4.5q-28 0 -49 20.5t-21 41.5q0 8 11 25t51 60q-6 3 -25 11t-29.5 13.5t-20 13.5t-15 20t-5.5 26q0 28 17.5 47.5t36.5 19.5q4 0 15 -4t35.5 -16t29.5 -15z" />
    <glyph glyph-name="plus" unicode="+" horiz-adv-x="585" 
d="M291 559h1q31 0 48.5 -11t24.5 -33.5t7 -63.5v-61h71q82 0 82 -77t-82 -77h-71v-67q0 -40 -7 -62.5t-23.5 -33.5t-46.5 -11h-3q-32 0 -49 11t-23.5 33t-6.5 63v67h-71q-82 0 -82 77t82 77h71v61q0 66 20 87t58 21z" />
    <glyph glyph-name="comma" unicode="," horiz-adv-x="295" 
d="M255 64q0 -47 -20.5 -91t-56 -67.5t-70.5 -23.5q-28 0 -41 13t-13 30q39 13 63.5 39t24.5 58q-33 -5 -56 8q-36 20 -36 62q0 19 9 41t32.5 38t54.5 16q20 0 45.5 -11.5t44.5 -42t19 -69.5z" />
    <glyph glyph-name="hyphen" unicode="-" horiz-adv-x="460" 
d="M123 377h214q39 0 60 -20t21 -57t-21 -57t-60 -20h-214q-39 0 -60 20t-21 57t21 57t60 20z" />
    <glyph glyph-name="period" unicode="." horiz-adv-x="295" 
d="M245 90q0 -33 -16.5 -56.5t-39.5 -31.5t-42 -8q-29 0 -53 14.5t-34 37t-10 44.5t10 44.5t34 37t53 14.5q42 0 70 -25.5t28 -70.5z" />
    <glyph glyph-name="slash" unicode="/" horiz-adv-x="431" 
d="M404 607l-207 -571q-25 -69 -90 -66q-51 2 -68.5 29.5t-1.5 72.5l204 571q13 36 34 51.5t59 14.5q26 -1 47 -11t27.5 -35t-4.5 -56z" />
    <glyph glyph-name="zero" unicode="0" horiz-adv-x="677" 
d="M641 338q0 -87 -24 -154t-66 -109.5t-97 -63t-115 -20.5q-61 0 -116 20.5t-97 63t-66.5 109t-24.5 152.5q0 87 24 154t66.5 109t97.5 62.5t116 20.5t115.5 -20t96.5 -61.5t66 -108t24 -154.5zM226 337q0 -77 29 -121.5t83 -44.5t82.5 44.5t28.5 121.5q0 76 -30 120
t-81 44q-52 0 -82 -44t-30 -120z" />
    <glyph glyph-name="one" unicode="1" horiz-adv-x="415" 
d="M127 673h143q48 0 68 -23t20 -69v-485q0 -48 -20 -72t-68 -24h-34q-92 0 -92 80v424q-48 0 -77 24t-29 63q0 37 22 59.5t67 22.5z" />
    <glyph glyph-name="two" unicode="2" horiz-adv-x="591" 
d="M536 485q0 -32 -8 -60.5t-24 -54.5t-50.5 -62t-164.5 -138h176q93 0 93 -83q0 -41 -23 -64t-70 -23h-316q-58 0 -87.5 25.5t-29.5 73.5q0 58 70 113q125 98 172 144.5t47 75.5q0 15 -10 30.5t-34 24.5t-52 9q-41 0 -76 -18t-54 -41q-28 8 -45.5 31.5t-17.5 56.5
q0 25 12.5 51.5t42 49.5t78.5 38t116 15q116 0 185.5 -53t69.5 -141z" />
    <glyph glyph-name="three" unicode="3" horiz-adv-x="609" 
d="M552 494q0 -24 -9 -53.5t-33.5 -55t-56.5 -37.5q52 -14 88.5 -53t36.5 -99q0 -34 -12.5 -64.5t-35.5 -55t-55.5 -42.5t-80.5 -30.5t-110 -12.5q-71 0 -132 13.5t-92 41t-31 60.5q0 36 17.5 62t48.5 39q25 -20 71.5 -35t100.5 -15q32 0 57.5 9.5t35.5 24.5t10 28
q0 12 -9 24t-32.5 19t-52.5 7h-47q-62 0 -62 62q0 35 16.5 49t45.5 14h44q39 0 61.5 13.5t22.5 38.5q0 23 -25.5 39.5t-67.5 16.5q-34 0 -68 -11t-67 -42q-39 5 -54.5 31.5t-15.5 62.5q0 39 31 70.5t83.5 49t124.5 17.5q59 0 107 -14t80.5 -39.5t49.5 -59.5t17 -73z" />
    <glyph glyph-name="four" unicode="4" horiz-adv-x="668" 
d="M554 551v-259h20q31 0 50 -19t19 -51v-18q0 -19 -10 -35.5t-26.5 -23.5t-32.5 -7h-20v-56q0 -37 -24.5 -59.5t-78.5 -22.5q-28 0 -51.5 9.5t-34.5 32t-11 49.5v47h-215q-25 0 -53.5 8t-48 30t-19.5 52q0 48 29 88q105 143 180 255q40 59 83 84t113 25q131 0 131 -129z
M240 292h121v195q-22 -32 -60.5 -97.5t-60.5 -97.5z" />
    <glyph glyph-name="five" unicode="5" horiz-adv-x="595" 
d="M164 673h289q47 0 74 -24t27 -63q0 -46 -24 -64.5t-78 -18.5h-195l-5 -96q12 4 42.5 6.5t56.5 2.5q98 0 156 -51t58 -138q0 -53 -23 -97t-64.5 -75t-98 -47.5t-121.5 -16.5q-43 0 -97 9t-92.5 38t-38.5 74q0 74 51 94q10 -10 34.5 -22.5t64 -21t75.5 -8.5q22 0 46 7.5
t40.5 25.5t16.5 39q0 32 -28 48t-78 16l-93 -5h-3q-41 0 -64.5 21t-23.5 58v1l7 236q0 72 89 72z" />
    <glyph glyph-name="six" unicode="6" horiz-adv-x="632" 
d="M564 556q0 -16 -7.5 -33.5t-25 -30.5t-39.5 -19q-22 21 -51.5 31.5t-77.5 10.5q-26 0 -58 -12.5t-54.5 -47t-22.5 -85.5q57 51 158 51q34 0 70.5 -8.5t71 -33.5t51.5 -65.5t17 -85.5q0 -47 -17.5 -90t-51.5 -76t-84.5 -52t-112.5 -19q-66 0 -120.5 20t-93.5 61t-60 103.5
t-21 144.5q0 81 22 148.5t64 115t102 73t133 25.5q67 0 112.5 -16.5t70.5 -45.5t25 -64zM235 241q0 -25 12.5 -49t33 -34.5t40.5 -10.5q21 0 42 9t33.5 31.5t12.5 51.5q0 38 -22.5 60.5t-65.5 22.5q-37 0 -61.5 -23t-24.5 -58z" />
    <glyph glyph-name="seven" unicode="7" horiz-adv-x="581" 
d="M108 673h331q58 0 88.5 -18t30.5 -60q0 -59 -58 -178l-132 -292q-31 -70 -65.5 -97.5t-76.5 -27.5h-30q-35 0 -56 20t-21 50q0 24 13 50q9 18 30 59.5t85.5 174t73.5 149.5h-197q-55 0 -80.5 19t-25.5 66q0 37 23 61t67 24z" />
    <glyph glyph-name="eight" unicode="8" horiz-adv-x="635" 
d="M585 489q0 -44 -18 -76t-41 -46.5t-40 -20.5q65 -29 91 -68.5t26 -91.5q0 -41 -18.5 -77t-55 -62.5t-90.5 -41.5t-121 -15t-121 14.5t-90.5 41t-55.5 63t-19 77.5q0 43 15 73t39.5 50t61.5 37q-28 9 -52 30t-35 51t-11 62t13.5 65.5t50.5 65t92.5 46.5t111.5 15
t105 -13.5t85.5 -39t56.5 -61.5t20 -78zM318 538q-35 0 -58 -20t-23 -51q0 -33 21.5 -51.5t59.5 -18.5q37 0 59 19t22 51q0 31 -23 51t-58 20zM318 279q-40 0 -66 -21t-26 -55q0 -33 26 -53.5t66 -20.5q39 0 65 20.5t26 53.5q0 35 -25 55.5t-66 20.5z" />
    <glyph glyph-name="nine" unicode="9" horiz-adv-x="629" 
d="M593 352q0 -73 -21 -139t-61 -115.5t-99 -78t-131 -28.5q-76 0 -128 15.5t-81 45.5t-29 74q0 27 18 50t46 34q22 -22 60 -37.5t91 -15.5q26 0 56 12t48 31.5t28.5 42.5t10.5 52q-70 -44 -150 -44q-47 0 -87 12.5t-69 37t-44.5 60.5t-15.5 81q0 47 18 90.5t52 77t84 53
t110 19.5q82 0 145.5 -32t97.5 -90t42.5 -113.5t8.5 -94.5zM220 428q0 -83 85 -83q39 0 64 22t25 59q0 27 -13 51t-34.5 33.5t-41.5 9.5q-40 0 -62.5 -25.5t-22.5 -66.5z" />
    <glyph glyph-name="colon" unicode=":" horiz-adv-x="295" 
d="M245 419q0 -33 -16.5 -56.5t-39.5 -31.5t-42 -8q-29 0 -53 14.5t-34 37t-10 44.5t10 44.5t34 37t53 14.5q42 0 70 -25.5t28 -70.5zM245 90q0 -33 -16.5 -56.5t-39.5 -31.5t-42 -8q-29 0 -53 14.5t-34 37t-10 44.5t10 44.5t34 37t53 14.5q42 0 70 -25.5t28 -70.5z" />
    <glyph glyph-name="semicolon" unicode=";" horiz-adv-x="295" 
d="M245 419q0 -33 -16.5 -56.5t-39.5 -31.5t-42 -8q-29 0 -53 14.5t-34 37t-10 44.5t10 44.5t34 37t53 14.5q42 0 70 -25.5t28 -70.5zM255 64q0 -47 -20.5 -91t-56 -67.5t-70.5 -23.5q-28 0 -41 13t-13 30q39 13 63.5 39t24.5 58q-33 -5 -56 8q-36 20 -36 62q0 19 9 41
t32.5 38t54.5 16q20 0 45.5 -11.5t44.5 -42t19 -69.5z" />
    <glyph glyph-name="less" unicode="&#x3c;" horiz-adv-x="578" 
d="M440 525l9 3q9 4 21 4q26 0 42 -23.5t16 -60.5v-12q0 -57 -63 -78l-202 -70v-13l212 -74q23 -7 38 -27t15 -47v-12q0 -37 -16.5 -60.5t-41.5 -23.5q-11 0 -30 7l-322 137q-68 23 -68 94v24q0 28 12 52t56 43z" />
    <glyph glyph-name="equal" unicode="=" horiz-adv-x="609" 
d="M119 451h367q42 0 61.5 -19t19.5 -61q0 -36 -21.5 -55.5t-59.5 -19.5h-363q-41 0 -61 18.5t-20 60.5q0 76 77 76zM119 233h367q42 0 61.5 -18.5t19.5 -60.5q0 -37 -21.5 -56.5t-59.5 -19.5h-363q-41 0 -61 18.5t-20 60.5q0 76 77 76z" />
    <glyph glyph-name="greater" unicode="&#x3e;" horiz-adv-x="577" 
d="M460 388q44 -22 55.5 -44.5t11.5 -50.5v-24q0 -29 -11.5 -52t-55.5 -42l-323 -137q-22 -9 -29 -9q-24 0 -41 25.5t-17 62.5v10q0 56 62 78l203 70v13q-165 57 -212 74q-24 6 -38.5 26t-14.5 48v10q0 17 5.5 37.5t20 35.5t32.5 15q10 0 23 -6z" />
    <glyph glyph-name="question" unicode="?" horiz-adv-x="546" 
d="M506 505q0 -33 -10.5 -59.5t-29 -52.5t-88.5 -84q-45 -37 -60.5 -47.5t-32 -16.5t-32.5 -6h-3q-87 0 -87 59q0 28 18 53.5t67 53.5q47 27 57 38.5t10 23.5q0 23 -24.5 37.5t-61.5 14.5q-33 0 -66.5 -8.5t-64.5 -39.5q-53 21 -53 79q0 24 13 48t45.5 45.5t77.5 32t80 10.5
q53 0 98.5 -13.5t78.5 -38t50.5 -58t17.5 -71.5zM356 87q0 -51 -30.5 -75t-74.5 -24q-43 0 -73.5 24t-30.5 75q0 50 30.5 74.5t73.5 24.5t74 -24.5t31 -74.5z" />
    <glyph glyph-name="at" unicode="@" horiz-adv-x="727" 
d="M325 162q-22 0 -46.5 6.5t-46 24t-37 51t-15.5 85.5t15.5 90t45 61t71.5 23q16 0 35 -8.5t35 -26.5q26 37 64 37q41 0 58 -18.5t17 -62.5v-114q0 -48 35 -48q46 0 46 72q0 50 -13 97.5t-47.5 86.5t-83 55.5t-94.5 16.5q-72 0 -125.5 -30.5t-83 -86.5t-29.5 -139
q0 -50 13.5 -97.5t44.5 -82t76 -54t100 -19.5q26 0 56.5 5.5t51.5 19.5t23 31q24 -1 39.5 -13.5t15.5 -36.5q0 -40 -51 -66.5t-136 -26.5q-61 0 -119.5 18t-105.5 58t-75.5 107t-28.5 157q0 67 19 131.5t62.5 112t107.5 75t145 27.5q63 0 122.5 -19.5t107 -61t76 -108.5
t28.5 -157q0 -79 -42 -125.5t-113 -46.5q-38 0 -68.5 10.5t-62.5 43.5q-10 -23 -33.5 -38.5t-53.5 -15.5zM402 305v32q0 31 -2 42t-8 18.5t-16.5 11.5t-25.5 4q-24 0 -40.5 -20t-16.5 -61q0 -39 15.5 -59t42.5 -20q21 0 36 17.5t15 34.5z" />

    <glyph glyph-name="A" unicode="A" horiz-adv-x="692" 
d="M335 674h22q28 0 58.5 -10t55 -36t36.5 -61q94 -277 139 -454q9 -39 9 -50q0 -63 -84 -63h-26q-39 0 -60.5 16t-31 44.5t-23.5 98.5h-168q-15 -74 -26 -102.5t-31.5 -42.5t-57.5 -14h-26q-84 0 -84 57q0 22 9 56q58 229 139 454q20 55 60 81t90 26zM284 297h124
q-26 124 -62 211q-31 -67 -62 -211z" />
    <glyph glyph-name="B" unicode="B" horiz-adv-x="646" 
d="M149 673h189q120 0 184.5 -46t64.5 -129q0 -22 -9 -50.5t-31.5 -53.5t-49.5 -36q32 -7 60 -28t44.5 -52.5t16.5 -75.5q0 -60 -30.5 -104t-90.5 -71t-147 -27h-201q-46 0 -65 18.5t-19 60.5v513q0 43 20 62t64 19zM250 398h81q81 0 81 65q0 63 -84 63h-78v-128zM250 148
h89q91 0 91 70q0 66 -89 66h-91v-136z" />
    <glyph glyph-name="C" unicode="C" horiz-adv-x="638" 
d="M607 527q0 -36 -26.5 -61t-76.5 -29q-13 34 -47 52t-82 18q-68 0 -108 -47t-40 -126q0 -80 41 -125t107 -45q47 0 80.5 19t52.5 51q29 -3 55.5 -18t37.5 -36.5t11 -40.5q0 -22 -11.5 -47t-40 -47.5t-75.5 -38t-110 -15.5q-67 0 -128 20.5t-108.5 63t-75 108.5t-27.5 151
t26.5 151.5t72.5 110t107 65t128 21.5q53 0 92.5 -10.5t69 -27.5t52.5 -47.5t23 -69.5z" />
    <glyph glyph-name="D" unicode="D" horiz-adv-x="694" 
d="M149 673h163q169 0 258 -85t89 -250q0 -166 -89.5 -252t-257.5 -86h-163q-45 0 -64.5 18.5t-19.5 60.5v514q0 42 20 61t64 19zM250 169h84q66 0 106 44.5t40 122.5q0 79 -40 123.5t-106 44.5h-84v-335z" />
    <glyph glyph-name="E" unicode="E" horiz-adv-x="578" 
d="M150 673h314q36 0 56.5 -21t20.5 -62t-21 -62t-56 -21h-213v-99h165q38 0 54.5 -12.5t19.5 -29.5t3 -25q0 -28 -15 -47.5t-62 -19.5h-165v-109h220q36 0 56.5 -20.5t20.5 -61.5t-21 -62t-56 -21h-321q-46 0 -65.5 18.5t-19.5 60.5v513q0 42 20 61.5t65 19.5z" />
    <glyph glyph-name="F" unicode="F" horiz-adv-x="566" 
d="M150 673h320q36 0 56.5 -22t20.5 -63t-20.5 -60.5t-56.5 -19.5h-219v-108h182q37 0 59.5 -18.5t22.5 -58.5q0 -20 -7.5 -39t-27.5 -29t-47 -10h-182v-166q0 -41 -20 -60t-65 -19h-16q-46 0 -65.5 18.5t-19.5 60.5v513q0 42 20 61.5t65 19.5z" />
    <glyph glyph-name="G" unicode="G" horiz-adv-x="683" 
d="M601 534q0 -32 -23 -56t-63 -29q-30 35 -65.5 46t-80.5 11q-67 0 -108.5 -45.5t-41.5 -126.5q0 -83 41.5 -126.5t110.5 -43.5q26 0 53.5 10t44.5 32.5t17 45.5q0 10 -12 10h-57q-28 0 -44.5 17t-16.5 46q0 28 16.5 44.5t44.5 16.5h163q30 0 52.5 -21t22.5 -51v-45
q0 -49 -18 -98t-54.5 -90t-93.5 -65.5t-129 -24.5q-62 0 -121 19.5t-106.5 61t-76 108.5t-28.5 156q0 67 17 123t46.5 96t67.5 66.5t81.5 41t75.5 17t43 2.5q66 0 124.5 -18t88 -53.5t29.5 -76.5z" />
    <glyph glyph-name="H" unicode="H" horiz-adv-x="730" 
d="M150 673h16q45 0 65 -19.5t20 -61.5v-173h228v173q0 42 20 61.5t64 19.5h17q45 0 64.5 -19.5t19.5 -61.5v-513q0 -42 -19.5 -60.5t-64.5 -18.5h-17q-45 0 -64.5 18.5t-19.5 60.5v184h-228v-184q0 -41 -20 -60t-65 -19h-16q-46 0 -65.5 18.5t-19.5 60.5v513q0 42 20 61.5
t65 19.5z" />
    <glyph glyph-name="I" unicode="I" horiz-adv-x="316" 
d="M150 673h16q45 0 65 -19.5t20 -61.5v-513q0 -41 -20 -60t-65 -19h-16q-46 0 -65.5 18.5t-19.5 60.5v513q0 42 20 61.5t65 19.5z" />
    <glyph glyph-name="J" unicode="J" horiz-adv-x="371" 
d="M208 673h17q44 0 64 -19.5t20 -61.5v-518q0 -148 -55 -222.5t-171 -74.5q-28 0 -56 6.5t-52.5 23t-36 41t-11.5 45.5q0 48 30 72q10 -12 33 -21t52 -9q37 0 59 22.5t22 71.5v563q0 42 20 61.5t65 19.5z" />
    <glyph glyph-name="K" unicode="K" horiz-adv-x="672" 
d="M149 673h17q48 0 66 -22.5t18 -73.5v-184q27 30 57.5 69t62.5 91t33 53q26 42 58 54.5t70 12.5h32q25 0 39.5 -13.5t14.5 -32.5q0 -10 -5 -22q-25 -50 -75.5 -114t-121.5 -130q106 -104 147 -160t63 -94q18 -32 18 -62q0 -20 -15 -32.5t-42 -12.5h-75q-46 0 -72 46
q-19 33 -52.5 82t-70.5 91.5t-66 67.5v-179q0 -65 -22 -86.5t-62 -21.5h-17q-27 0 -47.5 7t-28.5 28t-8 59v483q0 51 18 73.5t66 22.5z" />
    <glyph glyph-name="L" unicode="L" horiz-adv-x="561" 
d="M150 673h16q45 0 65 -19.5t20 -61.5v-422h216q36 0 56.5 -22t20.5 -63t-21 -63t-56 -22h-317q-46 0 -65.5 18.5t-19.5 60.5v513q0 42 20 61.5t65 19.5z" />
    <glyph glyph-name="M" unicode="M" horiz-adv-x="859" 
d="M154 673h44q24 0 49.5 -9t46 -37.5t42.5 -96.5q72 -220 93 -277q9 24 92 277q23 70 41 95t41.5 36.5t56.5 11.5h45q49 0 68.5 -24.5t19.5 -75.5l1 -494q0 -42 -19.5 -60.5t-65.5 -18.5h-6q-43 0 -63.5 19t-20.5 60l1 295q-3 -11 -12.5 -41.5t-30.5 -91.5t-28 -81
q-15 -44 -45.5 -70t-65.5 -26h-20q-37 0 -67.5 26t-44.5 71q-9 29 -32 101t-35 112l1 -295q0 -41 -20 -60t-64 -19h-7q-45 0 -64.5 18.5t-19.5 60.5l2 510q0 44 20.5 64t66.5 20z" />
    <glyph glyph-name="N" unicode="N" horiz-adv-x="735" 
d="M150 673h35q24 0 47 -11t47 -47l215 -310v287q0 43 19 62t63 19h11q45 0 64 -19t19 -62v-510q0 -42 -20.5 -62t-64.5 -20h-19q-66 0 -107 57l-223 306v-284q0 -42 -18.5 -60.5t-62.5 -18.5h-7q-46 0 -64.5 18.5t-18.5 60.5v510q0 43 20 63.5t65 20.5z" />
    <glyph glyph-name="O" unicode="O" horiz-adv-x="733" 
d="M698 335q0 -90 -29 -157.5t-77.5 -108t-107 -59.5t-117.5 -19q-60 0 -119 19t-107.5 59.5t-77.5 108t-29 157.5q0 91 29 159t77.5 109t107 60t118.5 19t118.5 -19t107 -60t77.5 -109t29 -159zM224 336q0 -45 12 -78.5t32.5 -54.5t47 -30.5t50.5 -9.5q27 0 52.5 10
t45.5 30.5t32 54t12 78.5q0 33 -8 65.5t-29 59t-50.5 37t-54.5 10.5q-24 0 -50.5 -9t-47 -30t-32.5 -54.5t-12 -78.5z" />
    <glyph glyph-name="P" unicode="P" horiz-adv-x="619" 
d="M150 673h182q121 0 187 -59t66 -167q0 -107 -66 -166t-187 -59h-81v-143q0 -41 -20 -60t-65 -19h-16q-46 0 -65.5 18.5t-19.5 60.5v513q0 42 20 61.5t65 19.5zM251 366h71q37 0 60.5 19t23.5 55q0 37 -23.5 55.5t-60.5 18.5h-71v-148z" />
    <glyph glyph-name="Q" unicode="Q" horiz-adv-x="758" 
d="M698 335q0 -39 -7 -81t-25.5 -83.5t-48.5 -74t-58 -51.5q42 -30 133 -30l22 1q0 -24 -10 -57.5t-38 -59t-70 -25.5q-45 0 -90.5 26.5t-92.5 94.5q-30 -4 -47 -4q-60 0 -118.5 19t-107 59.5t-77.5 108t-29 157.5q0 91 29 159t77.5 109t107 60t118.5 19t118.5 -19t107 -60
t77.5 -109t29 -159zM224 335q0 -44 12 -77.5t33 -54.5t47 -30.5t50 -9.5q25 0 51 9.5t46.5 30.5t32.5 54.5t12 77.5q0 34 -8 66t-29 59t-50.5 37.5t-54.5 10.5q-24 0 -50.5 -9t-47 -30.5t-32.5 -55t-12 -78.5z" />
    <glyph glyph-name="R" unicode="R" horiz-adv-x="667" 
d="M149 673h202q57 0 104.5 -14.5t81.5 -42.5t52.5 -69.5t18.5 -92.5q0 -50 -18.5 -87t-49.5 -60.5t-67 -33.5q30 -51 77.5 -101t92.5 -70q-2 -28 -18.5 -56.5t-41 -40.5t-50.5 -12q-17 0 -38 5.5t-47 24t-50 51.5t-41 65.5t-32 64.5t-20 42h-55v-167q0 -42 -20 -60.5
t-65 -18.5h-14q-35 0 -53 6.5t-25.5 21.5t-7.5 49v515q0 43 20 62t64 19zM250 372h88q37 0 62.5 19t25.5 53q0 36 -24.5 54t-63.5 18h-88v-144z" />
    <glyph glyph-name="S" unicode="S" horiz-adv-x="596" 
d="M538 558q0 -26 -15 -49.5t-40 -35.5q-77 49 -169 49q-38 0 -59 -14.5t-21 -37.5q0 -15 14 -28t61 -24q90 -21 145 -47.5t83 -64t28 -99.5q0 -45 -20 -84.5t-57 -69t-90 -46t-115 -16.5q-64 0 -125 15t-94 44t-33 62q0 26 13 52t46 41q13 -14 50 -31t77 -25.5t70 -8.5
q37 0 60.5 15t23.5 39q0 21 -23.5 35t-78.5 25q-113 23 -170 73.5t-57 138.5q0 47 19 87t53.5 69t83 44.5t105.5 15.5q51 0 94.5 -8t75 -23.5t48.5 -39t17 -53.5z" />
    <glyph glyph-name="T" unicode="T" horiz-adv-x="620" 
d="M101 673h418q36 0 56.5 -21t20.5 -62t-21 -62.5t-56 -21.5h-116v-427q0 -41 -20 -60t-65 -19h-17q-45 0 -64.5 18.5t-19.5 60.5v427h-116q-35 0 -56 21.5t-21 62.5t20.5 62t56.5 21z" />
    <glyph glyph-name="U" unicode="U" horiz-adv-x="699" 
d="M140 673h14q46 0 66 -19.5t20 -62.5v-318q0 -62 28.5 -92t81.5 -30q31 0 57 12t39.5 42t13.5 68v318q0 43 20 62.5t65 19.5h14q87 0 87 -82v-277q0 -117 -34 -185.5t-99.5 -101.5t-162.5 -33t-162.5 33t-99.5 101.5t-34 185.5v277q0 82 86 82z" />
    <glyph glyph-name="V" unicode="V" horiz-adv-x="694" 
d="M111 673h40q44 0 65.5 -18t29.5 -58q4 -17 15 -74t20.5 -100.5t19.5 -81.5t21 -75.5t25 -77.5q14 41 28.5 93t28 111.5t27.5 130t15 74.5q8 39 31 57.5t64 18.5h40q39 0 62.5 -14t23.5 -43q0 -21 -11 -57q-12 -37 -44 -150t-57 -180t-48 -115q-18 -37 -40.5 -64
t-50.5 -39.5t-57 -12.5h-26q-30 0 -58 12.5t-50 39.5t-40 64q-94 195 -154 461q-5 25 -5 41q0 29 23.5 43t61.5 14z" />
    <glyph glyph-name="W" unicode="W" horiz-adv-x="888" 
d="M378 66q-14 -33 -40.5 -49.5t-58.5 -16.5h-11q-36 0 -62.5 8.5t-48 31.5t-35.5 66q-24 73 -52.5 203t-47.5 249q-3 19 -3 46q0 29 23 49t61 20h16q40 0 67 -19t32 -55q1 -4 2 -15.5t10.5 -95.5t21.5 -164t22 -135q40 186 68 331q18 94 96 94h12q78 0 96 -94
q28 -145 68 -331q4 23 16 94.5t26 193t14 122.5q5 36 32 55t67 19h16q38 0 61 -20t23 -49q0 -27 -3 -46q-15 -95 -43.5 -229.5t-56.5 -222.5q-8 -26 -24 -51.5t-44.5 -40t-77.5 -14.5h-11q-32 0 -58.5 16.5t-40.5 49.5q-11 25 -21 54.5t-18 64.5t-16 72.5t-11 49.5
q-29 -132 -39.5 -167.5t-26.5 -73.5z" />
    <glyph glyph-name="X" unicode="X" horiz-adv-x="665" 
d="M97 673h43q48 0 74.5 -15.5t50.5 -57.5q9 -16 37 -77t42 -84q48 77 77 160q10 28 23 45.5t27.5 23t28.5 5.5h61q68 0 68 -48q0 -28 -26.5 -85t-64 -111t-68.5 -88l160 -257q11 -18 11 -36q0 -21 -17.5 -34.5t-49.5 -13.5h-50q-29 0 -54 9.5t-49 45.5q-17 25 -51.5 90
t-47.5 86q-44 -59 -90 -163q-16 -37 -42 -52.5t-72 -15.5h-42q-14 0 -28.5 6.5t-20.5 17t-6 21.5q0 74 168 295l-151 249q-11 18 -11 35q0 21 19 35t51 14z" />
    <glyph glyph-name="Y" unicode="Y" horiz-adv-x="639" 
d="M100 673h39q30 0 51.5 -15t29.5 -42q53 -170 97 -253h4q15 25 34 68.5t58 174.5q11 38 33 52.5t60 14.5h42q64 0 64 -54q0 -20 -13 -56q-69 -184 -184 -347v-111q0 -52 -18 -78.5t-67 -26.5h-24q-40 0 -62 20t-22 85v114q-126 177 -188 357q-8 21 -8 43q0 25 20 39.5
t54 14.5z" />
    <glyph glyph-name="Z" unicode="Z" horiz-adv-x="678" 
d="M132 673h364q57 0 87 -27.5t30 -80.5q0 -14 -7.5 -35t-51.5 -79q-6 -7 -96.5 -112t-143.5 -161v-11h221q46 0 70 -19.5t24 -64.5q0 -20 -7 -40t-26 -31.5t-44 -11.5h-382q-63 0 -90 22t-27 70q0 22 12 47.5t48 67.5q97 116 248 286l1 12h-230q-36 0 -56.5 21t-20.5 63
q0 41 21 62.5t56 21.5z" />

    <glyph glyph-name="bracketleft" unicode="[" horiz-adv-x="373" 
d="M139 711h116q40 0 60 -20t20 -58q0 -81 -80 -81h-30v-624h30q41 0 60.5 -19t19.5 -59q0 -38 -20 -59.5t-60 -21.5h-116q-47 0 -67.5 20t-20.5 60v784q0 38 21 58t67 20z" />
    <glyph glyph-name="backslash" unicode="\" horiz-adv-x="440" 
d="M198 643l204 -571q16 -46 -1 -73t-69 -29q-65 -3 -90 66l-206 571q-7 20 -7 42.5t18 40t58 19.5q19 1 37.5 -3.5t32 -20t23.5 -42.5z" />
    <glyph glyph-name="bracketright" unicode="]" horiz-adv-x="373" 
d="M118 711h116q47 0 67.5 -20t20.5 -60v-784q0 -38 -21 -58t-67 -20h-116q-40 0 -60 20.5t-20 57.5q0 41 19.5 61t60.5 20h30v624h-30q-41 0 -60.5 19t-19.5 59q0 39 20 60t60 21z" />
    <glyph glyph-name="asciicircum" unicode="^" horiz-adv-x="453" 
d="M98 449h-11q-20 0 -38 6t-24.5 20t4.5 28q23 30 57.5 69t50.5 58q33 42 82 42h23q49 0 82 -42q16 -19 50.5 -58t57.5 -69q7 -9 6.5 -20t-15.5 -22.5t-49 -11.5h-11q-9 0 -20 2.5t-25 11t-28.5 23t-25 30t-20.5 31.5t-13 20q-1 -1 -2.5 -3.5t-16.5 -26t-31.5 -42.5
t-37 -32.5t-45.5 -13.5z" />
    <glyph glyph-name="underscore" unicode="_" horiz-adv-x="546" 
d="M97 -13h353q39 0 60 -20t21 -57t-21 -57.5t-60 -20.5h-353q-39 0 -60 20.5t-21 57.5t21 57t60 20z" />
    <glyph glyph-name="grave" unicode="`" horiz-adv-x="410" 
d="M275 551l-163 48q-19 7 -32 25.5t-13 63.5v4q0 23 9.5 35.5t25.5 12.5q15 0 41 -12l159 -81q39 -20 39 -59q0 -21 -12.5 -31t-29.5 -10q-13 0 -24 4z" />

    <glyph glyph-name="a" unicode="a" horiz-adv-x="543" 
d="M488 306v-122q0 -48 11.5 -76t29.5 -35q-3 -20 -16.5 -39.5t-36.5 -28.5t-46 -9q-72 0 -94 75l-2 1q-12 -28 -41.5 -48t-56 -24.5t-41.5 -4.5q-54 0 -93 21.5t-59.5 56t-20.5 81.5q0 48 24 84t69.5 58t106.5 22q7 0 24.5 -1t25 -2t59.5 -12v12q0 15 -9.5 30.5t-35 24
t-59.5 8.5q-78 0 -128 -36q-47 20 -47 76q0 47 55.5 78.5t149.5 31.5q78 0 128 -24t76.5 -72t26.5 -126zM181 170q0 -23 19.5 -37t48.5 -14q17 0 36.5 8.5t32.5 29t13 43.5v9q-30 15 -75 15q-31 0 -53 -14t-22 -40z" />
    <glyph glyph-name="b" unicode="b" horiz-adv-x="579" 
d="M125 714h5q44 0 64 -19t20 -61v-175q16 26 52 44.5t82 18.5q45 0 81.5 -14.5t62.5 -44.5t40 -76.5t14 -107.5q0 -67 -21.5 -122t-59 -92t-85.5 -56t-98 -19q-96 0 -165 38q-47 26 -61.5 54.5t-14.5 66.5v485q0 42 20 61t64 19zM214 281v-125q29 -17 67 -17q17 0 38.5 8.5
t37.5 36t16 75.5q0 33 -8 61t-28.5 42t-46.5 14q-33 0 -54.5 -25t-21.5 -70z" />
    <glyph glyph-name="c" unicode="c" horiz-adv-x="503" 
d="M476 406q0 -32 -25.5 -53.5t-65.5 -21.5q-12 18 -33.5 29.5t-52.5 11.5q-49 0 -77.5 -30t-28.5 -84q0 -26 9.5 -53t35.5 -44t61 -17q66 0 97 38q36 -1 60.5 -23t24.5 -52q0 -49 -53 -82.5t-134 -33.5q-52 0 -100.5 15.5t-87.5 48.5t-61.5 84.5t-22.5 118.5q0 68 22 120.5
t60 86.5t86 50.5t99 16.5q57 0 101.5 -17.5t65 -48t20.5 -60.5z" />
    <glyph glyph-name="d" unicode="d" horiz-adv-x="593" 
d="M462 720h4q44 0 64 -20t20 -60v-562q0 -42 -19.5 -60t-64.5 -18h-6q-40 0 -61 16.5t-21 41.5v18q-12 -23 -35 -43t-51 -28.5t-52 -8.5q-69 0 -115 31.5t-70.5 89.5t-24.5 144q0 51 10.5 99.5t36 85.5t66 58.5t97.5 21.5q43 0 81.5 -19t55.5 -46v179q0 42 20 61t65 19z
M209 260q0 -55 21.5 -84.5t63.5 -29.5q18 0 37 11t31.5 39.5t12.5 66.5v16q0 24 -8 48t-28 37.5t-44 13.5q-17 0 -37 -8t-34.5 -34.5t-14.5 -75.5z" />
    <glyph glyph-name="e" unicode="e" horiz-adv-x="516" 
d="M493 351q0 -28 -9.5 -55.5t-32.5 -49t-59 -34.5t-84 -13q-36 0 -71.5 6.5t-57.5 16.5q0 -41 40.5 -65t98.5 -24q77 0 120 41q19 -7 32.5 -28t13.5 -44q0 -20 -11.5 -39.5t-40 -36.5t-68.5 -25.5t-71 -8.5q-59 0 -108.5 16t-86 49t-56.5 83t-20 114q0 65 20 116.5
t55.5 86.5t83.5 53t103 18q36 0 73 -9.5t67 -31.5t49.5 -56.5t19.5 -79.5zM191 312q12 -9 43 -14.5t56 -5.5q29 0 45.5 13t16.5 36q0 22 -21.5 37t-54.5 15q-32 0 -57 -22.5t-28 -58.5z" />
    <glyph glyph-name="f" unicode="f" horiz-adv-x="434" 
d="M451 628q0 -25 -12.5 -48t-30.5 -30q-9 8 -27 13.5t-37 5.5q-30 0 -50 -18.5t-20 -54.5v-8h74q39 0 57 -18t18 -57q0 -30 -13 -48.5t-62 -18.5h-71v-268q0 -42 -19.5 -60.5t-64.5 -18.5h-4q-46 0 -65 18t-19 61v268h-29q-29 0 -46 18t-17 49q0 75 63 75h28v45
q0 60 23.5 101t68 64.5t108.5 23.5q62 0 104.5 -25t42.5 -69z" />
    <glyph glyph-name="g" unicode="g" horiz-adv-x="543" 
d="M529 511q0 -14 -7.5 -30.5t-24.5 -31t-36 -23.5q12 -12 19.5 -34t7.5 -50q0 -48 -19.5 -83.5t-48 -54.5t-66.5 -31t-92 -12l-13 1q-17 0 -32.5 -5.5t-15.5 -13.5q0 -7 9.5 -12.5t24.5 -5.5h83q76 0 121 -15.5t67 -46.5t22 -79q0 -30 -13.5 -62.5t-46 -60t-84.5 -46
t-120 -18.5h-19q-59 0 -115 14t-86.5 43.5t-30.5 65.5q0 43 32 62t96 19l-1 -12q0 -66 121 -66h3q57 0 85.5 9.5t28.5 30.5q0 34 -68 34q-105 0 -160.5 9t-84 31.5t-28.5 62.5q0 65 90 90q-45 21 -68.5 61.5t-23.5 92.5q0 32 12.5 65t41 59.5t73.5 43t102 16.5q65 0 123 -35
q14 16 25 46t14 54q48 0 75.5 -22t27.5 -60zM193 339q0 -35 20 -53.5t49 -18.5t49 18.5t20 53.5q0 36 -20 54t-49 18t-49 -18t-20 -54z" />
    <glyph glyph-name="h" unicode="h" horiz-adv-x="565" 
d="M126 714h2q46 0 66 -19t20 -61v-220q15 46 52.5 80t98.5 34q51 0 87.5 -23.5t56 -66t19.5 -106.5v-252q0 -42 -19.5 -61t-65.5 -19h-8q-81 0 -81 80v203q0 77 -65 77q-34 0 -54.5 -32t-20.5 -84v-165q0 -42 -19.5 -60.5t-64.5 -18.5h-4q-46 0 -65.5 18.5t-19.5 60.5v555
q0 42 20.5 61t64.5 19z" />
    <glyph glyph-name="i" unicode="i" horiz-adv-x="275" 
d="M230 665q0 -42 -26 -64.5t-67 -22.5t-67 22.5t-26 64.5q0 20 9 41.5t32 34t52 12.5t52 -12.5t32 -34t9 -41.5zM135 522h2q46 0 66 -19t20 -61v-363q0 -41 -20 -60t-64 -19h-4q-45 0 -64.5 18.5t-19.5 60.5v363q0 42 20 61t64 19z" />
    <glyph glyph-name="j" unicode="j" horiz-adv-x="288" 
d="M245 672q0 -20 -9.5 -42.5t-33 -37t-51.5 -14.5q-40 0 -67.5 26t-27.5 68t27.5 68t67.5 26q28 0 51.5 -14.5t33 -37t9.5 -42.5zM144 522h10q83 0 83 -81v-408q0 -120 -41 -180.5t-130 -60.5q-34 0 -68 10t-53 37.5t-19 63.5q0 11 4 26.5t10 22.5q27 -9 49 -9q75 0 75 89
v392q0 52 18.5 75t61.5 23z" />
    <glyph glyph-name="k" unicode="k" horiz-adv-x="541" 
d="M214 619v-293q35 38 71 90.5t43 62t20 20.5t29.5 17t40.5 6h43q26 0 43 -11.5t17 -29.5q0 -28 -48 -84t-115 -110q60 -60 114 -134t54 -108q0 -20 -16.5 -32.5t-43.5 -12.5h-33q-30 0 -57.5 9t-47.5 42q-8 13 -31.5 54.5t-43 71t-39.5 48.5v-120q0 -38 -8.5 -60.5
t-26.5 -33.5t-49 -11h-4q-28 0 -47.5 7t-28 27t-8.5 59v526q0 51 18 73t66 22q52 0 70 -22t18 -73z" />
    <glyph glyph-name="l" unicode="l" horiz-adv-x="263" 
d="M130 714h2q46 0 66 -19t20 -61v-555q0 -41 -20 -60t-64 -19h-4q-46 0 -65.5 18.5t-19.5 60.5v555q0 42 20 61t65 19z" />
    <glyph glyph-name="m" unicode="m" horiz-adv-x="848" 
d="M214 423q11 28 37 55t55.5 38.5t53.5 11.5q102 0 134 -106q15 37 40 62.5t54.5 34.5t54.5 9q53 0 91 -24t58.5 -67.5t20.5 -107.5v-237q0 -50 -17.5 -71t-65.5 -21h-9q-45 0 -62.5 20.5t-17.5 71.5v201q0 32 -13.5 52.5t-41.5 20.5q-20 0 -35.5 -11t-22.5 -36t-7 -61
v-167q0 -49 -18.5 -70t-64.5 -21h-10q-46 0 -64 20.5t-18 71.5v201q0 34 -15.5 53.5t-47.5 19.5q-31 0 -46 -16.5t-18.5 -42t-3.5 -49.5v-155q0 -36 -10 -60t-29.5 -33.5t-44.5 -9.5h-9q-49 0 -65 20.5t-16 72.5v348q0 44 19 62.5t63 18.5q52 0 71.5 -20.5t19.5 -78.5z" />
    <glyph glyph-name="n" unicode="n" horiz-adv-x="563" 
d="M126 522h2q46 0 66 -19t20 -61v-24q11 31 32 56t50 40t69 15q33 0 62 -11t52 -34.5t36 -62t13 -89.5v-252q0 -42 -19.5 -61t-65.5 -19h-8q-81 0 -81 80v209q0 75 -65 75q-16 0 -33.5 -10t-29.5 -37.5t-12 -65.5v-172q0 -42 -19.5 -60.5t-64.5 -18.5h-4q-46 0 -65.5 18.5
t-19.5 60.5v363q0 42 20.5 61t64.5 19z" />
    <glyph glyph-name="o" unicode="o" horiz-adv-x="569" 
d="M547 259q0 -50 -15.5 -98.5t-50.5 -85.5t-85.5 -59t-110.5 -22q-47 0 -93.5 15.5t-85 48t-61.5 84t-23 117.5q0 50 15.5 99t50.5 87t86 61t111 23t110.5 -23t85.5 -61t50.5 -87t15.5 -99zM194 262q0 -59 25 -88.5t65 -29.5q41 0 65.5 29.5t24.5 88.5q0 58 -25 87.5
t-65 29.5t-65 -29.5t-25 -87.5z" />
    <glyph glyph-name="p" unicode="p" horiz-adv-x="593" 
d="M125 522h6q39 0 60.5 -17t21.5 -42v-15q11 23 34.5 42.5t51.5 28t51 8.5q70 0 116.5 -32.5t70.5 -90.5t24 -145q0 -85 -24.5 -142t-71.5 -88.5t-116 -31.5q-40 0 -79 17.5t-57 42.5v-173q0 -43 -19.5 -62t-64.5 -19h-4q-44 0 -64 20t-20 61v559q0 42 19.5 60.5t64.5 18.5
zM215 250q0 -40 6 -63.5t25.5 -33.5t47.5 -10q27 0 47 13t30.5 38t10.5 66q0 33 -8.5 60.5t-30 41.5t-47.5 14q-28 0 -47.5 -19.5t-26.5 -49.5t-7 -57z" />
    <glyph glyph-name="q" unicode="q" horiz-adv-x="593" 
d="M476 500q47 -21 61 -49.5t14 -65.5v-503q0 -42 -19.5 -61.5t-64.5 -19.5h-4q-45 0 -65 19.5t-20 61.5v181q-15 -27 -51.5 -45t-82.5 -18q-67 0 -110.5 31t-65 83.5t-21.5 128.5q0 53 12.5 99t35 79.5t52.5 56.5t71.5 38t92.5 15q39 0 78.5 -5.5t86.5 -25.5zM219 260
q0 -40 10.5 -65t30 -37.5t45.5 -12.5q36 0 54.5 26t18.5 69v126q-8 5 -27 11t-39 6q-27 0 -48.5 -14.5t-33 -41t-11.5 -67.5z" />
    <glyph glyph-name="r" unicode="r" horiz-adv-x="433" 
d="M211 428q29 60 58 79t61 19q28 0 50 -11t31 -31t9 -41q0 -58 -28 -96q-36 15 -76 15q-102 0 -102 -151v-111q0 -50 -18.5 -75t-65.5 -25h-5q-50 0 -67 20t-17 70v340q0 48 19 70t65 22q45 0 65.5 -23t20.5 -71z" />
    <glyph glyph-name="s" unicode="s" horiz-adv-x="476" 
d="M439 425q0 -22 -11.5 -40t-33.5 -28q-14 11 -42.5 20t-59.5 9q-49 0 -65 -9.5t-16 -25.5q0 -6 5.5 -11.5t20 -11t47 -13.5t37.5 -9q75 -19 105.5 -54.5t30.5 -94.5q0 -48 -27.5 -84t-79 -58t-120.5 -22q-95 0 -152.5 25.5t-57.5 70.5q0 31 12 50.5t31 25.5
q16 -15 54 -28.5t81 -13.5q84 0 84 39q0 8 -11 15.5t-54.5 18t-59.5 14.5q-65 17 -93 52.5t-28 97.5q0 47 29 87.5t82.5 60.5t109.5 20q84 0 133 -28t49 -75z" />
    <glyph glyph-name="t" unicode="t" horiz-adv-x="443" 
d="M182 625h11q81 0 81 -82v-49h63q41 0 62 -19.5t21 -51.5q0 -41 -22 -56t-72 -15h-52v-136q0 -42 16 -57.5t47 -15.5q6 0 27 3.5t38 12.5q18 -24 18 -71q0 -22 -13.5 -43.5t-51 -35t-86.5 -13.5q-79 0 -123 46.5t-44 139.5v170h-26q-19 0 -35.5 9.5t-23.5 26.5t-7 35
q0 71 73 71h19v39q0 45 18.5 68.5t61.5 23.5z" />
    <glyph glyph-name="u" unicode="u" 
d="M122 522h8q24 0 43 -9.5t28.5 -34t9.5 -62.5v-164q0 -48 16 -76t50 -28q41 0 57.5 37t16.5 104v127q0 52 18 79t67 27h4q50 0 67 -21t17 -72v-335q0 -52 -17.5 -73t-67.5 -21q-49 0 -68.5 20.5t-19.5 66.5v11q-15 -44 -56.5 -73.5t-108.5 -29.5q-30 0 -57 11.5t-48 35
t-32.5 61.5t-11.5 87v239q0 49 19 71t66 22z" />
    <glyph glyph-name="v" unicode="v" horiz-adv-x="558" 
d="M86 522h34q29 0 51 -14t28 -42q35 -163 50.5 -212t29.5 -86q15 38 33.5 94t45.5 204q5 28 26.5 42t51.5 14h35q31 0 51.5 -12t20.5 -36q0 -6 -6 -36q-35 -165 -125 -354q-12 -26 -33 -46.5t-46 -29t-47 -8.5h-15q-47 0 -76.5 22t-49.5 62q-86 173 -127 366q-4 16 -4 24
q0 25 20.5 36.5t51.5 11.5z" />
    <glyph glyph-name="w" unicode="w" horiz-adv-x="726" 
d="M81 522h29q35 0 53.5 -18.5t26.5 -52.5q3 -19 10.5 -76.5t14.5 -99.5t13 -77h4q10 41 24.5 115t21.5 106q14 60 79 60h8q32 0 52.5 -15.5t27.5 -44.5l51 -221h4q13 76 24 160t12 93q8 34 26.5 52.5t53.5 18.5h28q29 0 47.5 -13.5t18.5 -37.5l-2 -36q0 -1 -0.5 -5
t-10 -67.5t-26 -139t-35.5 -128.5q-35 -95 -118 -95h-17q-30 0 -54 15t-44 62q-29 67 -42 123q-14 -69 -39 -123q-21 -47 -45 -62t-52 -15h-17q-30 0 -56 11.5t-40 35.5q-12 20 -24.5 52t-24 77t-19.5 86t-12.5 70t-7 48.5t-4.5 36.5t-2 18l-3 26q0 28 16.5 44.5t49.5 16.5z
" />
    <glyph glyph-name="x" unicode="x" horiz-adv-x="550" 
d="M75 522h71q72 0 93 -51l49 -132q32 54 62 135q11 32 28.5 40t40.5 8h53q59 0 59 -42q0 -17 -7 -37q-9 -23 -45.5 -81t-77.5 -109q17 -31 56.5 -84t55.5 -82q19 -33 19 -46q0 -17 -12 -29t-37 -12h-71q-38 0 -63.5 16t-37.5 41q-8 17 -14.5 34.5t-27.5 88.5
q-15 -28 -38 -76.5t-26 -54.5q-26 -49 -79 -49h-46q-60 0 -60 42q0 14 12 42q31 79 115 176q-16 28 -57.5 90t-59.5 94q-13 23 -13 42q0 16 15.5 26t42.5 10z" />
    <glyph glyph-name="y" unicode="y" horiz-adv-x="563" 
d="M87 522h33q64 0 78 -56l3 -12q2 -7 28.5 -118t51.5 -187q53 170 81 317q11 56 78 56h32q31 0 51.5 -12t20.5 -36q0 -7 -4 -21t-4 -16q-66 -280 -190 -555q-22 -48 -43.5 -65.5t-45.5 -17.5h-46q-29 0 -46 15t-17 40q0 13 9 35.5t33 65t29 53.5h-1q-44 12 -77 74
q-22 41 -50 111t-72 257q-4 16 -4 24q0 25 20.5 36.5t51.5 11.5z" />
    <glyph glyph-name="z" unicode="z" horiz-adv-x="496" 
d="M98 518h256q61 0 87.5 -23t26.5 -72q0 -50 -44 -91q-26 -24 -187 -172v-2l151 -1q45 0 68 -16.5t23 -60.5q0 -46 -20 -63t-63 -17h-278q-50 0 -72.5 21.5t-22.5 66.5q0 17 8.5 36.5t21.5 34.5q32 38 103 105t91 88v7h-149q-35 0 -51.5 20t-16.5 67q0 30 18 51t50 21z" />
    <glyph glyph-name="braceleft" unicode="{" horiz-adv-x="465" 
d="M46 227v24q0 32 17.5 51t54.5 19q38 0 38 78v171q0 77 42.5 109.5t135.5 32.5h13q76 0 76 -74q0 -24 -9 -38t-34.5 -19t-32 -8t-10.5 -8t-6.5 -12.5t-2.5 -17.5v-178q0 -38 -17 -66t-72 -52q54 -23 71.5 -52.5t17.5 -68.5v-173q0 -38 14 -38q27 0 46.5 -7.5t27 -23.5
t7.5 -34q0 -39 -19.5 -56t-56.5 -17h-13q-94 0 -136 34t-42 115v177q0 63 -38 63q-37 0 -54.5 19t-17.5 50z" />
    <glyph glyph-name="bar" unicode="|" horiz-adv-x="278" 
d="M137 716h2q44 0 61.5 -21.5t17.5 -65.5v-670q0 -32 -9 -52t-28 -27t-40 -7h-4q-44 0 -60.5 21t-16.5 65v670q0 44 17 65.5t60 21.5z" />
    <glyph glyph-name="braceright" unicode="}" horiz-adv-x="465" 
d="M423 251v-24q0 -31 -17.5 -50t-54.5 -19q-38 0 -38 -63v-177q0 -81 -42 -115t-136 -34h-13q-37 0 -56.5 17t-19.5 56q0 18 7.5 34t27 23.5t46.5 7.5q14 0 14 38v173q0 39 17.5 68.5t71.5 52.5q-55 24 -72 52t-17 66v178q0 17 -7 28t-29 15.5t-30 7t-13.5 7.5t-10.5 15
t-5 30q0 74 76 74h13q93 0 135.5 -32.5t42.5 -109.5v-171q0 -78 38 -78q37 0 54.5 -19t17.5 -51z" />
    <glyph glyph-name="asciitilde" unicode="~" horiz-adv-x="509" 
d="M270 465q52 -19 99 -19q23 0 46 18q7 5 19 1.5t24 -20.5t12 -36q0 -41 -22 -65q-32 -36 -89 -36q-45 0 -119 27q-54 19 -98 19q-22 0 -47 -17q-7 -5 -19 -2t-24 19.5t-12 36.5q0 41 22 66q30 35 89 35q46 0 119 -27z" />
    <glyph glyph-name="exclamdown" unicode="&#xa1;" horiz-adv-x="302" 
d="M46 583q0 51 30.5 75.5t74.5 24.5q42 0 73 -24.5t31 -75.5q0 -38 -18.5 -61.5t-43 -31t-42.5 -7.5q-32 0 -55.5 12t-36.5 34t-13 54zM143 431h14q29 0 43.5 -19.5t19.5 -65.5l26 -252l1 -18q0 -41 -21 -59.5t-66 -18.5h-20q-47 0 -67 18.5t-20 60.5l1 17q6 47 14.5 136.5
t11.5 115.5q9 85 63 85z" />
    <glyph glyph-name="cent" unicode="&#xa2;" horiz-adv-x="523" 
d="M122 -27l18 57q-33 19 -58.5 48.5t-42.5 73.5t-17 106q0 67 21.5 119t58 86t83.5 51t98 18l15 48q10 33 31.5 43.5t58.5 0.5q36 -9 46.5 -29t-0.5 -55l-14 -41q27 -17 41.5 -42t14.5 -51q0 -32 -25.5 -53.5t-65.5 -21.5q-12 18 -33.5 29.5t-52.5 11.5q-49 0 -77.5 -30
t-28.5 -84q0 -26 9.5 -53t35.5 -44t61 -17q66 0 97 38q36 -1 60.5 -23t24.5 -52q0 -49 -53 -82.5t-134 -33.5l-20 1l-16 -59q-9 -30 -32.5 -40t-59.5 0t-45.5 29t1.5 51z" />
    <glyph glyph-name="sterling" unicode="&#xa3;" horiz-adv-x="628" 
d="M509 0h-380q-30 1 -46.5 7t-26.5 23t-10 49q0 27 8 48t23 31.5t28 10.5q35 0 35 41v75h-49q-21 0 -34 12t-13 34q0 46 44 46h51v59q0 112 65.5 175t183.5 63q35 0 71.5 -8t64.5 -23.5t44.5 -39t16.5 -53.5q0 -29 -16.5 -53.5t-42.5 -34.5q-4 10 -18 20.5t-40 17t-52 6.5
q-43 0 -68 -19.5t-25 -59.5v-50l111 1q23 0 36.5 -12t13.5 -35q0 -24 -15.5 -35.5t-42.5 -11.5h-103v-58q0 -36 -16 -57h202q80 0 80 -85q0 -84 -80 -84z" />
    <glyph glyph-name="currency" unicode="&#xa4;" horiz-adv-x="618" 
d="M514 237q41 -38 54.5 -56.5t13.5 -31.5q0 -10 -10 -26t-31.5 -31.5t-38.5 -15.5q-28 0 -58 32l-29 29q-50 -22 -100 -22q-51 0 -100 22q-7 -7 -26.5 -25t-33 -27t-28.5 -9q-11 0 -28.5 9.5t-34 29t-16.5 34.5q0 9 7.5 23t32.5 38.5t27 26.5q-22 44 -22 98t22 98
q-45 45 -51 52t-10 15t-5 13t-1 7q0 10 10 26.5t31 31.5t38 15q10 0 23 -6t36 -27t29 -27q49 22 100 22q50 0 100 -22l29 29q31 31 58 31q11 0 29 -9t34.5 -29t16.5 -35q0 -12 -13.5 -31t-54.5 -56q22 -44 22 -98t-22 -98zM315 221q42 0 73 29.5t31 84.5t-31 84.5t-73 29.5
t-73 -29.5t-31 -84.5t31 -84.5t73 -29.5z" />
    <glyph glyph-name="yen" unicode="&#xa5;" horiz-adv-x="650" 
d="M107 222h118l-28 40h-88q-21 0 -31 8.5t-10 30.5q0 38 39 38h42q-68 113 -110 237q-8 21 -8 43q0 25 20 39.5t54 14.5h39q30 0 51.5 -15t29.5 -42q53 -170 97 -253h4q15 25 34 68.5t58 174.5q11 38 33 52.5t60 14.5h42q64 0 64 -54q0 -20 -13 -56q-48 -126 -105 -224h42
q41 0 41 -39q-1 -36 -41 -38h-90l-27 -40h117q21 0 31 -9t10 -30q-1 -36 -41 -38h-121v-40q0 -52 -18 -78.5t-67 -26.5h-24q-40 0 -62 20t-22 85v40h-118q-21 0 -31 9t-10 31q0 36 39 37z" />
    <glyph glyph-name="brokenbar" unicode="&#xa6;" horiz-adv-x="250" 
d="M123 713h2q44 0 61.5 -21.5t17.5 -65.5v-167q0 -32 -9 -52t-28 -27t-40 -7h-4q-44 0 -60.5 21t-16.5 65v167q0 44 17 65.5t60 21.5zM123 306h2q44 0 61.5 -21.5t17.5 -65.5v-167q0 -32 -9 -52t-28 -27t-40 -7h-4q-44 0 -60.5 21t-16.5 65v167q0 44 17 65.5t60 21.5z" />
    <glyph glyph-name="section" unicode="&#xa7;" horiz-adv-x="583" 
d="M264 -250q-51 0 -107.5 11.5t-96 41.5t-39.5 69q0 36 17 60t44 34q12 -21 71 -43.5t117 -22.5q25 0 44.5 12t19.5 30q0 16 -18 27t-64 22q-80 17 -127 43.5t-71 66t-24 96.5q0 44 20 83t55 64q-37 42 -37 102q0 55 26.5 99.5t70.5 69t82 30.5t63 6q75 0 124.5 -16.5
t74.5 -45t25 -67.5q0 -28 -15 -52t-41 -31q-33 26 -74.5 39t-83.5 13q-30 0 -46.5 -12.5t-16.5 -29.5q0 -11 14.5 -22t73 -31t79.5 -28q70 -26 102 -65t32 -101q0 -44 -20 -81t-56 -62q45 -47 45 -107q0 -42 -19 -79.5t-54.5 -65t-84 -42.5t-105.5 -15zM278 250
q-73 -2 -73 -45q0 -18 17 -32.5t41 -22t43 -9.5q30 1 52 12t22 33q0 12 -10 25.5t-35 24t-57 14.5z" />
    <glyph glyph-name="dieresis" unicode="&#xa8;" horiz-adv-x="434" 
d="M182 618q0 -18 -7.5 -34.5t-25.5 -25.5t-39 -9q-30 0 -52 17t-22 52q0 17 8 34t26.5 26t39.5 9t39 -9t25.5 -26t7.5 -34zM397 618q0 -18 -7.5 -34.5t-25.5 -25.5t-39 -9q-30 0 -51.5 17t-21.5 52q0 17 7.5 34t26 26t39.5 9t39 -9t25.5 -26t7.5 -34z" />
    <glyph glyph-name="copyright" unicode="&#xa9;" horiz-adv-x="800" 
d="M756 343q0 -75 -27.5 -141t-77 -114t-114.5 -74.5t-137 -26.5t-137.5 26.5t-114.5 74.5t-76.5 114t-27.5 141t27.5 141.5t76.5 114.5t114.5 74.5t137.5 26.5t137 -26.5t114.5 -74.5t77 -114.5t27.5 -141.5zM124 343q0 -28 7 -64t26 -71.5t52.5 -67.5t84 -52.5
t106.5 -20.5t106.5 20.5t88.5 57.5t59.5 88t21.5 110t-21.5 110.5t-59.5 89t-88.5 58t-106.5 20.5t-106.5 -20.5t-88.5 -58t-59.5 -89t-21.5 -110.5zM561 452q0 -26 -20.5 -43t-54.5 -17q-6 18 -24 30.5t-46 12.5q-41 0 -64.5 -24.5t-23.5 -69.5q0 -44 24 -68.5t63 -24.5
q30 0 51 11.5t28 29.5q29 -2 50 -19t21 -42q0 -32 -26.5 -56t-62 -33.5t-65.5 -9.5q-41 0 -80 12.5t-70 38.5t-49 67t-18 94q0 68 26.5 116t75 75t112.5 27q36 0 71.5 -11t58.5 -38.5t23 -57.5z" />
    <glyph glyph-name="guillemotleft" unicode="&#xab;" horiz-adv-x="662" 
d="M82 329q81 86 107 111.5t42 36t24 10.5q12 0 30.5 -8t34.5 -29t16 -46q0 -27 -61.5 -89.5t-62.5 -63.5q8 -9 47 -49.5t58 -66t19 -38.5q0 -21 -16 -42.5t-34.5 -31t-30.5 -9.5q-1 0 -5 0.5t-16 6.5t-36 27.5t-48 47t-51 56t-35 39.5q-26 29 -26 60q0 16 5.5 30.5
t38.5 47.5zM375 329q81 86 107 111.5t42 36t24 10.5q12 0 30.5 -8t34.5 -29t16 -46q0 -27 -61.5 -89.5t-62.5 -63.5q8 -9 47 -49.5t58 -66t19 -38.5q0 -21 -16 -42.5t-34.5 -31t-30.5 -9.5q-1 0 -5 0.5t-16 6.5t-36 27.5t-48 47t-51 56t-35 39.5q-26 29 -26 60
q0 16 5.5 30.5t38.5 47.5z" />
    <glyph glyph-name="registered" unicode="&#xae;" horiz-adv-x="800" 
d="M399 699q72 0 137.5 -26.5t114.5 -74.5t77 -114.5t28 -141.5t-28 -140.5t-77 -113.5t-114.5 -74t-137.5 -26t-137 26t-114.5 74t-77 113.5t-27.5 140.5t27.5 141.5t77 114.5t114.5 74.5t137 26.5zM399 66q41 0 87.5 13.5t93.5 51.5t71.5 95.5t24.5 115.5
q0 59 -21.5 110.5t-60 89t-89 58t-106.5 20.5t-106.5 -20.5t-88.5 -58t-59.5 -89t-21.5 -110.5q0 -58 21.5 -109.5t59.5 -88.5t88.5 -57.5t106.5 -20.5zM292 547h131q71 0 112 -37t41 -98q0 -43 -19.5 -69t-48.5 -36q10 -30 38 -61.5t51 -40.5q-3 -25 -24.5 -45.5
t-53.5 -20.5q-22 0 -38 8t-27.5 20t-20.5 27t-16 30t-16 35.5t-11 25.5h-35v-94q0 -25 -13 -36.5t-41 -11.5h-8q-28 0 -41 11.5t-13 36.5v305q0 27 12.5 39t40.5 12zM355 448v-84h53q52 0 52 43q0 41 -52 41h-53z" />
    <glyph glyph-name="macron" unicode="&#xaf;" horiz-adv-x="491" 
d="M116 662h259q61 0 61 -57t-61 -57h-259q-30 0 -45 13.5t-15 43.5t15 43.5t45 13.5z" />
    <glyph glyph-name="degree" unicode="&#xb0;" horiz-adv-x="280" 
d="M246 636q0 -48 -30.5 -76t-77.5 -28t-77 28t-30 76q0 35 17.5 61t43 35.5t46.5 9.5q22 0 47.5 -9.5t43 -35.5t17.5 -61zM94 636q0 -19 12.5 -31.5t31.5 -12.5t32 12.5t13 31.5q0 20 -12.5 32.5t-32.5 12.5q-19 0 -31.5 -12.5t-12.5 -32.5z" />
    <glyph glyph-name="plusminus" unicode="&#xb1;" horiz-adv-x="585" 
d="M291 619h1q31 0 48.5 -11t24.5 -33.5t7 -63.5v-31h71q82 0 82 -77t-82 -77h-71v-37q0 -40 -7 -62.5t-23.5 -33.5t-46.5 -11h-3q-32 0 -49 11t-23.5 33t-6.5 63v37h-71q-82 0 -82 77t82 77h71v31q0 66 20 87t58 21zM137 154h303q43 0 64 -18.5t21 -60.5q0 -40 -21 -57.5
t-64 -17.5h-303q-41 0 -59 18t-18 61q0 75 77 75z" />
    <glyph glyph-name="uni00B2" unicode="&#xb2;" horiz-adv-x="357" 
d="M304 567q0 -30 -19 -63.5t-97 -97.5h79q50 0 50 -48q0 -50 -50 -50h-163q-31 0 -47.5 15t-16.5 42q0 31 41 63q52 41 75.5 66.5t23.5 41.5q0 11 -9.5 20t-32.5 9q-19 0 -37 -6t-27 -16q-33 9 -33 47q0 16 12 35.5t44.5 33.5t73.5 14q59 0 96 -28.5t37 -77.5z" />
    <glyph glyph-name="uni00B3" unicode="&#xb3;" horiz-adv-x="358" 
d="M305 574q0 -51 -61 -80q41 -14 57 -34t16 -48q0 -47 -41 -78.5t-104 -31.5q-28 0 -59 6t-52 22t-21 38q0 40 40 53q7 -8 32 -15.5t51 -7.5q19 0 31 7.5t12 20.5q0 12 -12 17.5t-27 5.5h-24q-34 0 -34 35q0 37 34 37h22q16 0 25.5 6.5t9.5 17.5q0 9 -10.5 17t-29.5 8
q-21 0 -38 -7t-27 -18q-18 4 -29 17.5t-11 33.5q0 17 14.5 35.5t41 30t66.5 11.5q59 0 93.5 -28.5t34.5 -70.5z" />
    <glyph glyph-name="acute" unicode="&#xb4;" horiz-adv-x="410" 
d="M143 555q-21 -6 -42 -6q-13 0 -23.5 9.5t-10.5 27.5v9q0 16 7.5 27.5t26.5 21.5l158 81q28 13 47 13q35 0 35 -50q0 -73 -35 -84z" />
    <glyph glyph-name="uni00B5" unicode="&#xb5;" 
d="M37 -124v553q0 49 19 71t66 22h7q44 0 62.5 -27.5t18.5 -78.5v-164q0 -35 9 -60t25 -34.5t33 -9.5q35 0 54.5 28.5t19.5 75.5v166q0 51 18.5 77.5t66.5 26.5h4q49 0 66.5 -21t17.5 -71v-337q0 -51 -18 -72t-67 -21t-68.5 20.5t-19.5 66.5v11q-7 -22 -24 -46t-41.5 -37
t-51.5 -13q-9 0 -25 4l2 -123q0 -86 -85 -86h-4q-45 0 -65 19t-20 60z" />
    <glyph glyph-name="paragraph" unicode="&#xb6;" horiz-adv-x="538" 
d="M490 601v-504q0 -41 -8.5 -62t-28.5 -28t-47 -7h-16q-48 0 -66 21.5t-18 72.5v152h-13q-120 0 -186.5 61t-66.5 166q0 52 16.5 94t49 72t80 45.5t107.5 15.5h113q33 0 51 -9.5t25.5 -30t7.5 -59.5z" />
    <glyph glyph-name="periodcentered" unicode="&#xb7;" horiz-adv-x="319" 
d="M265 300q0 -33 -13 -54t-37 -33t-55 -12t-55.5 12t-37.5 33t-13 54q0 26 11 49.5t37.5 36.5t57.5 13t55 -12t37 -33t13 -54z" />
    <glyph glyph-name="cedilla" unicode="&#xb8;" horiz-adv-x="370" 
d="M159 14h76l-13 -37h8q31 0 49.5 -20t18.5 -50q0 -48 -37.5 -74.5t-91.5 -26.5q-22 0 -48.5 7t-44.5 26t-18 45q0 23 14 36.5t28 13.5q6 -12 22 -18.5t37 -6.5q17 0 29.5 6t12.5 16q0 8 -8 13.5t-26 5.5h-9q-8 0 -12.5 3.5t-4.5 8.5q0 6 18 52z" />
    <glyph glyph-name="uni00B9" unicode="&#xb9;" horiz-adv-x="270" 
d="M97 671h67q28 0 44 -14t16 -40v-247q0 -67 -63 -67q-31 0 -44 17.5t-13 49.5v192h-7q-31 0 -43.5 12.5t-12.5 42.5q0 54 56 54z" />
    <glyph glyph-name="guillemotright" unicode="&#xbb;" horiz-adv-x="661" 
d="M310 191q-90 -100 -112 -122t-40.5 -36t-27 -16.5t-11.5 -2.5q-12 0 -30.5 9.5t-34.5 31t-16 42.5q0 13 19 38.5t58 66t47 49.5q-1 1 -62.5 63.5t-61.5 89.5q0 16 9.5 35.5t31 33.5t40.5 14q8 0 24 -10.5t42 -36t107 -111.5q21 -21 32.5 -36.5t11.5 -41.5q0 -31 -26 -60z
M603 191q-90 -100 -112 -122t-40.5 -36t-27 -16.5t-11.5 -2.5q-12 0 -30.5 9.5t-34.5 31t-16 42.5q0 13 19 38.5t58 66t47 49.5q-1 1 -62.5 63.5t-61.5 89.5q0 16 9.5 35.5t31 33.5t40.5 14q8 0 24 -10.5t42 -36t107 -111.5q21 -21 32.5 -36.5t11.5 -41.5q0 -31 -26 -60z
" />
    <glyph glyph-name="questiondown" unicode="&#xbf;" horiz-adv-x="546" 
d="M189 586q0 51 30.5 75.5t74.5 24.5q43 0 74 -24.5t31 -75.5q0 -50 -31 -74.5t-74 -24.5t-74 24.5t-31 74.5zM307 433h2q33 0 53.5 -16t20.5 -43v-3t-1 -9.5t-7 -18t-14 -19.5t-16.5 -16.5t-17 -14t-18 -13.5t-11.5 -9q-38 -28 -52.5 -42.5t-14.5 -30.5q0 -20 23.5 -32
t61.5 -12q43 0 78 14.5t53 36.5q25 -9 42.5 -30.5t17.5 -52.5q0 -24 -14 -48t-47.5 -45t-80 -31t-81.5 -10q-69 0 -128 23t-88.5 67t-29.5 94q0 30 13 60.5t38 58t56 52.5t32 26q30 25 66.5 44.5t63.5 19.5z" />
    <glyph glyph-name="Agrave" unicode="&#xc0;" horiz-adv-x="692" 
d="M416 725l-163 48q-19 7 -32 25.5t-13 63.5v4q0 23 9.5 35.5t25.5 12.5q15 0 41 -12l159 -81q39 -20 39 -59q0 -21 -12.5 -31t-29.5 -10q-13 0 -24 4zM335 674h22q28 0 58.5 -10t55 -36t36.5 -61q94 -277 139 -454q9 -39 9 -50q0 -63 -84 -63h-26q-39 0 -60.5 16t-31 44.5
t-23.5 98.5h-168q-15 -74 -26 -102.5t-31.5 -42.5t-57.5 -14h-26q-84 0 -84 57q0 22 9 56q58 229 139 454q20 55 60 81t90 26zM284 297h124q-26 124 -62 211q-31 -67 -62 -211z" />
    <glyph glyph-name="Aacute" unicode="&#xc1;" horiz-adv-x="692" 
d="M284 729q-21 -6 -42 -6q-13 0 -23.5 9.5t-10.5 27.5v9q0 16 7.5 27.5t26.5 21.5l158 81q28 13 47 13q35 0 35 -50q0 -73 -35 -84zM335 674h22q28 0 58.5 -10t55 -36t36.5 -61q94 -277 139 -454q9 -39 9 -50q0 -63 -84 -63h-26q-39 0 -60.5 16t-31 44.5t-23.5 98.5h-168
q-15 -74 -26 -102.5t-31.5 -42.5t-57.5 -14h-26q-84 0 -84 57q0 22 9 56q58 229 139 454q20 55 60 81t90 26zM284 297h124q-26 124 -62 211q-31 -67 -62 -211z" />
    <glyph glyph-name="Acircumflex" unicode="&#xc2;" horiz-adv-x="692" 
d="M396 880l75 -52q27 -19 34 -28.5t7 -21.5q0 -26 -17 -40.5t-37 -14.5q-23 0 -38 9l-75 47l-75 -47q-15 -9 -38 -9q-14 0 -28 8t-20 21t-6 26q0 8 4.5 18.5t35.5 31.5l76 52q21 14 51 14t51 -14zM335 674h22q28 0 58.5 -10t55 -36t36.5 -61q94 -277 139 -454q9 -39 9 -50
q0 -63 -84 -63h-26q-39 0 -60.5 16t-31 44.5t-23.5 98.5h-168q-15 -74 -26 -102.5t-31.5 -42.5t-57.5 -14h-26q-84 0 -84 57q0 22 9 56q58 229 139 454q20 55 60 81t90 26zM284 297h124q-26 124 -62 211q-31 -67 -62 -211z" />
    <glyph glyph-name="Atilde" unicode="&#xc3;" horiz-adv-x="692" 
d="M358 838q18 -8 32.5 -12t35.5 -4q17 0 36 15q5 4 15.5 2t20.5 -16t10 -31q0 -36 -18 -58q-12 -14 -31.5 -22t-40.5 -8q-31 0 -84 21q-18 8 -33 12t-36 4q-18 0 -36 -14q-5 -4 -15 -2t-20 16t-10 30q0 36 18 58q12 14 31 22t40 8q34 0 85 -21zM335 674h22q28 0 58.5 -10
t55 -36t36.5 -61q94 -277 139 -454q9 -39 9 -50q0 -63 -84 -63h-26q-39 0 -60.5 16t-31 44.5t-23.5 98.5h-168q-15 -74 -26 -102.5t-31.5 -42.5t-57.5 -14h-26q-84 0 -84 57q0 22 9 56q58 229 139 454q20 55 60 81t90 26zM284 297h124q-26 124 -62 211q-31 -67 -62 -211z
" />
    <glyph glyph-name="Adieresis" unicode="&#xc4;" horiz-adv-x="692" 
d="M311 792q0 -18 -7.5 -34.5t-25.5 -25.5t-39 -9q-30 0 -52 17t-22 52q0 17 8 34t26.5 26t39.5 9t39 -9t25.5 -26t7.5 -34zM526 792q0 -18 -7.5 -34.5t-25.5 -25.5t-39 -9q-30 0 -51.5 17t-21.5 52q0 17 7.5 34t26 26t39.5 9t39 -9t25.5 -26t7.5 -34zM335 674h22
q28 0 58.5 -10t55 -36t36.5 -61q94 -277 139 -454q9 -39 9 -50q0 -63 -84 -63h-26q-39 0 -60.5 16t-31 44.5t-23.5 98.5h-168q-15 -74 -26 -102.5t-31.5 -42.5t-57.5 -14h-26q-84 0 -84 57q0 22 9 56q58 229 139 454q20 55 60 81t90 26zM284 297h124q-26 124 -62 211
q-31 -67 -62 -211z" />
    <glyph glyph-name="Aring" unicode="&#xc5;" horiz-adv-x="692" 
d="M453 804q0 -48 -30.5 -76t-77.5 -28q-21 0 -46.5 9t-43.5 34.5t-18 60.5q0 23 10.5 48t37 41.5t60.5 16.5q22 0 47.5 -9.5t43 -35.5t17.5 -61zM312 804q0 -16 9 -26t24 -10t24.5 10t9.5 26q0 17 -9.5 27t-24.5 10t-24 -10t-9 -27zM335 674h22q28 0 58.5 -10t55 -36
t36.5 -61q94 -277 139 -454q9 -39 9 -50q0 -63 -84 -63h-26q-39 0 -60.5 16t-31 44.5t-23.5 98.5h-168q-15 -74 -26 -102.5t-31.5 -42.5t-57.5 -14h-26q-84 0 -84 57q0 22 9 56q58 229 139 454q20 55 60 81t90 26zM284 297h124q-26 124 -62 211q-31 -67 -62 -211z" />
    <glyph glyph-name="Ccedilla" unicode="&#xc7;" horiz-adv-x="665" 
d="M607 527q0 -36 -26.5 -61t-76.5 -29q-13 34 -47 52t-82 18q-68 0 -108 -47t-40 -126q0 -80 41 -125t107 -45q47 0 80.5 19t52.5 51q29 -3 55.5 -18t37.5 -36.5t11 -40.5q0 -21 -10.5 -45t-36.5 -45.5t-69 -37.5t-101 -19l-5 -15h8q31 0 49.5 -20t18.5 -50
q0 -48 -37.5 -74.5t-91.5 -26.5q-22 0 -48.5 7t-44.5 26t-18 45q0 23 14 36.5t28 13.5q6 -12 22 -18.5t37 -6.5q17 0 29.5 6t12.5 16q0 8 -8 13.5t-26 5.5h-9q-8 0 -12.5 3.5t-4.5 8.5q0 10 10 33q-58 7 -109.5 31.5t-90.5 66.5t-61 103t-22 138q0 85 26.5 151.5t72.5 110
t107 65t128 21.5q53 0 92.5 -10.5t69 -27.5t52.5 -47.5t23 -69.5z" />
    <glyph glyph-name="Egrave" unicode="&#xc8;" horiz-adv-x="575" 
d="M362 725l-163 48q-19 7 -32 25.5t-13 63.5v4q0 23 9.5 35.5t25.5 12.5q15 0 41 -12l159 -81q39 -20 39 -59q0 -21 -12.5 -31t-29.5 -10q-13 0 -24 4zM150 673h314q36 0 56.5 -21t20.5 -62t-21 -62t-56 -21h-213v-99h165q38 0 54.5 -12.5t19.5 -29.5t3 -25
q0 -28 -15 -47.5t-62 -19.5h-165v-109h220q36 0 56.5 -20.5t20.5 -61.5t-21 -62t-56 -21h-321q-46 0 -65.5 18.5t-19.5 60.5v513q0 42 20 61.5t65 19.5z" />
    <glyph glyph-name="Eacute" unicode="&#xc9;" horiz-adv-x="575" 
d="M230 729q-21 -6 -42 -6q-13 0 -23.5 9.5t-10.5 27.5v9q0 16 7.5 27.5t26.5 21.5l158 81q28 13 47 13q35 0 35 -50q0 -73 -35 -84zM150 673h314q36 0 56.5 -21t20.5 -62t-21 -62t-56 -21h-213v-99h165q38 0 54.5 -12.5t19.5 -29.5t3 -25q0 -28 -15 -47.5t-62 -19.5h-165
v-109h220q36 0 56.5 -20.5t20.5 -61.5t-21 -62t-56 -21h-321q-46 0 -65.5 18.5t-19.5 60.5v513q0 42 20 61.5t65 19.5z" />
    <glyph glyph-name="Ecircumflex" unicode="&#xca;" horiz-adv-x="575" 
d="M342 880l75 -52q27 -19 34 -28.5t7 -21.5q0 -26 -17 -40.5t-37 -14.5q-23 0 -38 9l-75 47l-75 -47q-15 -9 -38 -9q-14 0 -28 8t-20 21t-6 26q0 8 4.5 18.5t35.5 31.5l76 52q21 14 51 14t51 -14zM150 673h314q36 0 56.5 -21t20.5 -62t-21 -62t-56 -21h-213v-99h165
q38 0 54.5 -12.5t19.5 -29.5t3 -25q0 -28 -15 -47.5t-62 -19.5h-165v-109h220q36 0 56.5 -20.5t20.5 -61.5t-21 -62t-56 -21h-321q-46 0 -65.5 18.5t-19.5 60.5v513q0 42 20 61.5t65 19.5z" />
    <glyph glyph-name="Edieresis" unicode="&#xcb;" horiz-adv-x="575" 
d="M256 792q0 -18 -7.5 -34.5t-25.5 -25.5t-39 -9q-30 0 -52 17t-22 52q0 17 8 34t26.5 26t39.5 9t39 -9t25.5 -26t7.5 -34zM471 792q0 -18 -7.5 -34.5t-25.5 -25.5t-39 -9q-30 0 -51.5 17t-21.5 52q0 17 7.5 34t26 26t39.5 9t39 -9t25.5 -26t7.5 -34zM150 673h314
q36 0 56.5 -21t20.5 -62t-21 -62t-56 -21h-213v-99h165q38 0 54.5 -12.5t19.5 -29.5t3 -25q0 -28 -15 -47.5t-62 -19.5h-165v-109h220q36 0 56.5 -20.5t20.5 -61.5t-21 -62t-56 -21h-321q-46 0 -65.5 18.5t-19.5 60.5v513q0 42 20 61.5t65 19.5z" />
    <glyph glyph-name="Igrave" unicode="&#xcc;" horiz-adv-x="314" 
d="M229 725l-163 48q-19 7 -32 25.5t-13 63.5v4q0 23 9.5 35.5t25.5 12.5q15 0 41 -12l159 -81q39 -20 39 -59q0 -21 -12.5 -31t-29.5 -10q-13 0 -24 4zM150 673h16q45 0 65 -19.5t20 -61.5v-513q0 -41 -20 -60t-65 -19h-16q-46 0 -65.5 18.5t-19.5 60.5v513q0 42 20 61.5
t65 19.5z" />
    <glyph glyph-name="Iacute" unicode="&#xcd;" horiz-adv-x="314" 
d="M97 729q-21 -6 -42 -6q-13 0 -23.5 9.5t-10.5 27.5v9q0 16 7.5 27.5t26.5 21.5l158 81q28 13 47 13q35 0 35 -50q0 -73 -35 -84zM150 673h16q45 0 65 -19.5t20 -61.5v-513q0 -41 -20 -60t-65 -19h-16q-46 0 -65.5 18.5t-19.5 60.5v513q0 42 20 61.5t65 19.5z" />
    <glyph glyph-name="Icircumflex" unicode="&#xce;" horiz-adv-x="348" 
d="M225 883l75 -52q27 -19 34 -28.5t7 -21.5q0 -26 -17 -40.5t-37 -14.5q-23 0 -38 9l-75 47l-75 -47q-15 -9 -38 -9q-14 0 -28 8t-20 21t-6 26q0 8 4.5 18.5t35.5 31.5l76 52q21 14 51 14t51 -14zM168 673h16q45 0 65 -19.5t20 -61.5v-513q0 -41 -20 -60t-65 -19h-16
q-46 0 -65.5 18.5t-19.5 60.5v513q0 42 20 61.5t65 19.5z" />
    <glyph glyph-name="Idieresis" unicode="&#xcf;" horiz-adv-x="368" 
d="M151 792q0 -18 -7.5 -34.5t-25.5 -25.5t-39 -9q-30 0 -52 17t-22 52q0 17 8 34t26.5 26t39.5 9t39 -9t25.5 -26t7.5 -34zM366 792q0 -18 -7.5 -34.5t-25.5 -25.5t-39 -9q-30 0 -51.5 17t-21.5 52q0 17 7.5 34t26 26t39.5 9t39 -9t25.5 -26t7.5 -34zM177 673h16
q45 0 65 -19.5t20 -61.5v-513q0 -41 -20 -60t-65 -19h-16q-46 0 -65.5 18.5t-19.5 60.5v513q0 42 20 61.5t65 19.5z" />
    <glyph glyph-name="Ntilde" unicode="&#xd1;" horiz-adv-x="735" 
d="M378 858q18 -8 32.5 -12t35.5 -4q17 0 36 15q5 4 15.5 2t20.5 -16t10 -31q0 -36 -18 -58q-12 -14 -31.5 -22t-40.5 -8q-31 0 -84 21q-18 8 -33 12t-36 4q-18 0 -36 -14q-5 -4 -15 -2t-20 16t-10 30q0 36 18 58q12 14 31 22t40 8q34 0 85 -21zM150 673h35q24 0 47 -11
t47 -47l215 -310v287q0 43 19 62t63 19h11q45 0 64 -19t19 -62v-510q0 -42 -20.5 -62t-64.5 -20h-19q-66 0 -107 57l-223 306v-284q0 -42 -18.5 -60.5t-62.5 -18.5h-7q-46 0 -64.5 18.5t-18.5 60.5v510q0 43 20 63.5t65 20.5z" />
    <glyph glyph-name="Ograve" unicode="&#xd2;" horiz-adv-x="733" 
d="M437 725l-163 48q-19 7 -32 25.5t-13 63.5v4q0 23 9.5 35.5t25.5 12.5q15 0 41 -12l159 -81q39 -20 39 -59q0 -21 -12.5 -31t-29.5 -10q-13 0 -24 4zM698 335q0 -90 -29 -157.5t-77.5 -108t-107 -59.5t-117.5 -19q-60 0 -119 19t-107.5 59.5t-77.5 108t-29 157.5
q0 91 29 159t77.5 109t107 60t118.5 19t118.5 -19t107 -60t77.5 -109t29 -159zM224 336q0 -45 12 -78.5t32.5 -54.5t47 -30.5t50.5 -9.5q27 0 52.5 10t45.5 30.5t32 54t12 78.5q0 33 -8 65.5t-29 59t-50.5 37t-54.5 10.5q-24 0 -50.5 -9t-47 -30t-32.5 -54.5t-12 -78.5z" />
    <glyph glyph-name="Oacute" unicode="&#xd3;" horiz-adv-x="733" 
d="M305 729q-21 -6 -42 -6q-13 0 -23.5 9.5t-10.5 27.5v9q0 16 7.5 27.5t26.5 21.5l158 81q28 13 47 13q35 0 35 -50q0 -73 -35 -84zM698 335q0 -90 -29 -157.5t-77.5 -108t-107 -59.5t-117.5 -19q-60 0 -119 19t-107.5 59.5t-77.5 108t-29 157.5q0 91 29 159t77.5 109
t107 60t118.5 19t118.5 -19t107 -60t77.5 -109t29 -159zM224 336q0 -45 12 -78.5t32.5 -54.5t47 -30.5t50.5 -9.5q27 0 52.5 10t45.5 30.5t32 54t12 78.5q0 33 -8 65.5t-29 59t-50.5 37t-54.5 10.5q-24 0 -50.5 -9t-47 -30t-32.5 -54.5t-12 -78.5z" />
    <glyph glyph-name="Ocircumflex" unicode="&#xd4;" horiz-adv-x="733" 
d="M417 880l75 -52q27 -19 34 -28.5t7 -21.5q0 -26 -17 -40.5t-37 -14.5q-23 0 -38 9l-75 47l-75 -47q-15 -9 -38 -9q-14 0 -28 8t-20 21t-6 26q0 8 4.5 18.5t35.5 31.5l76 52q21 14 51 14t51 -14zM698 335q0 -90 -29 -157.5t-77.5 -108t-107 -59.5t-117.5 -19
q-60 0 -119 19t-107.5 59.5t-77.5 108t-29 157.5q0 91 29 159t77.5 109t107 60t118.5 19t118.5 -19t107 -60t77.5 -109t29 -159zM224 336q0 -45 12 -78.5t32.5 -54.5t47 -30.5t50.5 -9.5q27 0 52.5 10t45.5 30.5t32 54t12 78.5q0 33 -8 65.5t-29 59t-50.5 37t-54.5 10.5
q-24 0 -50.5 -9t-47 -30t-32.5 -54.5t-12 -78.5z" />
    <glyph glyph-name="Otilde" unicode="&#xd5;" horiz-adv-x="733" 
d="M379 845q18 -8 32.5 -12t35.5 -4q17 0 36 15q5 4 15.5 2t20.5 -16t10 -31q0 -36 -18 -58q-12 -14 -31.5 -22t-40.5 -8q-31 0 -84 21q-18 8 -33 12t-36 4q-18 0 -36 -14q-5 -4 -15 -2t-20 16t-10 30q0 36 18 58q12 14 31 22t40 8q34 0 85 -21zM698 335q0 -90 -29 -157.5
t-77.5 -108t-107 -59.5t-117.5 -19q-60 0 -119 19t-107.5 59.5t-77.5 108t-29 157.5q0 91 29 159t77.5 109t107 60t118.5 19t118.5 -19t107 -60t77.5 -109t29 -159zM224 336q0 -45 12 -78.5t32.5 -54.5t47 -30.5t50.5 -9.5q27 0 52.5 10t45.5 30.5t32 54t12 78.5
q0 33 -8 65.5t-29 59t-50.5 37t-54.5 10.5q-24 0 -50.5 -9t-47 -30t-32.5 -54.5t-12 -78.5z" />
    <glyph glyph-name="Odieresis" unicode="&#xd6;" horiz-adv-x="733" 
d="M331 792q0 -18 -7.5 -34.5t-25.5 -25.5t-39 -9q-30 0 -52 17t-22 52q0 17 8 34t26.5 26t39.5 9t39 -9t25.5 -26t7.5 -34zM546 792q0 -18 -7.5 -34.5t-25.5 -25.5t-39 -9q-30 0 -51.5 17t-21.5 52q0 17 7.5 34t26 26t39.5 9t39 -9t25.5 -26t7.5 -34zM698 335
q0 -90 -29 -157.5t-77.5 -108t-107 -59.5t-117.5 -19q-60 0 -119 19t-107.5 59.5t-77.5 108t-29 157.5q0 91 29 159t77.5 109t107 60t118.5 19t118.5 -19t107 -60t77.5 -109t29 -159zM224 336q0 -45 12 -78.5t32.5 -54.5t47 -30.5t50.5 -9.5q27 0 52.5 10t45.5 30.5t32 54
t12 78.5q0 33 -8 65.5t-29 59t-50.5 37t-54.5 10.5q-24 0 -50.5 -9t-47 -30t-32.5 -54.5t-12 -78.5z" />
    <glyph glyph-name="multiply" unicode="&#xd7;" horiz-adv-x="525" 
d="M89 134h-1q-22 22 -26.5 42t6.5 41t40 50l43 43l-43 44q-47 46 -47.5 75t26.5 56v1q22 22 42 26.5t41 -6.5t50 -40l43 -43l44 44q28 28 49 39t40.5 7t40.5 -25l3 -2q22 -23 26 -42.5t-6.5 -39.5t-39.5 -50l-44 -44l44 -43q28 -28 39 -49t7 -40.5t-25 -40.5l-2 -3
q-23 -22 -42.5 -26t-39.5 6.5t-50 39.5l-44 44l-43 -43q-46 -47 -75 -47.5t-56 26.5z" />
    <glyph glyph-name="Oslash" unicode="&#xd8;" horiz-adv-x="733" 
d="M557 629l47 57q17 21 36 21q12 0 25 -6l1 -1q14 -6 22 -16t8 -20q0 -15 -12 -30l-57 -69q71 -89 71 -230q0 -90 -29 -157.5t-77.5 -108t-107 -59.5t-117.5 -19q-96 0 -174 42l-18 -22q-26 -31 -52 -48q-14 -17 -32 -17q-22 0 -35.5 13t-13.5 24q0 14 14 31l62 76
q-39 42 -61.5 104t-22.5 141q0 91 29 159t77.5 109t107 60t118.5 19q49 0 99.5 -13.5t91.5 -39.5zM224 336q0 -57 18 -95l199 246q-34 21 -75 21q-24 0 -50.5 -9t-47 -30t-32.5 -54.5t-12 -78.5zM308 175q29 -12 58 -12q27 0 52.5 10t45.5 30.5t32 54t12 78.5q0 38 -10 71z
" />
    <glyph glyph-name="Ugrave" unicode="&#xd9;" horiz-adv-x="699" 
d="M421 725l-163 48q-19 7 -32 25.5t-13 63.5v4q0 23 9.5 35.5t25.5 12.5q15 0 41 -12l159 -81q39 -20 39 -59q0 -21 -12.5 -31t-29.5 -10q-13 0 -24 4zM140 673h14q46 0 66 -19.5t20 -62.5v-318q0 -62 28.5 -92t81.5 -30q31 0 57 12t39.5 42t13.5 68v318q0 43 20 62.5
t65 19.5h14q87 0 87 -82v-277q0 -117 -34 -185.5t-99.5 -101.5t-162.5 -33t-162.5 33t-99.5 101.5t-34 185.5v277q0 82 86 82z" />
    <glyph glyph-name="Uacute" unicode="&#xda;" horiz-adv-x="699" 
d="M289 729q-21 -6 -42 -6q-13 0 -23.5 9.5t-10.5 27.5v9q0 16 7.5 27.5t26.5 21.5l158 81q28 13 47 13q35 0 35 -50q0 -73 -35 -84zM140 673h14q46 0 66 -19.5t20 -62.5v-318q0 -62 28.5 -92t81.5 -30q31 0 57 12t39.5 42t13.5 68v318q0 43 20 62.5t65 19.5h14q87 0 87 -82
v-277q0 -117 -34 -185.5t-99.5 -101.5t-162.5 -33t-162.5 33t-99.5 101.5t-34 185.5v277q0 82 86 82z" />
    <glyph glyph-name="Ucircumflex" unicode="&#xdb;" horiz-adv-x="699" 
d="M401 880l75 -52q27 -19 34 -28.5t7 -21.5q0 -26 -17 -40.5t-37 -14.5q-23 0 -38 9l-75 47l-75 -47q-15 -9 -38 -9q-14 0 -28 8t-20 21t-6 26q0 8 4.5 18.5t35.5 31.5l76 52q21 14 51 14t51 -14zM140 673h14q46 0 66 -19.5t20 -62.5v-318q0 -62 28.5 -92t81.5 -30
q31 0 57 12t39.5 42t13.5 68v318q0 43 20 62.5t65 19.5h14q87 0 87 -82v-277q0 -117 -34 -185.5t-99.5 -101.5t-162.5 -33t-162.5 33t-99.5 101.5t-34 185.5v277q0 82 86 82z" />
    <glyph glyph-name="Udieresis" unicode="&#xdc;" horiz-adv-x="699" 
d="M314 792q0 -18 -7.5 -34.5t-25.5 -25.5t-39 -9q-30 0 -52 17t-22 52q0 17 8 34t26.5 26t39.5 9t39 -9t25.5 -26t7.5 -34zM529 792q0 -18 -7.5 -34.5t-25.5 -25.5t-39 -9q-30 0 -51.5 17t-21.5 52q0 17 7.5 34t26 26t39.5 9t39 -9t25.5 -26t7.5 -34zM140 673h14
q46 0 66 -19.5t20 -62.5v-318q0 -62 28.5 -92t81.5 -30q31 0 57 12t39.5 42t13.5 68v318q0 43 20 62.5t65 19.5h14q87 0 87 -82v-277q0 -117 -34 -185.5t-99.5 -101.5t-162.5 -33t-162.5 33t-99.5 101.5t-34 185.5v277q0 82 86 82z" />
    <glyph glyph-name="Yacute" unicode="&#xdd;" horiz-adv-x="640" 
d="M259 729q-21 -6 -42 -6q-13 0 -23.5 9.5t-10.5 27.5v9q0 16 7.5 27.5t26.5 21.5l158 81q28 13 47 13q35 0 35 -50q0 -73 -35 -84zM100 673h39q30 0 51.5 -15t29.5 -42q53 -170 97 -253h4q15 25 34 68.5t58 174.5q11 38 33 52.5t60 14.5h42q64 0 64 -54q0 -20 -13 -56
q-69 -184 -184 -347v-111q0 -52 -18 -78.5t-67 -26.5h-24q-40 0 -62 20t-22 85v114q-126 177 -188 357q-8 21 -8 43q0 25 20 39.5t54 14.5z" />
    <glyph glyph-name="germandbls" unicode="&#xdf;" horiz-adv-x="623" 
d="M514 506q0 -41 -23 -75.5t-61 -58.5q59 -26 95 -52.5t55 -64t19 -89.5q0 -80 -52 -126t-140 -46q-74 0 -113 25t-39 72q0 32 12.5 51t32.5 25q31 -43 94 -43q22 0 35.5 13t13.5 30t-10.5 32.5t-58.5 34.5q-43 17 -67 31t-34 34t-10 41q0 18 22.5 47t31.5 47.5t9 42.5
q0 31 -16.5 46.5t-42.5 15.5t-41 -17t-15 -50v-394q0 -42 -18.5 -60t-62.5 -18h-4q-45 0 -64.5 18t-19.5 60l-1 385q0 49 14.5 90.5t44.5 72t77 47.5t108 17q51 0 93 -11.5t72.5 -34.5t47 -58t16.5 -80z" />
    <glyph glyph-name="agrave" unicode="&#xe0;" horiz-adv-x="544" 
d="M341 565l-163 48q-19 7 -32 25.5t-13 63.5v4q0 23 9.5 35.5t25.5 12.5q15 0 41 -12l159 -81q39 -20 39 -59q0 -21 -12.5 -31t-29.5 -10q-13 0 -24 4zM488 306v-122q0 -48 11.5 -76t29.5 -35q-3 -20 -16.5 -39.5t-36.5 -28.5t-46 -9q-72 0 -94 75l-2 1q-12 -28 -41.5 -48
t-56 -24.5t-41.5 -4.5q-54 0 -93 21.5t-59.5 56t-20.5 81.5q0 48 24 84t69.5 58t106.5 22q7 0 24.5 -1t25 -2t59.5 -12v12q0 15 -9.5 30.5t-35 24t-59.5 8.5q-78 0 -128 -36q-47 20 -47 76q0 47 55.5 78.5t149.5 31.5q78 0 128 -24t76.5 -72t26.5 -126zM181 170
q0 -23 19.5 -37t48.5 -14q17 0 36.5 8.5t32.5 29t13 43.5v9q-30 15 -75 15q-31 0 -53 -14t-22 -40z" />
    <glyph glyph-name="aacute" unicode="&#xe1;" horiz-adv-x="544" 
d="M209 569q-21 -6 -42 -6q-13 0 -23.5 9.5t-10.5 27.5v9q0 16 7.5 27.5t26.5 21.5l158 81q28 13 47 13q35 0 35 -50q0 -73 -35 -84zM488 306v-122q0 -48 11.5 -76t29.5 -35q-3 -20 -16.5 -39.5t-36.5 -28.5t-46 -9q-72 0 -94 75l-2 1q-12 -28 -41.5 -48t-56 -24.5
t-41.5 -4.5q-54 0 -93 21.5t-59.5 56t-20.5 81.5q0 48 24 84t69.5 58t106.5 22q7 0 24.5 -1t25 -2t59.5 -12v12q0 15 -9.5 30.5t-35 24t-59.5 8.5q-78 0 -128 -36q-47 20 -47 76q0 47 55.5 78.5t149.5 31.5q78 0 128 -24t76.5 -72t26.5 -126zM181 170q0 -23 19.5 -37
t48.5 -14q17 0 36.5 8.5t32.5 29t13 43.5v9q-30 15 -75 15q-31 0 -53 -14t-22 -40z" />
    <glyph glyph-name="acircumflex" unicode="&#xe2;" horiz-adv-x="544" 
d="M321 720l75 -52q27 -19 34 -28.5t7 -21.5q0 -26 -17 -40.5t-37 -14.5q-23 0 -38 9l-75 47l-75 -47q-15 -9 -38 -9q-14 0 -28 8t-20 21t-6 26q0 8 4.5 18.5t35.5 31.5l76 52q21 14 51 14t51 -14zM488 306v-122q0 -48 11.5 -76t29.5 -35q-3 -20 -16.5 -39.5t-36.5 -28.5
t-46 -9q-72 0 -94 75l-2 1q-12 -28 -41.5 -48t-56 -24.5t-41.5 -4.5q-54 0 -93 21.5t-59.5 56t-20.5 81.5q0 48 24 84t69.5 58t106.5 22q7 0 24.5 -1t25 -2t59.5 -12v12q0 15 -9.5 30.5t-35 24t-59.5 8.5q-78 0 -128 -36q-47 20 -47 76q0 47 55.5 78.5t149.5 31.5
q78 0 128 -24t76.5 -72t26.5 -126zM181 170q0 -23 19.5 -37t48.5 -14q17 0 36.5 8.5t32.5 29t13 43.5v9q-30 15 -75 15q-31 0 -53 -14t-22 -40z" />
    <glyph glyph-name="atilde" unicode="&#xe3;" horiz-adv-x="544" 
d="M284 691q18 -8 32.5 -12t35.5 -4q17 0 36 15q5 4 15.5 2t20.5 -16t10 -31q0 -36 -18 -58q-12 -14 -31.5 -22t-40.5 -8q-31 0 -84 21q-18 8 -33 12t-36 4q-18 0 -36 -14q-5 -4 -15 -2t-20 16t-10 30q0 36 18 58q12 14 31 22t40 8q34 0 85 -21zM488 306v-122
q0 -48 11.5 -76t29.5 -35q-3 -20 -16.5 -39.5t-36.5 -28.5t-46 -9q-72 0 -94 75l-2 1q-12 -28 -41.5 -48t-56 -24.5t-41.5 -4.5q-54 0 -93 21.5t-59.5 56t-20.5 81.5q0 48 24 84t69.5 58t106.5 22q7 0 24.5 -1t25 -2t59.5 -12v12q0 15 -9.5 30.5t-35 24t-59.5 8.5
q-78 0 -128 -36q-47 20 -47 76q0 47 55.5 78.5t149.5 31.5q78 0 128 -24t76.5 -72t26.5 -126zM181 170q0 -23 19.5 -37t48.5 -14q17 0 36.5 8.5t32.5 29t13 43.5v9q-30 15 -75 15q-31 0 -53 -14t-22 -40z" />
    <glyph glyph-name="adieresis" unicode="&#xe4;" horiz-adv-x="544" 
d="M235 632q0 -18 -7.5 -34.5t-25.5 -25.5t-39 -9q-30 0 -52 17t-22 52q0 17 8 34t26.5 26t39.5 9t39 -9t25.5 -26t7.5 -34zM450 632q0 -18 -7.5 -34.5t-25.5 -25.5t-39 -9q-30 0 -51.5 17t-21.5 52q0 17 7.5 34t26 26t39.5 9t39 -9t25.5 -26t7.5 -34zM488 306v-122
q0 -48 11.5 -76t29.5 -35q-3 -20 -16.5 -39.5t-36.5 -28.5t-46 -9q-72 0 -94 75l-2 1q-12 -28 -41.5 -48t-56 -24.5t-41.5 -4.5q-54 0 -93 21.5t-59.5 56t-20.5 81.5q0 48 24 84t69.5 58t106.5 22q7 0 24.5 -1t25 -2t59.5 -12v12q0 15 -9.5 30.5t-35 24t-59.5 8.5
q-78 0 -128 -36q-47 20 -47 76q0 47 55.5 78.5t149.5 31.5q78 0 128 -24t76.5 -72t26.5 -126zM181 170q0 -23 19.5 -37t48.5 -14q17 0 36.5 8.5t32.5 29t13 43.5v9q-30 15 -75 15q-31 0 -53 -14t-22 -40z" />
    <glyph glyph-name="aring" unicode="&#xe5;" horiz-adv-x="544" 
d="M379 664q0 -48 -30.5 -76t-77.5 -28q-21 0 -46.5 9t-43.5 34.5t-18 60.5q0 23 10.5 48t37 41.5t60.5 16.5q22 0 47.5 -9.5t43 -35.5t17.5 -61zM238 664q0 -16 9 -26t24 -10t24.5 10t9.5 26q0 17 -9.5 27t-24.5 10t-24 -10t-9 -27zM488 306v-122q0 -48 11.5 -76t29.5 -35
q-3 -20 -16.5 -39.5t-36.5 -28.5t-46 -9q-72 0 -94 75l-2 1q-12 -28 -41.5 -48t-56 -24.5t-41.5 -4.5q-54 0 -93 21.5t-59.5 56t-20.5 81.5q0 48 24 84t69.5 58t106.5 22q7 0 24.5 -1t25 -2t59.5 -12v12q0 15 -9.5 30.5t-35 24t-59.5 8.5q-78 0 -128 -36q-47 20 -47 76
q0 47 55.5 78.5t149.5 31.5q78 0 128 -24t76.5 -72t26.5 -126zM181 170q0 -23 19.5 -37t48.5 -14q17 0 36.5 8.5t32.5 29t13 43.5v9q-30 15 -75 15q-31 0 -53 -14t-22 -40z" />
    <glyph glyph-name="ccedilla" unicode="&#xe7;" horiz-adv-x="505" 
d="M476 406q0 -32 -25.5 -53.5t-65.5 -21.5q-12 18 -33.5 29.5t-52.5 11.5q-49 0 -77.5 -30t-28.5 -84q0 -26 9.5 -53t35.5 -44t61 -17q66 0 97 38q36 -1 60.5 -23t24.5 -52q0 -34 -27.5 -61.5t-68.5 -40t-76 -13.5l-5 -15h8q31 0 49.5 -20t18.5 -50q0 -48 -37.5 -74.5
t-91.5 -26.5q-22 0 -48.5 7t-44.5 26t-18 45q0 23 14 36.5t28 13.5q6 -12 22 -18.5t37 -6.5q17 0 29.5 6t12.5 16q0 8 -8 13.5t-26 5.5h-9q-8 0 -12.5 3.5t-4.5 8.5q0 8 11 35q-43 8 -81.5 27.5t-67.5 51.5t-46 78.5t-17 103.5q0 68 22 120.5t60 86.5t86 50.5t99 16.5
q57 0 101.5 -17.5t65 -48t20.5 -60.5z" />
    <glyph glyph-name="egrave" unicode="&#xe8;" horiz-adv-x="516" 
d="M349 558l-163 48q-19 7 -32 25.5t-13 63.5v4q0 23 9.5 35.5t25.5 12.5q15 0 41 -12l159 -81q39 -20 39 -59q0 -21 -12.5 -31t-29.5 -10q-13 0 -24 4zM493 351q0 -28 -9.5 -55.5t-32.5 -49t-59 -34.5t-84 -13q-36 0 -71.5 6.5t-57.5 16.5q0 -41 40.5 -65t98.5 -24
q77 0 120 41q19 -7 32.5 -28t13.5 -44q0 -20 -11.5 -39.5t-40 -36.5t-68.5 -25.5t-71 -8.5q-59 0 -108.5 16t-86 49t-56.5 83t-20 114q0 65 20 116.5t55.5 86.5t83.5 53t103 18q36 0 73 -9.5t67 -31.5t49.5 -56.5t19.5 -79.5zM191 312q12 -9 43 -14.5t56 -5.5q29 0 45.5 13
t16.5 36q0 22 -21.5 37t-54.5 15q-32 0 -57 -22.5t-28 -58.5z" />
    <glyph glyph-name="eacute" unicode="&#xe9;" horiz-adv-x="516" 
d="M196 562q-21 -6 -42 -6q-13 0 -23.5 9.5t-10.5 27.5v9q0 16 7.5 27.5t26.5 21.5l158 81q28 13 47 13q35 0 35 -50q0 -73 -35 -84zM493 351q0 -28 -9.5 -55.5t-32.5 -49t-59 -34.5t-84 -13q-36 0 -71.5 6.5t-57.5 16.5q0 -41 40.5 -65t98.5 -24q77 0 120 41
q19 -7 32.5 -28t13.5 -44q0 -20 -11.5 -39.5t-40 -36.5t-68.5 -25.5t-71 -8.5q-59 0 -108.5 16t-86 49t-56.5 83t-20 114q0 65 20 116.5t55.5 86.5t83.5 53t103 18q36 0 73 -9.5t67 -31.5t49.5 -56.5t19.5 -79.5zM191 312q12 -9 43 -14.5t56 -5.5q29 0 45.5 13t16.5 36
q0 22 -21.5 37t-54.5 15q-32 0 -57 -22.5t-28 -58.5z" />
    <glyph glyph-name="ecircumflex" unicode="&#xea;" horiz-adv-x="516" 
d="M323 720l75 -52q27 -19 34 -28.5t7 -21.5q0 -26 -17 -40.5t-37 -14.5q-23 0 -38 9l-75 47l-75 -47q-15 -9 -38 -9q-14 0 -28 8t-20 21t-6 26q0 8 4.5 18.5t35.5 31.5l76 52q21 14 51 14t51 -14zM493 351q0 -28 -9.5 -55.5t-32.5 -49t-59 -34.5t-84 -13q-36 0 -71.5 6.5
t-57.5 16.5q0 -41 40.5 -65t98.5 -24q77 0 120 41q19 -7 32.5 -28t13.5 -44q0 -20 -11.5 -39.5t-40 -36.5t-68.5 -25.5t-71 -8.5q-59 0 -108.5 16t-86 49t-56.5 83t-20 114q0 65 20 116.5t55.5 86.5t83.5 53t103 18q36 0 73 -9.5t67 -31.5t49.5 -56.5t19.5 -79.5zM191 312
q12 -9 43 -14.5t56 -5.5q29 0 45.5 13t16.5 36q0 22 -21.5 37t-54.5 15q-32 0 -57 -22.5t-28 -58.5z" />
    <glyph glyph-name="edieresis" unicode="&#xeb;" horiz-adv-x="516" 
d="M237 635q0 -18 -7.5 -34.5t-25.5 -25.5t-39 -9q-30 0 -52 17t-22 52q0 17 8 34t26.5 26t39.5 9t39 -9t25.5 -26t7.5 -34zM452 635q0 -18 -7.5 -34.5t-25.5 -25.5t-39 -9q-30 0 -51.5 17t-21.5 52q0 17 7.5 34t26 26t39.5 9t39 -9t25.5 -26t7.5 -34zM493 351
q0 -28 -9.5 -55.5t-32.5 -49t-59 -34.5t-84 -13q-36 0 -71.5 6.5t-57.5 16.5q0 -41 40.5 -65t98.5 -24q77 0 120 41q19 -7 32.5 -28t13.5 -44q0 -20 -11.5 -39.5t-40 -36.5t-68.5 -25.5t-71 -8.5q-59 0 -108.5 16t-86 49t-56.5 83t-20 114q0 65 20 116.5t55.5 86.5t83.5 53
t103 18q36 0 73 -9.5t67 -31.5t49.5 -56.5t19.5 -79.5zM191 312q12 -9 43 -14.5t56 -5.5q29 0 45.5 13t16.5 36q0 22 -21.5 37t-54.5 15q-32 0 -57 -22.5t-28 -58.5z" />
    <glyph glyph-name="igrave" unicode="&#xec;" horiz-adv-x="296" 
d="M227 551l-163 48q-19 7 -32 25.5t-13 63.5v4q0 23 9.5 35.5t25.5 12.5q15 0 41 -12l159 -81q39 -20 39 -59q0 -21 -12.5 -31t-29.5 -10q-13 0 -24 4zM159 522h2q46 0 66 -19t20 -61v-363q0 -41 -20 -60t-64 -19h-4q-45 0 -64.5 18.5t-19.5 60.5v363q0 42 20 61t64 19z
" />
    <glyph glyph-name="iacute" unicode="&#xed;" horiz-adv-x="308" 
d="M96 572q-21 -6 -42 -6q-13 0 -23.5 9.5t-10.5 27.5v9q0 16 7.5 27.5t26.5 21.5l158 81q28 13 47 13q35 0 35 -50q0 -73 -35 -84zM159 522h2q46 0 66 -19t20 -61v-363q0 -41 -20 -60t-64 -19h-4q-45 0 -64.5 18.5t-19.5 60.5v363q0 42 20 61t64 19z" />
    <glyph glyph-name="icircumflex" unicode="&#xee;" horiz-adv-x="340" 
d="M221 706l75 -52q27 -19 34 -28.5t7 -21.5q0 -26 -17 -40.5t-37 -14.5q-23 0 -38 9l-75 47l-75 -47q-15 -9 -38 -9q-14 0 -28 8t-20 21t-6 26q0 8 4.5 18.5t35.5 31.5l76 52q21 14 51 14t51 -14zM170 522h2q46 0 66 -19t20 -61v-363q0 -41 -20 -60t-64 -19h-4
q-45 0 -64.5 18.5t-19.5 60.5v363q0 42 20 61t64 19z" />
    <glyph glyph-name="idieresis" unicode="&#xef;" horiz-adv-x="382" 
d="M156 649q0 -18 -7.5 -34.5t-25.5 -25.5t-39 -9q-30 0 -52 17t-22 52q0 17 8 34t26.5 26t39.5 9t39 -9t25.5 -26t7.5 -34zM371 649q0 -18 -7.5 -34.5t-25.5 -25.5t-39 -9q-30 0 -51.5 17t-21.5 52q0 17 7.5 34t26 26t39.5 9t39 -9t25.5 -26t7.5 -34zM193 522h2
q46 0 66 -19t20 -61v-363q0 -41 -20 -60t-64 -19h-4q-45 0 -64.5 18.5t-19.5 60.5v363q0 42 20 61t64 19z" />
    <glyph glyph-name="ntilde" unicode="&#xf1;" horiz-adv-x="563" 
d="M295 691q18 -8 32.5 -12t35.5 -4q17 0 36 15q5 4 15.5 2t20.5 -16t10 -31q0 -36 -18 -58q-12 -14 -31.5 -22t-40.5 -8q-31 0 -84 21q-18 8 -33 12t-36 4q-18 0 -36 -14q-5 -4 -15 -2t-20 16t-10 30q0 36 18 58q12 14 31 22t40 8q34 0 85 -21zM126 522h2q46 0 66 -19
t20 -61v-24q11 31 32 56t50 40t69 15q33 0 62 -11t52 -34.5t36 -62t13 -89.5v-252q0 -42 -19.5 -61t-65.5 -19h-8q-81 0 -81 80v209q0 75 -65 75q-16 0 -33.5 -10t-29.5 -37.5t-12 -65.5v-172q0 -42 -19.5 -60.5t-64.5 -18.5h-4q-46 0 -65.5 18.5t-19.5 60.5v363
q0 42 20.5 61t64.5 19z" />
    <glyph glyph-name="ograve" unicode="&#xf2;" horiz-adv-x="569" 
d="M355 565l-163 48q-19 7 -32 25.5t-13 63.5v4q0 23 9.5 35.5t25.5 12.5q15 0 41 -12l159 -81q39 -20 39 -59q0 -21 -12.5 -31t-29.5 -10q-13 0 -24 4zM547 259q0 -50 -15.5 -98.5t-50.5 -85.5t-85.5 -59t-110.5 -22q-47 0 -93.5 15.5t-85 48t-61.5 84t-23 117.5
q0 50 15.5 99t50.5 87t86 61t111 23t110.5 -23t85.5 -61t50.5 -87t15.5 -99zM194 262q0 -59 25 -88.5t65 -29.5q41 0 65.5 29.5t24.5 88.5q0 58 -25 87.5t-65 29.5t-65 -29.5t-25 -87.5z" />
    <glyph glyph-name="oacute" unicode="&#xf3;" horiz-adv-x="569" 
d="M223 569q-21 -6 -42 -6q-13 0 -23.5 9.5t-10.5 27.5v9q0 16 7.5 27.5t26.5 21.5l158 81q28 13 47 13q35 0 35 -50q0 -73 -35 -84zM547 259q0 -50 -15.5 -98.5t-50.5 -85.5t-85.5 -59t-110.5 -22q-47 0 -93.5 15.5t-85 48t-61.5 84t-23 117.5q0 50 15.5 99t50.5 87t86 61
t111 23t110.5 -23t85.5 -61t50.5 -87t15.5 -99zM194 262q0 -59 25 -88.5t65 -29.5q41 0 65.5 29.5t24.5 88.5q0 58 -25 87.5t-65 29.5t-65 -29.5t-25 -87.5z" />
    <glyph glyph-name="ocircumflex" unicode="&#xf4;" horiz-adv-x="569" 
d="M335 727l75 -52q27 -19 34 -28.5t7 -21.5q0 -26 -17 -40.5t-37 -14.5q-23 0 -38 9l-75 47l-75 -47q-15 -9 -38 -9q-14 0 -28 8t-20 21t-6 26q0 8 4.5 18.5t35.5 31.5l76 52q21 14 51 14t51 -14zM547 259q0 -50 -15.5 -98.5t-50.5 -85.5t-85.5 -59t-110.5 -22
q-47 0 -93.5 15.5t-85 48t-61.5 84t-23 117.5q0 50 15.5 99t50.5 87t86 61t111 23t110.5 -23t85.5 -61t50.5 -87t15.5 -99zM194 262q0 -59 25 -88.5t65 -29.5q41 0 65.5 29.5t24.5 88.5q0 58 -25 87.5t-65 29.5t-65 -29.5t-25 -87.5z" />
    <glyph glyph-name="otilde" unicode="&#xf5;" horiz-adv-x="569" 
d="M297 691q18 -8 32.5 -12t35.5 -4q17 0 36 15q5 4 15.5 2t20.5 -16t10 -31q0 -36 -18 -58q-12 -14 -31.5 -22t-40.5 -8q-31 0 -84 21q-18 8 -33 12t-36 4q-18 0 -36 -14q-5 -4 -15 -2t-20 16t-10 30q0 36 18 58q12 14 31 22t40 8q34 0 85 -21zM547 259q0 -50 -15.5 -98.5
t-50.5 -85.5t-85.5 -59t-110.5 -22q-47 0 -93.5 15.5t-85 48t-61.5 84t-23 117.5q0 50 15.5 99t50.5 87t86 61t111 23t110.5 -23t85.5 -61t50.5 -87t15.5 -99zM194 262q0 -59 25 -88.5t65 -29.5q41 0 65.5 29.5t24.5 88.5q0 58 -25 87.5t-65 29.5t-65 -29.5t-25 -87.5z" />
    <glyph glyph-name="odieresis" unicode="&#xf6;" horiz-adv-x="569" 
d="M249 639q0 -18 -7.5 -34.5t-25.5 -25.5t-39 -9q-30 0 -52 17t-22 52q0 17 8 34t26.5 26t39.5 9t39 -9t25.5 -26t7.5 -34zM464 639q0 -18 -7.5 -34.5t-25.5 -25.5t-39 -9q-30 0 -51.5 17t-21.5 52q0 17 7.5 34t26 26t39.5 9t39 -9t25.5 -26t7.5 -34zM547 259
q0 -50 -15.5 -98.5t-50.5 -85.5t-85.5 -59t-110.5 -22q-47 0 -93.5 15.5t-85 48t-61.5 84t-23 117.5q0 50 15.5 99t50.5 87t86 61t111 23t110.5 -23t85.5 -61t50.5 -87t15.5 -99zM194 262q0 -59 25 -88.5t65 -29.5q41 0 65.5 29.5t24.5 88.5q0 58 -25 87.5t-65 29.5
t-65 -29.5t-25 -87.5z" />
    <glyph glyph-name="divide" unicode="&#xf7;" horiz-adv-x="599" 
d="M384 533q0 -38 -25 -59.5t-60 -21.5q-25 0 -46 12t-30 31.5t-9 37.5t9 37t30.5 31.5t45.5 12.5q25 0 46.5 -12.5t30 -31.5t8.5 -37zM132 394h334q43 0 61 -18t18 -59t-18 -59.5t-61 -18.5h-334q-43 0 -61.5 18.5t-18.5 59.5t18 59t62 18zM384 95q0 -18 -8.5 -37.5
t-30 -32t-46.5 -12.5q-24 0 -45.5 12.5t-30.5 32t-9 37.5t9 37.5t30 31.5t46 12q35 0 60 -21.5t25 -59.5z" />
    <glyph glyph-name="oslash" unicode="&#xf8;" horiz-adv-x="569" 
d="M423 492l30 37q12 15 23.5 18t26.5 -10q12 -9 15.5 -20t-11.5 -30l-30 -38q70 -73 70 -190q0 -50 -15.5 -98.5t-50.5 -85.5t-85.5 -59t-110.5 -22q-34 0 -72.5 9.5t-67.5 26.5l-22 -28q-12 -15 -23.5 -17.5t-26.5 9.5q-8 6 -12.5 13.5t-2 16.5t11.5 21l21 26
q-69 71 -69 188q0 50 15.5 99t50.5 87t86 61t111 23q33 0 70.5 -10t67.5 -27zM194 262q0 -31 6 -52l126 159q-20 10 -42 10q-40 0 -65 -29.5t-25 -87.5zM368 312l-126 -159q7 -3 20.5 -6t21.5 -3q41 0 65.5 29.5t24.5 88.5q0 29 -6 50z" />
    <glyph glyph-name="ugrave" unicode="&#xf9;" 
d="M350 572l-163 48q-19 7 -32 25.5t-13 63.5v4q0 23 9.5 35.5t25.5 12.5q15 0 41 -12l159 -81q39 -20 39 -59q0 -21 -12.5 -31t-29.5 -10q-13 0 -24 4zM122 522h8q24 0 43 -9.5t28.5 -34t9.5 -62.5v-164q0 -48 16 -76t50 -28q41 0 57.5 37t16.5 104v127q0 52 18 79t67 27h4
q50 0 67 -21t17 -72v-335q0 -52 -17.5 -73t-67.5 -21q-49 0 -68.5 20.5t-19.5 66.5v11q-15 -44 -56.5 -73.5t-108.5 -29.5q-30 0 -57 11.5t-48 35t-32.5 61.5t-11.5 87v239q0 49 19 71t66 22z" />
    <glyph glyph-name="uacute" unicode="&#xfa;" 
d="M223 576q-21 -6 -42 -6q-13 0 -23.5 9.5t-10.5 27.5v9q0 16 7.5 27.5t26.5 21.5l158 81q28 13 47 13q35 0 35 -50q0 -73 -35 -84zM122 522h8q24 0 43 -9.5t28.5 -34t9.5 -62.5v-164q0 -48 16 -76t50 -28q41 0 57.5 37t16.5 104v127q0 52 18 79t67 27h4q50 0 67 -21
t17 -72v-335q0 -52 -17.5 -73t-67.5 -21q-49 0 -68.5 20.5t-19.5 66.5v11q-15 -44 -56.5 -73.5t-108.5 -29.5q-30 0 -57 11.5t-48 35t-32.5 61.5t-11.5 87v239q0 49 19 71t66 22z" />
    <glyph glyph-name="ucircumflex" unicode="&#xfb;" 
d="M333 727l75 -52q27 -19 34 -28.5t7 -21.5q0 -26 -17 -40.5t-37 -14.5q-23 0 -38 9l-75 47l-75 -47q-15 -9 -38 -9q-14 0 -28 8t-20 21t-6 26q0 8 4.5 18.5t35.5 31.5l76 52q21 14 51 14t51 -14zM122 522h8q24 0 43 -9.5t28.5 -34t9.5 -62.5v-164q0 -48 16 -76t50 -28
q41 0 57.5 37t16.5 104v127q0 52 18 79t67 27h4q50 0 67 -21t17 -72v-335q0 -52 -17.5 -73t-67.5 -21q-49 0 -68.5 20.5t-19.5 66.5v11q-15 -44 -56.5 -73.5t-108.5 -29.5q-30 0 -57 11.5t-48 35t-32.5 61.5t-11.5 87v239q0 49 19 71t66 22z" />
    <glyph glyph-name="udieresis" unicode="&#xfc;" 
d="M247 639q0 -18 -7.5 -34.5t-25.5 -25.5t-39 -9q-30 0 -52 17t-22 52q0 17 8 34t26.5 26t39.5 9t39 -9t25.5 -26t7.5 -34zM462 639q0 -18 -7.5 -34.5t-25.5 -25.5t-39 -9q-30 0 -51.5 17t-21.5 52q0 17 7.5 34t26 26t39.5 9t39 -9t25.5 -26t7.5 -34zM122 522h8
q24 0 43 -9.5t28.5 -34t9.5 -62.5v-164q0 -48 16 -76t50 -28q41 0 57.5 37t16.5 104v127q0 52 18 79t67 27h4q50 0 67 -21t17 -72v-335q0 -52 -17.5 -73t-67.5 -21q-49 0 -68.5 20.5t-19.5 66.5v11q-15 -44 -56.5 -73.5t-108.5 -29.5q-30 0 -57 11.5t-48 35t-32.5 61.5
t-11.5 87v239q0 49 19 71t66 22z" />
    <glyph glyph-name="yacute" unicode="&#xfd;" horiz-adv-x="562" 
d="M220 562q-21 -6 -42 -6q-13 0 -23.5 9.5t-10.5 27.5v9q0 16 7.5 27.5t26.5 21.5l158 81q28 13 47 13q35 0 35 -50q0 -73 -35 -84zM87 522h33q64 0 78 -56l3 -12q2 -7 28.5 -118t51.5 -187q53 170 81 317q11 56 78 56h32q31 0 51.5 -12t20.5 -36q0 -7 -4 -21t-4 -16
q-66 -280 -190 -555q-22 -48 -43.5 -65.5t-45.5 -17.5h-46q-29 0 -46 15t-17 40q0 13 9 35.5t33 65t29 53.5h-1q-44 12 -77 74q-22 41 -50 111t-72 257q-4 16 -4 24q0 25 20.5 36.5t51.5 11.5z" />
    <glyph glyph-name="ydieresis" unicode="&#xff;" horiz-adv-x="563" 
d="M246 646q0 -18 -7.5 -34.5t-25.5 -25.5t-39 -9q-30 0 -52 17t-22 52q0 17 8 34t26.5 26t39.5 9t39 -9t25.5 -26t7.5 -34zM461 646q0 -18 -7.5 -34.5t-25.5 -25.5t-39 -9q-30 0 -51.5 17t-21.5 52q0 17 7.5 34t26 26t39.5 9t39 -9t25.5 -26t7.5 -34zM87 522h33
q64 0 78 -56l3 -12q2 -7 28.5 -118t51.5 -187q53 170 81 317q11 56 78 56h32q31 0 51.5 -12t20.5 -36q0 -7 -4 -21t-4 -16q-66 -280 -190 -555q-22 -48 -43.5 -65.5t-45.5 -17.5h-46q-29 0 -46 15t-17 40q0 13 9 35.5t33 65t29 53.5h-1q-44 12 -77 74q-22 41 -50 111
t-72 257q-4 16 -4 24q0 25 20.5 36.5t51.5 11.5z" />
    <glyph glyph-name="Amacron" unicode="&#x100;" horiz-adv-x="692" 
d="M215 816h259q61 0 61 -57t-61 -57h-259q-30 0 -45 13.5t-15 43.5t15 43.5t45 13.5zM335 674h22q28 0 58.5 -10t55 -36t36.5 -61q94 -277 139 -454q9 -39 9 -50q0 -63 -84 -63h-26q-39 0 -60.5 16t-31 44.5t-23.5 98.5h-168q-15 -74 -26 -102.5t-31.5 -42.5t-57.5 -14h-26
q-84 0 -84 57q0 22 9 56q58 229 139 454q20 55 60 81t90 26zM284 297h124q-26 124 -62 211q-31 -67 -62 -211z" />
    <glyph glyph-name="amacron" unicode="&#x101;" horiz-adv-x="544" 
d="M141 683h259q61 0 61 -57t-61 -57h-259q-30 0 -45 13.5t-15 43.5t15 43.5t45 13.5zM488 306v-122q0 -48 11.5 -76t29.5 -35q-3 -20 -16.5 -39.5t-36.5 -28.5t-46 -9q-72 0 -94 75l-2 1q-12 -28 -41.5 -48t-56 -24.5t-41.5 -4.5q-54 0 -93 21.5t-59.5 56t-20.5 81.5
q0 48 24 84t69.5 58t106.5 22q7 0 24.5 -1t25 -2t59.5 -12v12q0 15 -9.5 30.5t-35 24t-59.5 8.5q-78 0 -128 -36q-47 20 -47 76q0 47 55.5 78.5t149.5 31.5q78 0 128 -24t76.5 -72t26.5 -126zM181 170q0 -23 19.5 -37t48.5 -14q17 0 36.5 8.5t32.5 29t13 43.5v9
q-30 15 -75 15q-31 0 -53 -14t-22 -40z" />
    <glyph glyph-name="Abreve" unicode="&#x102;" horiz-adv-x="692" 
d="M460 872q18 0 30.5 -10.5t12.5 -28.5q0 -27 -26 -58t-62.5 -44.5t-70.5 -13.5q-33 0 -69 14t-63 44t-27 57q0 17 12.5 28.5t30.5 11.5q17 0 38 -17t29.5 -23t22 -10t26.5 -4q10 0 22.5 2.5t23 9t32.5 24.5t38 18zM335 674h22q28 0 58.5 -10t55 -36t36.5 -61
q94 -277 139 -454q9 -39 9 -50q0 -63 -84 -63h-26q-39 0 -60.5 16t-31 44.5t-23.5 98.5h-168q-15 -74 -26 -102.5t-31.5 -42.5t-57.5 -14h-26q-84 0 -84 57q0 22 9 56q58 229 139 454q20 55 60 81t90 26zM284 297h124q-26 124 -62 211q-31 -67 -62 -211z" />
    <glyph glyph-name="abreve" unicode="&#x103;" horiz-adv-x="544" 
d="M386 716q18 0 30.5 -10.5t12.5 -28.5q0 -27 -26 -58t-62.5 -44.5t-70.5 -13.5q-33 0 -69 14t-63 44t-27 57q0 17 12.5 28.5t30.5 11.5q17 0 38 -17t29.5 -23t22 -10t26.5 -4q10 0 22.5 2.5t23 9t32.5 24.5t38 18zM488 306v-122q0 -48 11.5 -76t29.5 -35
q-3 -20 -16.5 -39.5t-36.5 -28.5t-46 -9q-72 0 -94 75l-2 1q-12 -28 -41.5 -48t-56 -24.5t-41.5 -4.5q-54 0 -93 21.5t-59.5 56t-20.5 81.5q0 48 24 84t69.5 58t106.5 22q7 0 24.5 -1t25 -2t59.5 -12v12q0 15 -9.5 30.5t-35 24t-59.5 8.5q-78 0 -128 -36q-47 20 -47 76
q0 47 55.5 78.5t149.5 31.5q78 0 128 -24t76.5 -72t26.5 -126zM181 170q0 -23 19.5 -37t48.5 -14q17 0 36.5 8.5t32.5 29t13 43.5v9q-30 15 -75 15q-31 0 -53 -14t-22 -40z" />
    <glyph glyph-name="Aogonek" unicode="&#x104;" horiz-adv-x="691" 
d="M335 674h22q28 0 58.5 -10t55 -36t36.5 -61q94 -277 139 -454q9 -39 9 -50q0 -15 -6.5 -29.5t-24 -23.5t-42.5 -10v-2q-13 0 -24.5 -6t-11.5 -18q0 -11 12 -20t32 -9q15 0 25.5 5t12.5 12q12 -3 22 -14.5t10 -30.5q0 -28 -26.5 -47.5t-68.5 -19.5q-36 0 -60.5 13
t-38.5 35.5t-14 48.5q0 20 9 38t23 30q-11 8 -21 24.5t-16 40t-17 79.5h-168q-15 -74 -26 -102.5t-31.5 -42.5t-57.5 -14h-26q-84 0 -84 57q0 22 9 56q58 229 139 454q20 55 60 81t90 26zM284 297h124q-26 124 -62 211q-31 -67 -62 -211z" />
    <glyph glyph-name="aogonek" unicode="&#x105;" horiz-adv-x="544" 
d="M488 306v-122q0 -48 11.5 -76t29.5 -35q-3 -20 -16.5 -39.5t-36.5 -28.5t-46 -9h-1q-7 -2 -11.5 -8t-4.5 -13q0 -11 12 -20t32 -9q15 0 25.5 5t12.5 12q12 -3 22 -14.5t10 -30.5q0 -28 -26.5 -47.5t-68.5 -19.5q-36 0 -60.5 13t-38.5 35.5t-14 48.5q0 49 42 75
q-16 17 -25 48l-2 1q-12 -28 -41.5 -48t-56 -24.5t-41.5 -4.5q-54 0 -93 21.5t-59.5 56t-20.5 81.5q0 48 24 84t69.5 58t106.5 22q7 0 24.5 -1t25 -2t59.5 -12v12q0 15 -9.5 30.5t-35 24t-59.5 8.5q-78 0 -128 -36q-47 20 -47 76q0 47 55.5 78.5t149.5 31.5q78 0 128 -24
t76.5 -72t26.5 -126zM181 170q0 -23 19.5 -37t48.5 -14q17 0 36.5 8.5t32.5 29t13 43.5v9q-30 15 -75 15q-31 0 -53 -14t-22 -40z" />
    <glyph glyph-name="Cacute" unicode="&#x106;" horiz-adv-x="665" 
d="M276 729q-21 -6 -42 -6q-13 0 -23.5 9.5t-10.5 27.5v9q0 16 7.5 27.5t26.5 21.5l158 81q28 13 47 13q35 0 35 -50q0 -73 -35 -84zM607 527q0 -36 -26.5 -61t-76.5 -29q-13 34 -47 52t-82 18q-68 0 -108 -47t-40 -126q0 -80 41 -125t107 -45q47 0 80.5 19t52.5 51
q29 -3 55.5 -18t37.5 -36.5t11 -40.5q0 -22 -11.5 -47t-40 -47.5t-75.5 -38t-110 -15.5q-67 0 -128 20.5t-108.5 63t-75 108.5t-27.5 151t26.5 151.5t72.5 110t107 65t128 21.5q53 0 92.5 -10.5t69 -27.5t52.5 -47.5t23 -69.5z" />
    <glyph glyph-name="cacute" unicode="&#x107;" horiz-adv-x="505" 
d="M192 555q-21 -6 -42 -6q-13 0 -23.5 9.5t-10.5 27.5v9q0 16 7.5 27.5t26.5 21.5l158 81q28 13 47 13q35 0 35 -50q0 -73 -35 -84zM476 406q0 -32 -25.5 -53.5t-65.5 -21.5q-12 18 -33.5 29.5t-52.5 11.5q-49 0 -77.5 -30t-28.5 -84q0 -26 9.5 -53t35.5 -44t61 -17
q66 0 97 38q36 -1 60.5 -23t24.5 -52q0 -49 -53 -82.5t-134 -33.5q-52 0 -100.5 15.5t-87.5 48.5t-61.5 84.5t-22.5 118.5q0 68 22 120.5t60 86.5t86 50.5t99 16.5q57 0 101.5 -17.5t65 -48t20.5 -60.5z" />
    <glyph glyph-name="Ccircumflex" unicode="&#x108;" horiz-adv-x="665" 
d="M388 880l75 -52q27 -19 34 -28.5t7 -21.5q0 -26 -17 -40.5t-37 -14.5q-23 0 -38 9l-75 47l-75 -47q-15 -9 -38 -9q-14 0 -28 8t-20 21t-6 26q0 8 4.5 18.5t35.5 31.5l76 52q21 14 51 14t51 -14zM607 527q0 -36 -26.5 -61t-76.5 -29q-13 34 -47 52t-82 18q-68 0 -108 -47
t-40 -126q0 -80 41 -125t107 -45q47 0 80.5 19t52.5 51q29 -3 55.5 -18t37.5 -36.5t11 -40.5q0 -22 -11.5 -47t-40 -47.5t-75.5 -38t-110 -15.5q-67 0 -128 20.5t-108.5 63t-75 108.5t-27.5 151t26.5 151.5t72.5 110t107 65t128 21.5q53 0 92.5 -10.5t69 -27.5t52.5 -47.5
t23 -69.5z" />
    <glyph glyph-name="ccircumflex" unicode="&#x109;" horiz-adv-x="505" 
d="M332 720l75 -52q27 -19 34 -28.5t7 -21.5q0 -26 -17 -40.5t-37 -14.5q-23 0 -38 9l-75 47l-75 -47q-15 -9 -38 -9q-14 0 -28 8t-20 21t-6 26q0 8 4.5 18.5t35.5 31.5l76 52q21 14 51 14t51 -14zM476 406q0 -32 -25.5 -53.5t-65.5 -21.5q-12 18 -33.5 29.5t-52.5 11.5
q-49 0 -77.5 -30t-28.5 -84q0 -26 9.5 -53t35.5 -44t61 -17q66 0 97 38q36 -1 60.5 -23t24.5 -52q0 -49 -53 -82.5t-134 -33.5q-52 0 -100.5 15.5t-87.5 48.5t-61.5 84.5t-22.5 118.5q0 68 22 120.5t60 86.5t86 50.5t99 16.5q57 0 101.5 -17.5t65 -48t20.5 -60.5z" />
    <glyph glyph-name="Cdotaccent" unicode="&#x10a;" horiz-adv-x="665" 
d="M336 896q38 0 63.5 -23t25.5 -63t-25.5 -63.5t-63.5 -23.5t-63.5 23.5t-25.5 63.5t25.5 63t63.5 23zM607 527q0 -36 -26.5 -61t-76.5 -29q-13 34 -47 52t-82 18q-68 0 -108 -47t-40 -126q0 -80 41 -125t107 -45q47 0 80.5 19t52.5 51q29 -3 55.5 -18t37.5 -36.5t11 -40.5
q0 -22 -11.5 -47t-40 -47.5t-75.5 -38t-110 -15.5q-67 0 -128 20.5t-108.5 63t-75 108.5t-27.5 151t26.5 151.5t72.5 110t107 65t128 21.5q53 0 92.5 -10.5t69 -27.5t52.5 -47.5t23 -69.5z" />
    <glyph glyph-name="cdotaccent" unicode="&#x10b;" horiz-adv-x="505" 
d="M280 741q38 0 63.5 -23t25.5 -63t-25.5 -63.5t-63.5 -23.5t-63.5 23.5t-25.5 63.5t25.5 63t63.5 23zM476 406q0 -32 -25.5 -53.5t-65.5 -21.5q-12 18 -33.5 29.5t-52.5 11.5q-49 0 -77.5 -30t-28.5 -84q0 -26 9.5 -53t35.5 -44t61 -17q66 0 97 38q36 -1 60.5 -23
t24.5 -52q0 -49 -53 -82.5t-134 -33.5q-52 0 -100.5 15.5t-87.5 48.5t-61.5 84.5t-22.5 118.5q0 68 22 120.5t60 86.5t86 50.5t99 16.5q57 0 101.5 -17.5t65 -48t20.5 -60.5z" />
    <glyph glyph-name="Ccaron" unicode="&#x10c;" horiz-adv-x="665" 
d="M262 884l75 -47l75 47q15 10 38 10q20 0 37 -14.5t17 -41.5q0 -7 -4.5 -17.5t-36.5 -32.5l-75 -52q-19 -13 -51 -13q-30 0 -51 14l-76 51q-18 12 -29 23.5t-11 26.5q0 26 17 41t37 15q23 0 38 -10zM607 527q0 -36 -26.5 -61t-76.5 -29q-13 34 -47 52t-82 18
q-68 0 -108 -47t-40 -126q0 -80 41 -125t107 -45q47 0 80.5 19t52.5 51q29 -3 55.5 -18t37.5 -36.5t11 -40.5q0 -22 -11.5 -47t-40 -47.5t-75.5 -38t-110 -15.5q-67 0 -128 20.5t-108.5 63t-75 108.5t-27.5 151t26.5 151.5t72.5 110t107 65t128 21.5q53 0 92.5 -10.5
t69 -27.5t52.5 -47.5t23 -69.5z" />
    <glyph glyph-name="ccaron" unicode="&#x10d;" horiz-adv-x="505" 
d="M206 731l75 -47l75 47q15 10 38 10q20 0 37 -14.5t17 -41.5q0 -7 -4.5 -17.5t-36.5 -32.5l-75 -52q-19 -13 -51 -13q-30 0 -51 14l-76 51q-18 12 -29 23.5t-11 26.5q0 26 17 41t37 15q23 0 38 -10zM476 406q0 -32 -25.5 -53.5t-65.5 -21.5q-12 18 -33.5 29.5t-52.5 11.5
q-49 0 -77.5 -30t-28.5 -84q0 -26 9.5 -53t35.5 -44t61 -17q66 0 97 38q36 -1 60.5 -23t24.5 -52q0 -49 -53 -82.5t-134 -33.5q-52 0 -100.5 15.5t-87.5 48.5t-61.5 84.5t-22.5 118.5q0 68 22 120.5t60 86.5t86 50.5t99 16.5q57 0 101.5 -17.5t65 -48t20.5 -60.5z" />
    <glyph glyph-name="Dcaron" unicode="&#x10e;" horiz-adv-x="694" 
d="M241 884l75 -47l75 47q15 10 38 10q20 0 37 -14.5t17 -41.5q0 -7 -4.5 -17.5t-36.5 -32.5l-75 -52q-19 -13 -51 -13q-30 0 -51 14l-76 51q-18 12 -29 23.5t-11 26.5q0 26 17 41t37 15q23 0 38 -10zM149 673h163q169 0 258 -85t89 -250q0 -166 -89.5 -252t-257.5 -86h-163
q-45 0 -64.5 18.5t-19.5 60.5v514q0 42 20 61t64 19zM250 169h84q66 0 106 44.5t40 122.5q0 79 -40 123.5t-106 44.5h-84v-335z" />
    <glyph glyph-name="dcaron" unicode="&#x10f;" horiz-adv-x="798" 
d="M462 720h4q44 0 64 -20t20 -60v-562q0 -42 -19.5 -60t-64.5 -18h-6q-40 0 -61 16.5t-21 41.5v18q-12 -23 -35 -43t-51 -28.5t-52 -8.5q-69 0 -115 31.5t-70.5 89.5t-24.5 144q0 51 10.5 99.5t36 85.5t66 58.5t97.5 21.5q43 0 81.5 -19t55.5 -46v179q0 42 20 61t65 19z
M585 438q39 13 63.5 39t24.5 58q-33 -5 -57 8q-14 8 -25 23.5t-11 38.5q0 19 9 41t32.5 38t54.5 16q21 0 46.5 -11.5t44 -42t18.5 -69.5q0 -28 -8 -59t-27 -58t-47.5 -46t-63.5 -19q-28 0 -41 13t-13 30zM209 260q0 -55 21.5 -84.5t63.5 -29.5q18 0 37 11t31.5 39.5
t12.5 66.5v16q0 24 -8 48t-28 37.5t-44 13.5q-17 0 -37 -8t-34.5 -34.5t-14.5 -75.5z" />
    <glyph glyph-name="Dcroat" unicode="&#x110;" horiz-adv-x="693" 
d="M65 388v205q0 42 20 61t64 19h163q169 0 258 -85t89 -250q0 -166 -89.5 -252t-257.5 -86h-163q-45 0 -64.5 18.5t-19.5 60.5v195h-17q-30 0 -45 13.5t-15 43.5t15 43.5t45 13.5h17zM250 388h57q61 0 61 -57t-61 -57h-57v-105h84q66 0 106 44.5t40 122.5q0 79 -40 123.5
t-106 44.5h-84v-116z" />
    <glyph glyph-name="dcroat" unicode="&#x111;" horiz-adv-x="620" 
d="M462 720h4q44 0 64 -20t20 -60v-5q30 0 45 -13.5t15 -43.5q0 -55 -60 -55v-445q0 -42 -19.5 -60t-64.5 -18h-6q-40 0 -61 16.5t-21 41.5v18q-12 -23 -35 -43t-51 -28.5t-52 -8.5q-69 0 -115 31.5t-70.5 89.5t-24.5 144q0 51 10.5 99.5t36 85.5t66 58.5t97.5 21.5
q43 0 81.5 -19t55.5 -46v62h-37q-61 0 -61 55q0 57 61 57h37v5q0 42 20 61t65 19zM209 260q0 -55 21.5 -84.5t63.5 -29.5q18 0 37 11t31.5 39.5t12.5 66.5v16q0 24 -8 48t-28 37.5t-44 13.5q-17 0 -37 -8t-34.5 -34.5t-14.5 -75.5z" />
    <glyph glyph-name="Emacron" unicode="&#x112;" horiz-adv-x="578" 
d="M159 830h259q61 0 61 -57t-61 -57h-259q-30 0 -45 13.5t-15 43.5t15 43.5t45 13.5zM150 673h314q36 0 56.5 -21t20.5 -62t-21 -62t-56 -21h-213v-99h165q38 0 54.5 -12.5t19.5 -29.5t3 -25q0 -28 -15 -47.5t-62 -19.5h-165v-109h220q36 0 56.5 -20.5t20.5 -61.5t-21 -62
t-56 -21h-321q-46 0 -65.5 18.5t-19.5 60.5v513q0 42 20 61.5t65 19.5z" />
    <glyph glyph-name="emacron" unicode="&#x113;" horiz-adv-x="516" 
d="M134 683h259q61 0 61 -57t-61 -57h-259q-30 0 -45 13.5t-15 43.5t15 43.5t45 13.5zM493 351q0 -28 -9.5 -55.5t-32.5 -49t-59 -34.5t-84 -13q-36 0 -71.5 6.5t-57.5 16.5q0 -41 40.5 -65t98.5 -24q77 0 120 41q19 -7 32.5 -28t13.5 -44q0 -20 -11.5 -39.5t-40 -36.5
t-68.5 -25.5t-71 -8.5q-59 0 -108.5 16t-86 49t-56.5 83t-20 114q0 65 20 116.5t55.5 86.5t83.5 53t103 18q36 0 73 -9.5t67 -31.5t49.5 -56.5t19.5 -79.5zM191 312q12 -9 43 -14.5t56 -5.5q29 0 45.5 13t16.5 36q0 22 -21.5 37t-54.5 15q-32 0 -57 -22.5t-28 -58.5z" />
    <glyph glyph-name="Ebreve" unicode="&#x114;" horiz-adv-x="578" 
d="M404 866q18 0 30.5 -10.5t12.5 -28.5q0 -27 -26 -58t-62.5 -44.5t-70.5 -13.5q-33 0 -69 14t-63 44t-27 57q0 17 12.5 28.5t30.5 11.5q17 0 38 -17t29.5 -23t22 -10t26.5 -4q10 0 22.5 2.5t23 9t32.5 24.5t38 18zM150 673h314q36 0 56.5 -21t20.5 -62t-21 -62t-56 -21
h-213v-99h165q38 0 54.5 -12.5t19.5 -29.5t3 -25q0 -28 -15 -47.5t-62 -19.5h-165v-109h220q36 0 56.5 -20.5t20.5 -61.5t-21 -62t-56 -21h-321q-46 0 -65.5 18.5t-19.5 60.5v513q0 42 20 61.5t65 19.5z" />
    <glyph glyph-name="ebreve" unicode="&#x115;" horiz-adv-x="516" 
d="M380 726q18 0 30.5 -10.5t12.5 -28.5q0 -27 -26 -58t-62.5 -44.5t-70.5 -13.5q-33 0 -69 14t-63 44t-27 57q0 17 12.5 28.5t30.5 11.5q17 0 38 -17t29.5 -23t22 -10t26.5 -4q10 0 22.5 2.5t23 9t32.5 24.5t38 18zM493 351q0 -28 -9.5 -55.5t-32.5 -49t-59 -34.5t-84 -13
q-36 0 -71.5 6.5t-57.5 16.5q0 -41 40.5 -65t98.5 -24q77 0 120 41q19 -7 32.5 -28t13.5 -44q0 -20 -11.5 -39.5t-40 -36.5t-68.5 -25.5t-71 -8.5q-59 0 -108.5 16t-86 49t-56.5 83t-20 114q0 65 20 116.5t55.5 86.5t83.5 53t103 18q36 0 73 -9.5t67 -31.5t49.5 -56.5
t19.5 -79.5zM191 312q12 -9 43 -14.5t56 -5.5q29 0 45.5 13t16.5 36q0 22 -21.5 37t-54.5 15q-32 0 -57 -22.5t-28 -58.5z" />
    <glyph glyph-name="Edotaccent" unicode="&#x116;" horiz-adv-x="578" 
d="M288 876q38 0 63.5 -23t25.5 -63t-25.5 -63.5t-63.5 -23.5t-63.5 23.5t-25.5 63.5t25.5 63t63.5 23zM150 673h314q36 0 56.5 -21t20.5 -62t-21 -62t-56 -21h-213v-99h165q38 0 54.5 -12.5t19.5 -29.5t3 -25q0 -28 -15 -47.5t-62 -19.5h-165v-109h220q36 0 56.5 -20.5
t20.5 -61.5t-21 -62t-56 -21h-321q-46 0 -65.5 18.5t-19.5 60.5v513q0 42 20 61.5t65 19.5z" />
    <glyph glyph-name="edotaccent" unicode="&#x117;" horiz-adv-x="516" 
d="M271 743q38 0 63.5 -23t25.5 -63t-25.5 -63.5t-63.5 -23.5t-63.5 23.5t-25.5 63.5t25.5 63t63.5 23zM493 351q0 -28 -9.5 -55.5t-32.5 -49t-59 -34.5t-84 -13q-36 0 -71.5 6.5t-57.5 16.5q0 -41 40.5 -65t98.5 -24q77 0 120 41q19 -7 32.5 -28t13.5 -44
q0 -20 -11.5 -39.5t-40 -36.5t-68.5 -25.5t-71 -8.5q-59 0 -108.5 16t-86 49t-56.5 83t-20 114q0 65 20 116.5t55.5 86.5t83.5 53t103 18q36 0 73 -9.5t67 -31.5t49.5 -56.5t19.5 -79.5zM191 312q12 -9 43 -14.5t56 -5.5q29 0 45.5 13t16.5 36q0 22 -21.5 37t-54.5 15
q-32 0 -57 -22.5t-28 -58.5z" />
    <glyph glyph-name="Eogonek" unicode="&#x118;" horiz-adv-x="579" 
d="M153 673h314q36 0 56.5 -21t20.5 -62t-21 -62t-56 -21h-213v-99h165q38 0 54.5 -12.5t19.5 -29.5t3 -25q0 -28 -15 -47.5t-62 -19.5h-165v-109h220q36 0 56.5 -20.5t20.5 -61.5q0 -40 -19.5 -61t-52.5 -22h-6q-12 -1 -21 -7t-9 -17t12 -20t32 -9q15 0 25.5 5t12.5 12
q12 -3 22 -14.5t10 -30.5q0 -28 -26.5 -47.5t-68.5 -19.5q-36 0 -60.5 13t-38.5 35.5t-14 48.5q0 30 15 51h-211q-46 0 -65.5 18.5t-19.5 60.5v513q0 42 20 61.5t65 19.5z" />
    <glyph glyph-name="eogonek" unicode="&#x119;" horiz-adv-x="516" 
d="M438 174q19 -7 32.5 -28t13.5 -44q0 -18 -11 -38t-38.5 -36.5t-62.5 -25.5q-2 0 -12 -2.5t-17 -7.5t-7 -16t12 -20t32 -9q15 0 25.5 5t12.5 12q12 -3 22 -14.5t10 -30.5q0 -28 -26.5 -47.5t-68.5 -19.5q-36 0 -60.5 13t-38.5 35.5t-14 48.5t12 45q-51 5 -94 23.5
t-73.5 51t-47.5 79.5t-17 106q0 65 20 116.5t55.5 86.5t83.5 53t103 18q36 0 73 -9.5t67 -31.5t49.5 -56.5t19.5 -79.5q0 -28 -9.5 -55.5t-32.5 -49t-59 -34.5t-84 -13q-36 0 -71.5 6.5t-57.5 16.5q0 -41 40.5 -65t98.5 -24q77 0 120 41zM276 393q-32 0 -57 -22.5t-28 -58.5
q12 -9 43 -14.5t56 -5.5q29 0 45.5 13t16.5 36q0 22 -21.5 37t-54.5 15z" />
    <glyph glyph-name="Ecaron" unicode="&#x11a;" horiz-adv-x="575" 
d="M216 884l75 -47l75 47q15 10 38 10q20 0 37 -14.5t17 -41.5q0 -7 -4.5 -17.5t-36.5 -32.5l-75 -52q-19 -13 -51 -13q-30 0 -51 14l-76 51q-18 12 -29 23.5t-11 26.5q0 26 17 41t37 15q23 0 38 -10zM150 673h314q36 0 56.5 -21t20.5 -62t-21 -62t-56 -21h-213v-99h165
q38 0 54.5 -12.5t19.5 -29.5t3 -25q0 -28 -15 -47.5t-62 -19.5h-165v-109h220q36 0 56.5 -20.5t20.5 -61.5t-21 -62t-56 -21h-321q-46 0 -65.5 18.5t-19.5 60.5v513q0 42 20 61.5t65 19.5z" />
    <glyph glyph-name="ecaron" unicode="&#x11b;" horiz-adv-x="516" 
d="M197 727l75 -47l75 47q15 10 38 10q20 0 37 -14.5t17 -41.5q0 -7 -4.5 -17.5t-36.5 -32.5l-75 -52q-19 -13 -51 -13q-30 0 -51 14l-76 51q-18 12 -29 23.5t-11 26.5q0 26 17 41t37 15q23 0 38 -10zM493 351q0 -28 -9.5 -55.5t-32.5 -49t-59 -34.5t-84 -13
q-36 0 -71.5 6.5t-57.5 16.5q0 -41 40.5 -65t98.5 -24q77 0 120 41q19 -7 32.5 -28t13.5 -44q0 -20 -11.5 -39.5t-40 -36.5t-68.5 -25.5t-71 -8.5q-59 0 -108.5 16t-86 49t-56.5 83t-20 114q0 65 20 116.5t55.5 86.5t83.5 53t103 18q36 0 73 -9.5t67 -31.5t49.5 -56.5
t19.5 -79.5zM191 312q12 -9 43 -14.5t56 -5.5q29 0 45.5 13t16.5 36q0 22 -21.5 37t-54.5 15q-32 0 -57 -22.5t-28 -58.5z" />
    <glyph glyph-name="Gcircumflex" unicode="&#x11c;" horiz-adv-x="683" 
d="M392 885l75 -52q27 -19 34 -28.5t7 -21.5q0 -26 -17 -40.5t-37 -14.5q-23 0 -38 9l-75 47l-75 -47q-15 -9 -38 -9q-14 0 -28 8t-20 21t-6 26q0 8 4.5 18.5t35.5 31.5l76 52q21 14 51 14t51 -14zM601 534q0 -32 -23 -56t-63 -29q-30 35 -65.5 46t-80.5 11
q-67 0 -108.5 -45.5t-41.5 -126.5q0 -83 41.5 -126.5t110.5 -43.5q26 0 53.5 10t44.5 32.5t17 45.5q0 10 -12 10h-57q-28 0 -44.5 17t-16.5 46q0 28 16.5 44.5t44.5 16.5h163q30 0 52.5 -21t22.5 -51v-45q0 -49 -18 -98t-54.5 -90t-93.5 -65.5t-129 -24.5q-62 0 -121 19.5
t-106.5 61t-76 108.5t-28.5 156q0 67 17 123t46.5 96t67.5 66.5t81.5 41t75.5 17t43 2.5q66 0 124.5 -18t88 -53.5t29.5 -76.5z" />
    <glyph glyph-name="gcircumflex" unicode="&#x11d;" horiz-adv-x="550" 
d="M287 706l75 -52q27 -19 34 -28.5t7 -21.5q0 -26 -17 -40.5t-37 -14.5q-23 0 -38 9l-75 47l-75 -47q-15 -9 -38 -9q-14 0 -28 8t-20 21t-6 26q0 8 4.5 18.5t35.5 31.5l76 52q21 14 51 14t51 -14zM529 511q0 -14 -7.5 -30.5t-24.5 -31t-36 -23.5q12 -12 19.5 -34t7.5 -50
q0 -48 -19.5 -83.5t-48 -54.5t-66.5 -31t-92 -12l-13 1q-17 0 -32.5 -5.5t-15.5 -13.5q0 -7 9.5 -12.5t24.5 -5.5h83q76 0 121 -15.5t67 -46.5t22 -79q0 -30 -13.5 -62.5t-46 -60t-84.5 -46t-120 -18.5h-19q-59 0 -115 14t-86.5 43.5t-30.5 65.5q0 43 32 62t96 19l-1 -12
q0 -66 121 -66h3q57 0 85.5 9.5t28.5 30.5q0 34 -68 34q-105 0 -160.5 9t-84 31.5t-28.5 62.5q0 65 90 90q-45 21 -68.5 61.5t-23.5 92.5q0 32 12.5 65t41 59.5t73.5 43t102 16.5q65 0 123 -35q14 16 25 46t14 54q48 0 75.5 -22t27.5 -60zM193 339q0 -35 20 -53.5t49 -18.5
t49 18.5t20 53.5q0 36 -20 54t-49 18t-49 -18t-20 -54z" />
    <glyph glyph-name="Gbreve" unicode="&#x11e;" horiz-adv-x="683" 
d="M456 877q18 0 30.5 -10.5t12.5 -28.5q0 -27 -26 -58t-62.5 -44.5t-70.5 -13.5q-33 0 -69 14t-63 44t-27 57q0 17 12.5 28.5t30.5 11.5q17 0 38 -17t29.5 -23t22 -10t26.5 -4q10 0 22.5 2.5t23 9t32.5 24.5t38 18zM601 534q0 -32 -23 -56t-63 -29q-30 35 -65.5 46
t-80.5 11q-67 0 -108.5 -45.5t-41.5 -126.5q0 -83 41.5 -126.5t110.5 -43.5q26 0 53.5 10t44.5 32.5t17 45.5q0 10 -12 10h-57q-28 0 -44.5 17t-16.5 46q0 28 16.5 44.5t44.5 16.5h163q30 0 52.5 -21t22.5 -51v-45q0 -49 -18 -98t-54.5 -90t-93.5 -65.5t-129 -24.5
q-62 0 -121 19.5t-106.5 61t-76 108.5t-28.5 156q0 67 17 123t46.5 96t67.5 66.5t81.5 41t75.5 17t43 2.5q66 0 124.5 -18t88 -53.5t29.5 -76.5z" />
    <glyph glyph-name="gbreve" unicode="&#x11f;" horiz-adv-x="550" 
d="M387 712q18 0 30.5 -10.5t12.5 -28.5q0 -27 -26 -58t-62.5 -44.5t-70.5 -13.5q-33 0 -69 14t-63 44t-27 57q0 17 12.5 28.5t30.5 11.5q17 0 38 -17t29.5 -23t22 -10t26.5 -4q10 0 22.5 2.5t23 9t32.5 24.5t38 18zM529 511q0 -14 -7.5 -30.5t-24.5 -31t-36 -23.5
q12 -12 19.5 -34t7.5 -50q0 -48 -19.5 -83.5t-48 -54.5t-66.5 -31t-92 -12l-13 1q-17 0 -32.5 -5.5t-15.5 -13.5q0 -7 9.5 -12.5t24.5 -5.5h83q76 0 121 -15.5t67 -46.5t22 -79q0 -30 -13.5 -62.5t-46 -60t-84.5 -46t-120 -18.5h-19q-59 0 -115 14t-86.5 43.5t-30.5 65.5
q0 43 32 62t96 19l-1 -12q0 -66 121 -66h3q57 0 85.5 9.5t28.5 30.5q0 34 -68 34q-105 0 -160.5 9t-84 31.5t-28.5 62.5q0 65 90 90q-45 21 -68.5 61.5t-23.5 92.5q0 32 12.5 65t41 59.5t73.5 43t102 16.5q65 0 123 -35q14 16 25 46t14 54q48 0 75.5 -22t27.5 -60zM193 339
q0 -35 20 -53.5t49 -18.5t49 18.5t20 53.5q0 36 -20 54t-49 18t-49 -18t-20 -54z" />
    <glyph glyph-name="Gdotaccent" unicode="&#x120;" horiz-adv-x="683" 
d="M360 894q38 0 63.5 -23t25.5 -63t-25.5 -63.5t-63.5 -23.5t-63.5 23.5t-25.5 63.5t25.5 63t63.5 23zM601 534q0 -32 -23 -56t-63 -29q-30 35 -65.5 46t-80.5 11q-67 0 -108.5 -45.5t-41.5 -126.5q0 -83 41.5 -126.5t110.5 -43.5q26 0 53.5 10t44.5 32.5t17 45.5
q0 10 -12 10h-57q-28 0 -44.5 17t-16.5 46q0 28 16.5 44.5t44.5 16.5h163q30 0 52.5 -21t22.5 -51v-45q0 -49 -18 -98t-54.5 -90t-93.5 -65.5t-129 -24.5q-62 0 -121 19.5t-106.5 61t-76 108.5t-28.5 156q0 67 17 123t46.5 96t67.5 66.5t81.5 41t75.5 17t43 2.5
q66 0 124.5 -18t88 -53.5t29.5 -76.5z" />
    <glyph glyph-name="gdotaccent" unicode="&#x121;" horiz-adv-x="550" 
d="M274 729q38 0 63.5 -23t25.5 -63t-25.5 -63.5t-63.5 -23.5t-63.5 23.5t-25.5 63.5t25.5 63t63.5 23zM529 511q0 -14 -7.5 -30.5t-24.5 -31t-36 -23.5q12 -12 19.5 -34t7.5 -50q0 -48 -19.5 -83.5t-48 -54.5t-66.5 -31t-92 -12l-13 1q-17 0 -32.5 -5.5t-15.5 -13.5
q0 -7 9.5 -12.5t24.5 -5.5h83q76 0 121 -15.5t67 -46.5t22 -79q0 -30 -13.5 -62.5t-46 -60t-84.5 -46t-120 -18.5h-19q-59 0 -115 14t-86.5 43.5t-30.5 65.5q0 43 32 62t96 19l-1 -12q0 -66 121 -66h3q57 0 85.5 9.5t28.5 30.5q0 34 -68 34q-105 0 -160.5 9t-84 31.5
t-28.5 62.5q0 65 90 90q-45 21 -68.5 61.5t-23.5 92.5q0 32 12.5 65t41 59.5t73.5 43t102 16.5q65 0 123 -35q14 16 25 46t14 54q48 0 75.5 -22t27.5 -60zM193 339q0 -35 20 -53.5t49 -18.5t49 18.5t20 53.5q0 36 -20 54t-49 18t-49 -18t-20 -54z" />
    <glyph glyph-name="Gcommaaccent" unicode="&#x122;" horiz-adv-x="683" 
d="M601 534q0 -32 -23 -56t-63 -29q-30 35 -65.5 46t-80.5 11q-67 0 -108.5 -45.5t-41.5 -126.5q0 -83 41.5 -126.5t110.5 -43.5q26 0 53.5 10t44.5 32.5t17 45.5q0 10 -12 10h-57q-28 0 -44.5 17t-16.5 46q0 28 16.5 44.5t44.5 16.5h163q30 0 52.5 -21t22.5 -51v-45
q0 -49 -18 -98t-54.5 -90t-93.5 -65.5t-129 -24.5q-62 0 -121 19.5t-106.5 61t-76 108.5t-28.5 156q0 67 17 123t46.5 96t67.5 66.5t81.5 41t75.5 17t43 2.5q66 0 124.5 -18t88 -53.5t29.5 -76.5zM444 -160q0 -47 -20.5 -91t-56 -67.5t-70.5 -23.5q-28 0 -41 13t-13 30
q39 13 63.5 39t24.5 58q-33 -5 -56 8q-36 20 -36 62q0 19 9 41t32.5 38t54.5 16q20 0 45.5 -11.5t44.5 -42t19 -69.5z" />
    <glyph glyph-name="gcommaaccent" unicode="&#x123;" horiz-adv-x="543" 
d="M368 811q-39 -13 -63.5 -39t-24.5 -58q33 5 56 -8q37 -21 37 -62q0 -18 -9 -40.5t-32.5 -38.5t-54.5 -16q-21 0 -46.5 11.5t-44.5 42t-19 69.5q0 47 20.5 91t56 67.5t70.5 23.5q28 0 41 -13t13 -30zM529 511q0 -14 -7.5 -30.5t-24.5 -31t-36 -23.5q12 -12 19.5 -34
t7.5 -50q0 -48 -19.5 -83.5t-48 -54.5t-66.5 -31t-92 -12l-13 1q-17 0 -32.5 -5.5t-15.5 -13.5q0 -7 9.5 -12.5t24.5 -5.5h83q76 0 121 -15.5t67 -46.5t22 -79q0 -30 -13.5 -62.5t-46 -60t-84.5 -46t-120 -18.5h-19q-59 0 -115 14t-86.5 43.5t-30.5 65.5q0 43 32 62t96 19
l-1 -12q0 -66 121 -66h3q57 0 85.5 9.5t28.5 30.5q0 34 -68 34q-105 0 -160.5 9t-84 31.5t-28.5 62.5q0 65 90 90q-45 21 -68.5 61.5t-23.5 92.5q0 32 12.5 65t41 59.5t73.5 43t102 16.5q65 0 123 -35q14 16 25 46t14 54q48 0 75.5 -22t27.5 -60zM193 339q0 -35 20 -53.5
t49 -18.5t49 18.5t20 53.5q0 36 -20 54t-49 18t-49 -18t-20 -54z" />
    <glyph glyph-name="Hcircumflex" unicode="&#x124;" horiz-adv-x="730" 
d="M415 880l75 -52q27 -19 34 -28.5t7 -21.5q0 -26 -17 -40.5t-37 -14.5q-23 0 -38 9l-75 47l-75 -47q-15 -9 -38 -9q-14 0 -28 8t-20 21t-6 26q0 8 4.5 18.5t35.5 31.5l76 52q21 14 51 14t51 -14zM150 673h16q45 0 65 -19.5t20 -61.5v-173h228v173q0 42 20 61.5t64 19.5h17
q45 0 64.5 -19.5t19.5 -61.5v-513q0 -42 -19.5 -60.5t-64.5 -18.5h-17q-45 0 -64.5 18.5t-19.5 60.5v184h-228v-184q0 -41 -20 -60t-65 -19h-16q-46 0 -65.5 18.5t-19.5 60.5v513q0 42 20 61.5t65 19.5z" />
    <glyph glyph-name="hcircumflex" unicode="&#x125;" horiz-adv-x="565" 
d="M184 870l75 -52q27 -19 34 -28.5t7 -21.5q0 -26 -17 -40.5t-37 -14.5q-23 0 -38 9l-75 47l-75 -47q-15 -9 -38 -9q-14 0 -28 8t-20 21t-6 26q0 8 4.5 18.5t35.5 31.5l76 52q21 14 51 14t51 -14zM126 714h2q46 0 66 -19t20 -61v-220q15 46 52.5 80t98.5 34
q51 0 87.5 -23.5t56 -66t19.5 -106.5v-252q0 -42 -19.5 -61t-65.5 -19h-8q-81 0 -81 80v203q0 77 -65 77q-34 0 -54.5 -32t-20.5 -84v-165q0 -42 -19.5 -60.5t-64.5 -18.5h-4q-46 0 -65.5 18.5t-19.5 60.5v555q0 42 20.5 61t64.5 19z" />
    <glyph glyph-name="Hbar" unicode="&#x126;" horiz-adv-x="769" 
d="M171 673h16q45 0 65 -19.5t20 -61.5v-45h228v45q0 42 20 61.5t64 19.5h17q45 0 64.5 -19.5t19.5 -61.5v-45h14q26 0 39.5 -9.5t13.5 -33.5q0 -18 -10 -30.5t-43 -12.5h-14v-382q0 -42 -19.5 -60.5t-64.5 -18.5h-17q-45 0 -64.5 18.5t-19.5 60.5v184h-228v-184
q0 -41 -20 -60t-65 -19h-16q-46 0 -65.5 18.5t-19.5 60.5v382h-17q-27 0 -40.5 9.5t-13.5 33.5q0 18 10 30.5t44 12.5h17v45q0 42 20 61.5t65 19.5zM500 419v42h-228v-42h228z" />
    <glyph glyph-name="hbar" unicode="&#x127;" horiz-adv-x="569" 
d="M126 714h2q46 0 66 -19t20 -61v-2h32q38 0 54.5 -12t16.5 -45q0 -54 -59 -54h-44v-107q15 46 52.5 80t98.5 34q51 0 87.5 -23.5t56 -66t19.5 -106.5v-252q0 -42 -19.5 -61t-65.5 -19h-8q-81 0 -81 80v203q0 77 -65 77q-34 0 -54.5 -32t-20.5 -84v-165q0 -42 -19.5 -60.5
t-64.5 -18.5h-4q-46 0 -65.5 18.5t-19.5 60.5v442q-31 2 -45.5 14t-14.5 40q0 23 10.5 39t49.5 18v2q0 42 20.5 61t64.5 19z" />
    <glyph glyph-name="Itilde" unicode="&#x128;" horiz-adv-x="316" 
d="M172 838q18 -8 32.5 -12t35.5 -4q17 0 36 15q5 4 15.5 2t20.5 -16t10 -31q0 -36 -18 -58q-12 -14 -31.5 -22t-40.5 -8q-31 0 -84 21q-18 8 -33 12t-36 4q-18 0 -36 -14q-5 -4 -15 -2t-20 16t-10 30q0 36 18 58q12 14 31 22t40 8q34 0 85 -21zM150 673h16q45 0 65 -19.5
t20 -61.5v-513q0 -41 -20 -60t-65 -19h-16q-46 0 -65.5 18.5t-19.5 60.5v513q0 42 20 61.5t65 19.5z" />
    <glyph glyph-name="itilde" unicode="&#x129;" horiz-adv-x="313" 
d="M167 691q18 -8 32.5 -12t35.5 -4q17 0 36 15q5 4 15.5 2t20.5 -16t10 -31q0 -36 -18 -58q-12 -14 -31.5 -22t-40.5 -8q-31 0 -84 21q-18 8 -33 12t-36 4q-18 0 -36 -14q-5 -4 -15 -2t-20 16t-10 30q0 36 18 58q12 14 31 22t40 8q34 0 85 -21zM159 522h2q46 0 66 -19
t20 -61v-363q0 -41 -20 -60t-64 -19h-4q-45 0 -64.5 18.5t-19.5 60.5v363q0 42 20 61t64 19z" />
    <glyph glyph-name="Imacron" unicode="&#x12a;" horiz-adv-x="316" 
d="M29 816h259q61 0 61 -57t-61 -57h-259q-30 0 -45 13.5t-15 43.5t15 43.5t45 13.5zM150 673h16q45 0 65 -19.5t20 -61.5v-513q0 -41 -20 -60t-65 -19h-16q-46 0 -65.5 18.5t-19.5 60.5v513q0 42 20 61.5t65 19.5z" />
    <glyph glyph-name="imacron" unicode="&#x12b;" horiz-adv-x="275" 
d="M70 690h139q61 0 61 -57t-61 -57h-139q-30 0 -45 13.5t-15 43.5t15 43.5t45 13.5zM140 522h2q46 0 66 -19t20 -61v-363q0 -41 -20 -60t-64 -19h-4q-45 0 -64.5 18.5t-19.5 60.5v363q0 42 20 61t64 19z" />
    <glyph glyph-name="Ibreve" unicode="&#x12c;" horiz-adv-x="316" 
d="M275 873q18 0 30.5 -10.5t12.5 -28.5q0 -27 -26 -58t-62.5 -44.5t-70.5 -13.5q-33 0 -69 14t-63 44t-27 57q0 17 12.5 28.5t30.5 11.5q17 0 38 -17t29.5 -23t22 -10t26.5 -4q10 0 22.5 2.5t23 9t32.5 24.5t38 18zM150 673h16q45 0 65 -19.5t20 -61.5v-513q0 -41 -20 -60
t-65 -19h-16q-46 0 -65.5 18.5t-19.5 60.5v513q0 42 20 61.5t65 19.5z" />
    <glyph glyph-name="ibreve" unicode="&#x12d;" horiz-adv-x="275" 
d="M252 719q18 0 30.5 -10.5t12.5 -28.5q0 -27 -26 -58t-62.5 -44.5t-70.5 -13.5q-33 0 -69 14t-63 44t-27 57q0 17 12.5 28.5t30.5 11.5q17 0 38 -17t29.5 -23t22 -10t26.5 -4q10 0 22.5 2.5t23 9t32.5 24.5t38 18zM135 522h2q46 0 66 -19t20 -61v-363q0 -41 -20 -60
t-64 -19h-4q-45 0 -64.5 18.5t-19.5 60.5v363q0 42 20 61t64 19z" />
    <glyph glyph-name="Iogonek" unicode="&#x12e;" horiz-adv-x="316" 
d="M150 673h16q45 0 65 -19.5t20 -61.5v-513q0 -40 -18.5 -59t-59.5 -20q-13 0 -24.5 -6t-11.5 -18q0 -11 12 -20t32 -9q15 0 25.5 5t12.5 12q12 -3 22 -14.5t10 -30.5q0 -28 -26.5 -47.5t-68.5 -19.5q-36 0 -60.5 13t-38.5 35.5t-14 48.5q0 47 38 72q-16 17 -16 58v513
q0 42 20 61.5t65 19.5z" />
    <glyph glyph-name="iogonek" unicode="&#x12f;" horiz-adv-x="275" 
d="M230 665q0 -42 -26 -64.5t-67 -22.5t-67 22.5t-26 64.5q0 20 9 41.5t32 34t52 12.5t52 -12.5t32 -34t9 -41.5zM135 522h2q46 0 66 -19t20 -61v-363q0 -36 -14.5 -55t-45.5 -23v-1q-13 0 -24.5 -6t-11.5 -18q0 -11 12 -20t32 -9q15 0 25.5 5t12.5 12q12 -3 22 -14.5
t10 -30.5q0 -28 -26.5 -47.5t-68.5 -19.5q-36 0 -60.5 13t-38.5 35.5t-14 48.5q0 21 9.5 40t25.5 31q-17 18 -17 59v363q0 42 20 61t64 19z" />
    <glyph glyph-name="Idotaccent" unicode="&#x130;" horiz-adv-x="316" 
d="M156 896q38 0 63.5 -23t25.5 -63t-25.5 -63.5t-63.5 -23.5t-63.5 23.5t-25.5 63.5t25.5 63t63.5 23zM150 673h16q45 0 65 -19.5t20 -61.5v-513q0 -41 -20 -60t-65 -19h-16q-46 0 -65.5 18.5t-19.5 60.5v513q0 42 20 61.5t65 19.5z" />
    <glyph glyph-name="dotlessi" unicode="&#x131;" horiz-adv-x="264" 
d="M135 522h2q46 0 66 -19t20 -61v-363q0 -41 -20 -60t-64 -19h-4q-45 0 -64.5 18.5t-19.5 60.5v363q0 42 20 61t64 19z" />
    <glyph glyph-name="Jcircumflex" unicode="&#x134;" horiz-adv-x="417" 
d="M271 880l75 -52q27 -19 34 -28.5t7 -21.5q0 -26 -17 -40.5t-37 -14.5q-23 0 -38 9l-75 47l-75 -47q-15 -9 -38 -9q-14 0 -28 8t-20 21t-6 26q0 8 4.5 18.5t35.5 31.5l76 52q21 14 51 14t51 -14zM206 673h17q44 0 64 -19.5t20 -61.5v-518q0 -148 -55 -222.5t-171 -74.5
q-28 0 -56 6.5t-52.5 23t-36 41t-11.5 45.5q0 48 30 72q10 -12 33 -21t52 -9q37 0 59 22.5t22 71.5v563q0 42 20 61.5t65 19.5z" />
    <glyph glyph-name="jcircumflex" unicode="&#x135;" horiz-adv-x="282" 
d="M195 709l75 -52q27 -19 34 -28.5t7 -21.5q0 -26 -17 -40.5t-37 -14.5q-23 0 -38 9l-75 47l-75 -47q-15 -9 -38 -9q-14 0 -28 8t-20 21t-6 26q0 8 4.5 18.5t35.5 31.5l76 52q21 14 51 14t51 -14zM144 522h10q83 0 83 -81v-408q0 -120 -41 -180.5t-130 -60.5q-34 0 -68 10
t-53 37.5t-19 63.5q0 11 4 26.5t10 22.5q27 -9 49 -9q75 0 75 89v392q0 52 18.5 75t61.5 23z" />
    <glyph glyph-name="Kcommaaccent" unicode="&#x136;" horiz-adv-x="672" 
d="M149 673h17q48 0 66 -22.5t18 -73.5v-184q27 30 57.5 69t62.5 91t33 53q26 42 58 54.5t70 12.5h32q25 0 39.5 -13.5t14.5 -32.5q0 -10 -5 -22q-25 -50 -75.5 -114t-121.5 -130q106 -104 147 -160t63 -94q18 -32 18 -62q0 -20 -15 -32.5t-42 -12.5h-75q-46 0 -72 46
q-19 33 -52.5 82t-70.5 91.5t-66 67.5v-179q0 -65 -22 -86.5t-62 -21.5h-17q-27 0 -47.5 7t-28.5 28t-8 59v483q0 51 18 73.5t66 22.5zM439 -160q0 -47 -20.5 -91t-56 -67.5t-70.5 -23.5q-28 0 -41 13t-13 30q39 13 63.5 39t24.5 58q-33 -5 -56 8q-36 20 -36 62q0 19 9 41
t32.5 38t54.5 16q20 0 45.5 -11.5t44.5 -42t19 -69.5z" />
    <glyph glyph-name="kcommaaccent" unicode="&#x137;" horiz-adv-x="541" 
d="M214 619v-293q35 38 71 90.5t43 62t20 20.5t29.5 17t40.5 6h43q26 0 43 -11.5t17 -29.5q0 -28 -48 -84t-115 -110q60 -60 114 -134t54 -108q0 -20 -16.5 -32.5t-43.5 -12.5h-33q-30 0 -57.5 9t-47.5 42q-8 13 -31.5 54.5t-43 71t-39.5 48.5v-120q0 -38 -8.5 -60.5
t-26.5 -33.5t-49 -11h-4q-28 0 -47.5 7t-28 27t-8.5 59v526q0 51 18 73t66 22q52 0 70 -22t18 -73zM374 -160q0 -47 -20.5 -91t-56 -67.5t-70.5 -23.5q-28 0 -41 13t-13 30q39 13 63.5 39t24.5 58q-33 -5 -56 8q-36 20 -36 62q0 19 9 41t32.5 38t54.5 16q20 0 45.5 -11.5
t44.5 -42t19 -69.5z" />
    <glyph glyph-name="Lacute" unicode="&#x139;" horiz-adv-x="561" 
d="M104 729q-21 -6 -42 -6q-13 0 -23.5 9.5t-10.5 27.5v9q0 16 7.5 27.5t26.5 21.5l158 81q28 13 47 13q35 0 35 -50q0 -73 -35 -84zM150 673h16q45 0 65 -19.5t20 -61.5v-422h216q36 0 56.5 -22t20.5 -63t-21 -63t-56 -22h-317q-46 0 -65.5 18.5t-19.5 60.5v513
q0 42 20 61.5t65 19.5z" />
    <glyph glyph-name="lacute" unicode="&#x13a;" horiz-adv-x="259" 
d="M69 733q-21 -6 -42 -6q-13 0 -23.5 9.5t-10.5 27.5v9q0 16 7.5 27.5t26.5 21.5l158 81q28 13 47 13q35 0 35 -50q0 -73 -35 -84zM130 714h2q46 0 66 -19t20 -61v-555q0 -41 -20 -60t-64 -19h-4q-46 0 -65.5 18.5t-19.5 60.5v555q0 42 20 61t65 19z" />
    <glyph glyph-name="Lcommaaccent" unicode="&#x13b;" horiz-adv-x="561" 
d="M150 673h16q45 0 65 -19.5t20 -61.5v-422h216q36 0 56.5 -22t20.5 -63t-21 -63t-56 -22h-317q-46 0 -65.5 18.5t-19.5 60.5v513q0 42 20 61.5t65 19.5zM384 -160q0 -47 -20.5 -91t-56 -67.5t-70.5 -23.5q-28 0 -41 13t-13 30q39 13 63.5 39t24.5 58q-33 -5 -56 8
q-36 20 -36 62q0 19 9 41t32.5 38t54.5 16q20 0 45.5 -11.5t44.5 -42t19 -69.5z" />
    <glyph glyph-name="lcommaaccent" unicode="&#x13c;" horiz-adv-x="263" 
d="M130 714h2q46 0 66 -19t20 -61v-555q0 -41 -20 -60t-64 -19h-4q-46 0 -65.5 18.5t-19.5 60.5v555q0 42 20 61t65 19zM236 -160q0 -47 -20.5 -91t-56 -67.5t-70.5 -23.5q-28 0 -41 13t-13 30q39 13 63.5 39t24.5 58q-33 -5 -56 8q-36 20 -36 62q0 19 9 41t32.5 38t54.5 16
q20 0 45.5 -11.5t44.5 -42t19 -69.5z" />
    <glyph glyph-name="Lcaron" unicode="&#x13d;" horiz-adv-x="561" 
d="M150 673h16q45 0 65 -19.5t20 -61.5v-422h216q36 0 56.5 -22t20.5 -63t-21 -63t-56 -22h-317q-46 0 -65.5 18.5t-19.5 60.5v513q0 42 20 61.5t65 19.5zM323 410q39 13 63.5 39t24.5 58q-33 -5 -57 8q-14 8 -25 23.5t-11 38.5q0 19 9 41t32.5 38t54.5 16q21 0 46.5 -11.5
t44 -42t18.5 -69.5q0 -28 -8 -59t-27 -58t-47.5 -46t-63.5 -19q-28 0 -41 13t-13 30z" />
    <glyph glyph-name="lcaron" unicode="&#x13e;" horiz-adv-x="508" 
d="M125 714h2q46 0 66 -19t20 -61v-555q0 -41 -20 -60t-64 -19h-4q-46 0 -65.5 18.5t-19.5 60.5v555q0 42 20 61t65 19zM276 438q39 13 63.5 39t24.5 58q-33 -5 -57 8q-14 8 -25 23.5t-11 38.5q0 19 9 41t32.5 38t54.5 16q21 0 46.5 -11.5t44 -42t18.5 -69.5q0 -28 -8 -59
t-27 -58t-47.5 -46t-63.5 -19q-28 0 -41 13t-13 30z" />
    <glyph glyph-name="Ldot" unicode="&#x13f;" horiz-adv-x="561" 
d="M150 673h16q45 0 65 -19.5t20 -61.5v-422h216q36 0 56.5 -22t20.5 -63t-21 -63t-56 -22h-317q-46 0 -65.5 18.5t-19.5 60.5v513q0 42 20 61.5t65 19.5zM506 372q0 -33 -13 -54t-37 -33t-55 -12t-55.5 12t-37.5 33t-13 54q0 26 11 49.5t37.5 36.5t57.5 13t55 -12t37 -33
t13 -54z" />
    <glyph glyph-name="ldot" unicode="&#x140;" horiz-adv-x="513" 
d="M130 714h2q46 0 66 -19t20 -61v-555q0 -41 -20 -60t-64 -19h-4q-46 0 -65.5 18.5t-19.5 60.5v555q0 42 20 61t65 19zM476 384q0 -33 -13 -54t-37 -33t-55 -12t-55.5 12t-37.5 33t-13 54q0 26 11 49.5t37.5 36.5t57.5 13t55 -12t37 -33t13 -54z" />
    <glyph glyph-name="Lslash" unicode="&#x141;" horiz-adv-x="604" 
d="M196 673h16q45 0 65 -19.5t20 -61.5v-191l47 16q23 8 37 1t22 -32v-1q8 -25 1.5 -39.5t-29.5 -22.5l-78 -26v-127h216q36 0 56.5 -22t20.5 -63t-21 -63t-56 -22h-317q-46 0 -65.5 18.5t-19.5 60.5v158l-29 -9q-22 -7 -35.5 0.5t-21.5 32.5v2q-8 25 -1.5 38.5t28.5 20.5
l59 19v251q0 42 20 61.5t65 19.5z" />
    <glyph glyph-name="lslash" unicode="&#x142;" horiz-adv-x="334" 
d="M169 717h2q46 0 66 -19t20 -61v-170l22 7q19 7 30.5 1t18.5 -27v-1q5 -16 2.5 -29.5t-25.5 -21.5l-48 -16v-298q0 -41 -20 -60t-64 -19h-4q-46 0 -65.5 18.5t-19.5 60.5v242l-22 -7q-19 -6 -30 0.5t-18 26.5v2q-5 15 -2.5 28.5t25.5 20.5l47 15v227q0 42 20 61t65 19z
" />
    <glyph glyph-name="Nacute" unicode="&#x143;" horiz-adv-x="735" 
d="M304 729q-21 -6 -42 -6q-13 0 -23.5 9.5t-10.5 27.5v9q0 16 7.5 27.5t26.5 21.5l158 81q28 13 47 13q35 0 35 -50q0 -73 -35 -84zM150 673h35q24 0 47 -11t47 -47l215 -310v287q0 43 19 62t63 19h11q45 0 64 -19t19 -62v-510q0 -42 -20.5 -62t-64.5 -20h-19
q-66 0 -107 57l-223 306v-284q0 -42 -18.5 -60.5t-62.5 -18.5h-7q-46 0 -64.5 18.5t-18.5 60.5v510q0 43 20 63.5t65 20.5z" />
    <glyph glyph-name="nacute" unicode="&#x144;" horiz-adv-x="563" 
d="M221 555q-21 -6 -42 -6q-13 0 -23.5 9.5t-10.5 27.5v9q0 16 7.5 27.5t26.5 21.5l158 81q28 13 47 13q35 0 35 -50q0 -73 -35 -84zM126 522h2q46 0 66 -19t20 -61v-24q11 31 32 56t50 40t69 15q33 0 62 -11t52 -34.5t36 -62t13 -89.5v-252q0 -42 -19.5 -61t-65.5 -19h-8
q-81 0 -81 80v209q0 75 -65 75q-16 0 -33.5 -10t-29.5 -37.5t-12 -65.5v-172q0 -42 -19.5 -60.5t-64.5 -18.5h-4q-46 0 -65.5 18.5t-19.5 60.5v363q0 42 20.5 61t64.5 19z" />
    <glyph glyph-name="Ncommaaccent" unicode="&#x145;" horiz-adv-x="735" 
d="M150 673h35q24 0 47 -11t47 -47l215 -310v287q0 43 19 62t63 19h11q45 0 64 -19t19 -62v-510q0 -42 -20.5 -62t-64.5 -20h-19q-66 0 -107 57l-223 306v-284q0 -42 -18.5 -60.5t-62.5 -18.5h-7q-46 0 -64.5 18.5t-18.5 60.5v510q0 43 20 63.5t65 20.5zM471 -160
q0 -47 -20.5 -91t-56 -67.5t-70.5 -23.5q-28 0 -41 13t-13 30q39 13 63.5 39t24.5 58q-33 -5 -56 8q-36 20 -36 62q0 19 9 41t32.5 38t54.5 16q20 0 45.5 -11.5t44.5 -42t19 -69.5z" />
    <glyph glyph-name="ncommaaccent" unicode="&#x146;" horiz-adv-x="563" 
d="M126 522h2q46 0 66 -19t20 -61v-24q11 31 32 56t50 40t69 15q33 0 62 -11t52 -34.5t36 -62t13 -89.5v-252q0 -42 -19.5 -61t-65.5 -19h-8q-81 0 -81 80v209q0 75 -65 75q-16 0 -33.5 -10t-29.5 -37.5t-12 -65.5v-172q0 -42 -19.5 -60.5t-64.5 -18.5h-4q-46 0 -65.5 18.5
t-19.5 60.5v363q0 42 20.5 61t64.5 19zM385 -160q0 -47 -20.5 -91t-56 -67.5t-70.5 -23.5q-28 0 -41 13t-13 30q39 13 63.5 39t24.5 58q-33 -5 -56 8q-36 20 -36 62q0 19 9 41t32.5 38t54.5 16q20 0 45.5 -11.5t44.5 -42t19 -69.5z" />
    <glyph glyph-name="Ncaron" unicode="&#x147;" horiz-adv-x="735" 
d="M290 884l75 -47l75 47q15 10 38 10q20 0 37 -14.5t17 -41.5q0 -7 -4.5 -17.5t-36.5 -32.5l-75 -52q-19 -13 -51 -13q-30 0 -51 14l-76 51q-18 12 -29 23.5t-11 26.5q0 26 17 41t37 15q23 0 38 -10zM150 673h35q24 0 47 -11t47 -47l215 -310v287q0 43 19 62t63 19h11
q45 0 64 -19t19 -62v-510q0 -42 -20.5 -62t-64.5 -20h-19q-66 0 -107 57l-223 306v-284q0 -42 -18.5 -60.5t-62.5 -18.5h-7q-46 0 -64.5 18.5t-18.5 60.5v510q0 43 20 63.5t65 20.5z" />
    <glyph glyph-name="ncaron" unicode="&#x148;" horiz-adv-x="563" 
d="M207 717l75 -47l75 47q15 10 38 10q20 0 37 -14.5t17 -41.5q0 -7 -4.5 -17.5t-36.5 -32.5l-75 -52q-19 -13 -51 -13q-30 0 -51 14l-76 51q-18 12 -29 23.5t-11 26.5q0 26 17 41t37 15q23 0 38 -10zM126 522h2q46 0 66 -19t20 -61v-24q11 31 32 56t50 40t69 15
q33 0 62 -11t52 -34.5t36 -62t13 -89.5v-252q0 -42 -19.5 -61t-65.5 -19h-8q-81 0 -81 80v209q0 75 -65 75q-16 0 -33.5 -10t-29.5 -37.5t-12 -65.5v-172q0 -42 -19.5 -60.5t-64.5 -18.5h-4q-46 0 -65.5 18.5t-19.5 60.5v363q0 42 20.5 61t64.5 19z" />
    <glyph glyph-name="Omacron" unicode="&#x14c;" horiz-adv-x="733" 
d="M236 844h259q61 0 61 -57t-61 -57h-259q-30 0 -45 13.5t-15 43.5t15 43.5t45 13.5zM698 335q0 -90 -29 -157.5t-77.5 -108t-107 -59.5t-117.5 -19q-60 0 -119 19t-107.5 59.5t-77.5 108t-29 157.5q0 91 29 159t77.5 109t107 60t118.5 19t118.5 -19t107 -60t77.5 -109
t29 -159zM224 336q0 -45 12 -78.5t32.5 -54.5t47 -30.5t50.5 -9.5q27 0 52.5 10t45.5 30.5t32 54t12 78.5q0 33 -8 65.5t-29 59t-50.5 37t-54.5 10.5q-24 0 -50.5 -9t-47 -30t-32.5 -54.5t-12 -78.5z" />
    <glyph glyph-name="omacron" unicode="&#x14d;" horiz-adv-x="569" 
d="M154 683h259q61 0 61 -57t-61 -57h-259q-30 0 -45 13.5t-15 43.5t15 43.5t45 13.5zM547 259q0 -50 -15.5 -98.5t-50.5 -85.5t-85.5 -59t-110.5 -22q-47 0 -93.5 15.5t-85 48t-61.5 84t-23 117.5q0 50 15.5 99t50.5 87t86 61t111 23t110.5 -23t85.5 -61t50.5 -87t15.5 -99
zM194 262q0 -59 25 -88.5t65 -29.5q41 0 65.5 29.5t24.5 88.5q0 58 -25 87.5t-65 29.5t-65 -29.5t-25 -87.5z" />
    <glyph glyph-name="Obreve" unicode="&#x14e;" horiz-adv-x="733" 
d="M482 880q18 0 30.5 -10.5t12.5 -28.5q0 -27 -26 -58t-62.5 -44.5t-70.5 -13.5q-33 0 -69 14t-63 44t-27 57q0 17 12.5 28.5t30.5 11.5q17 0 38 -17t29.5 -23t22 -10t26.5 -4q10 0 22.5 2.5t23 9t32.5 24.5t38 18zM698 335q0 -90 -29 -157.5t-77.5 -108t-107 -59.5
t-117.5 -19q-60 0 -119 19t-107.5 59.5t-77.5 108t-29 157.5q0 91 29 159t77.5 109t107 60t118.5 19t118.5 -19t107 -60t77.5 -109t29 -159zM224 336q0 -45 12 -78.5t32.5 -54.5t47 -30.5t50.5 -9.5q27 0 52.5 10t45.5 30.5t32 54t12 78.5q0 33 -8 65.5t-29 59t-50.5 37
t-54.5 10.5q-24 0 -50.5 -9t-47 -30t-32.5 -54.5t-12 -78.5z" />
    <glyph glyph-name="obreve" unicode="&#x14f;" horiz-adv-x="569" 
d="M400 726q18 0 30.5 -10.5t12.5 -28.5q0 -27 -26 -58t-62.5 -44.5t-70.5 -13.5q-33 0 -69 14t-63 44t-27 57q0 17 12.5 28.5t30.5 11.5q17 0 38 -17t29.5 -23t22 -10t26.5 -4q10 0 22.5 2.5t23 9t32.5 24.5t38 18zM547 259q0 -50 -15.5 -98.5t-50.5 -85.5t-85.5 -59
t-110.5 -22q-47 0 -93.5 15.5t-85 48t-61.5 84t-23 117.5q0 50 15.5 99t50.5 87t86 61t111 23t110.5 -23t85.5 -61t50.5 -87t15.5 -99zM194 262q0 -59 25 -88.5t65 -29.5q41 0 65.5 29.5t24.5 88.5q0 58 -25 87.5t-65 29.5t-65 -29.5t-25 -87.5z" />
    <glyph glyph-name="Ohungarumlaut" unicode="&#x150;" horiz-adv-x="733" 
d="M177 730q-15 -2 -26 5t-11 23v9q0 26 23 41q29 21 91 55.5t87 41.5q16 4 28 -4t12 -29v-16q0 -52 -35 -66q-14 -5 -59 -24t-70 -26.5t-40 -9.5zM406 730q-15 -2 -26 5t-11 23v9q0 26 23 41q29 21 91 55.5t87 41.5q16 4 28 -4t12 -29v-16q0 -52 -35 -66q-14 -5 -59 -24
t-70 -26.5t-40 -9.5zM698 335q0 -90 -29 -157.5t-77.5 -108t-107 -59.5t-117.5 -19q-60 0 -119 19t-107.5 59.5t-77.5 108t-29 157.5q0 91 29 159t77.5 109t107 60t118.5 19t118.5 -19t107 -60t77.5 -109t29 -159zM224 336q0 -45 12 -78.5t32.5 -54.5t47 -30.5t50.5 -9.5
q27 0 52.5 10t45.5 30.5t32 54t12 78.5q0 33 -8 65.5t-29 59t-50.5 37t-54.5 10.5q-24 0 -50.5 -9t-47 -30t-32.5 -54.5t-12 -78.5z" />
    <glyph glyph-name="ohungarumlaut" unicode="&#x151;" horiz-adv-x="569" 
d="M94 563q-15 -2 -26 5t-11 23v9q0 26 23 41q29 21 91 55.5t87 41.5q16 4 28 -4t12 -29v-16q0 -52 -35 -66q-14 -5 -59 -24t-70 -26.5t-40 -9.5zM323 563q-15 -2 -26 5t-11 23v9q0 26 23 41q29 21 91 55.5t87 41.5q16 4 28 -4t12 -29v-16q0 -52 -35 -66q-14 -5 -59 -24
t-70 -26.5t-40 -9.5zM547 259q0 -50 -15.5 -98.5t-50.5 -85.5t-85.5 -59t-110.5 -22q-47 0 -93.5 15.5t-85 48t-61.5 84t-23 117.5q0 50 15.5 99t50.5 87t86 61t111 23t110.5 -23t85.5 -61t50.5 -87t15.5 -99zM194 262q0 -59 25 -88.5t65 -29.5q41 0 65.5 29.5t24.5 88.5
q0 58 -25 87.5t-65 29.5t-65 -29.5t-25 -87.5z" />
    <glyph glyph-name="Racute" unicode="&#x154;" horiz-adv-x="665" 
d="M269 729q-21 -6 -42 -6q-13 0 -23.5 9.5t-10.5 27.5v9q0 16 7.5 27.5t26.5 21.5l158 81q28 13 47 13q35 0 35 -50q0 -73 -35 -84zM149 673h202q57 0 104.5 -14.5t81.5 -42.5t52.5 -69.5t18.5 -92.5q0 -50 -18.5 -87t-49.5 -60.5t-67 -33.5q30 -51 77.5 -101t92.5 -70
q-2 -28 -18.5 -56.5t-41 -40.5t-50.5 -12q-17 0 -38 5.5t-47 24t-50 51.5t-41 65.5t-32 64.5t-20 42h-55v-167q0 -42 -20 -60.5t-65 -18.5h-14q-35 0 -53 6.5t-25.5 21.5t-7.5 49v515q0 43 20 62t64 19zM250 372h88q37 0 62.5 19t25.5 53q0 36 -24.5 54t-63.5 18h-88v-144z
" />
    <glyph glyph-name="racute" unicode="&#x155;" horiz-adv-x="434" 
d="M154 576q-21 -6 -42 -6q-13 0 -23.5 9.5t-10.5 27.5v9q0 16 7.5 27.5t26.5 21.5l158 81q28 13 47 13q35 0 35 -50q0 -73 -35 -84zM211 428q29 60 58 79t61 19q28 0 50 -11t31 -31t9 -41q0 -58 -28 -96q-36 15 -76 15q-102 0 -102 -151v-111q0 -50 -18.5 -75t-65.5 -25h-5
q-50 0 -67 20t-17 70v340q0 48 19 70t65 22q45 0 65.5 -23t20.5 -71z" />
    <glyph glyph-name="Rcommaaccent" unicode="&#x156;" horiz-adv-x="667" 
d="M149 673h202q57 0 104.5 -14.5t81.5 -42.5t52.5 -69.5t18.5 -92.5q0 -50 -18.5 -87t-49.5 -60.5t-67 -33.5q30 -51 77.5 -101t92.5 -70q-2 -28 -18.5 -56.5t-41 -40.5t-50.5 -12q-17 0 -38 5.5t-47 24t-50 51.5t-41 65.5t-32 64.5t-20 42h-55v-167q0 -42 -20 -60.5
t-65 -18.5h-14q-35 0 -53 6.5t-25.5 21.5t-7.5 49v515q0 43 20 62t64 19zM250 372h88q37 0 62.5 19t25.5 53q0 36 -24.5 54t-63.5 18h-88v-144zM436 -160q0 -47 -20.5 -91t-56 -67.5t-70.5 -23.5q-28 0 -41 13t-13 30q39 13 63.5 39t24.5 58q-33 -5 -56 8q-36 20 -36 62
q0 19 9 41t32.5 38t54.5 16q20 0 45.5 -11.5t44.5 -42t19 -69.5z" />
    <glyph glyph-name="rcommaaccent" unicode="&#x157;" horiz-adv-x="433" 
d="M211 428q29 60 58 79t61 19q28 0 50 -11t31 -31t9 -41q0 -58 -28 -96q-36 15 -76 15q-102 0 -102 -151v-111q0 -50 -18.5 -75t-65.5 -25h-5q-50 0 -67 20t-17 70v340q0 48 19 70t65 22q45 0 65.5 -23t20.5 -71zM320 -160q0 -47 -20.5 -91t-56 -67.5t-70.5 -23.5
q-28 0 -41 13t-13 30q39 13 63.5 39t24.5 58q-33 -5 -56 8q-36 20 -36 62q0 19 9 41t32.5 38t54.5 16q20 0 45.5 -11.5t44.5 -42t19 -69.5z" />
    <glyph glyph-name="Rcaron" unicode="&#x158;" horiz-adv-x="665" 
d="M255 884l75 -47l75 47q15 10 38 10q20 0 37 -14.5t17 -41.5q0 -7 -4.5 -17.5t-36.5 -32.5l-75 -52q-19 -13 -51 -13q-30 0 -51 14l-76 51q-18 12 -29 23.5t-11 26.5q0 26 17 41t37 15q23 0 38 -10zM149 673h202q57 0 104.5 -14.5t81.5 -42.5t52.5 -69.5t18.5 -92.5
q0 -50 -18.5 -87t-49.5 -60.5t-67 -33.5q30 -51 77.5 -101t92.5 -70q-2 -28 -18.5 -56.5t-41 -40.5t-50.5 -12q-17 0 -38 5.5t-47 24t-50 51.5t-41 65.5t-32 64.5t-20 42h-55v-167q0 -42 -20 -60.5t-65 -18.5h-14q-35 0 -53 6.5t-25.5 21.5t-7.5 49v515q0 43 20 62t64 19z
M250 372h88q37 0 62.5 19t25.5 53q0 36 -24.5 54t-63.5 18h-88v-144z" />
    <glyph glyph-name="rcaron" unicode="&#x159;" horiz-adv-x="434" 
d="M146 731l75 -47l75 47q15 10 38 10q20 0 37 -14.5t17 -41.5q0 -7 -4.5 -17.5t-36.5 -32.5l-75 -52q-19 -13 -51 -13q-30 0 -51 14l-76 51q-18 12 -29 23.5t-11 26.5q0 26 17 41t37 15q23 0 38 -10zM211 428q29 60 58 79t61 19q28 0 50 -11t31 -31t9 -41q0 -58 -28 -96
q-36 15 -76 15q-102 0 -102 -151v-111q0 -50 -18.5 -75t-65.5 -25h-5q-50 0 -67 20t-17 70v340q0 48 19 70t65 22q45 0 65.5 -23t20.5 -71z" />
    <glyph glyph-name="Sacute" unicode="&#x15a;" horiz-adv-x="596" 
d="M235 729q-21 -6 -42 -6q-13 0 -23.5 9.5t-10.5 27.5v9q0 16 7.5 27.5t26.5 21.5l158 81q28 13 47 13q35 0 35 -50q0 -73 -35 -84zM538 558q0 -26 -15 -49.5t-40 -35.5q-77 49 -169 49q-38 0 -59 -14.5t-21 -37.5q0 -15 14 -28t61 -24q90 -21 145 -47.5t83 -64t28 -99.5
q0 -45 -20 -84.5t-57 -69t-90 -46t-115 -16.5q-64 0 -125 15t-94 44t-33 62q0 26 13 52t46 41q13 -14 50 -31t77 -25.5t70 -8.5q37 0 60.5 15t23.5 39q0 21 -23.5 35t-78.5 25q-113 23 -170 73.5t-57 138.5q0 47 19 87t53.5 69t83 44.5t105.5 15.5q51 0 94.5 -8t75 -23.5
t48.5 -39t17 -53.5z" />
    <glyph glyph-name="sacute" unicode="&#x15b;" horiz-adv-x="476" 
d="M176 576q-21 -6 -42 -6q-13 0 -23.5 9.5t-10.5 27.5v9q0 16 7.5 27.5t26.5 21.5l158 81q28 13 47 13q35 0 35 -50q0 -73 -35 -84zM439 425q0 -22 -11.5 -40t-33.5 -28q-14 11 -42.5 20t-59.5 9q-49 0 -65 -9.5t-16 -25.5q0 -6 5.5 -11.5t20 -11t47 -13.5t37.5 -9
q75 -19 105.5 -54.5t30.5 -94.5q0 -48 -27.5 -84t-79 -58t-120.5 -22q-95 0 -152.5 25.5t-57.5 70.5q0 31 12 50.5t31 25.5q16 -15 54 -28.5t81 -13.5q84 0 84 39q0 8 -11 15.5t-54.5 18t-59.5 14.5q-65 17 -93 52.5t-28 97.5q0 47 29 87.5t82.5 60.5t109.5 20q84 0 133 -28
t49 -75z" />
    <glyph glyph-name="Scircumflex" unicode="&#x15c;" horiz-adv-x="596" 
d="M347 880l75 -52q27 -19 34 -28.5t7 -21.5q0 -26 -17 -40.5t-37 -14.5q-23 0 -38 9l-75 47l-75 -47q-15 -9 -38 -9q-14 0 -28 8t-20 21t-6 26q0 8 4.5 18.5t35.5 31.5l76 52q21 14 51 14t51 -14zM538 558q0 -26 -15 -49.5t-40 -35.5q-77 49 -169 49q-38 0 -59 -14.5
t-21 -37.5q0 -15 14 -28t61 -24q90 -21 145 -47.5t83 -64t28 -99.5q0 -45 -20 -84.5t-57 -69t-90 -46t-115 -16.5q-64 0 -125 15t-94 44t-33 62q0 26 13 52t46 41q13 -14 50 -31t77 -25.5t70 -8.5q37 0 60.5 15t23.5 39q0 21 -23.5 35t-78.5 25q-113 23 -170 73.5t-57 138.5
q0 47 19 87t53.5 69t83 44.5t105.5 15.5q51 0 94.5 -8t75 -23.5t48.5 -39t17 -53.5z" />
    <glyph glyph-name="scircumflex" unicode="&#x15d;" horiz-adv-x="476" 
d="M288 727l75 -52q27 -19 34 -28.5t7 -21.5q0 -26 -17 -40.5t-37 -14.5q-23 0 -38 9l-75 47l-75 -47q-15 -9 -38 -9q-14 0 -28 8t-20 21t-6 26q0 8 4.5 18.5t35.5 31.5l76 52q21 14 51 14t51 -14zM439 425q0 -22 -11.5 -40t-33.5 -28q-14 11 -42.5 20t-59.5 9
q-49 0 -65 -9.5t-16 -25.5q0 -6 5.5 -11.5t20 -11t47 -13.5t37.5 -9q75 -19 105.5 -54.5t30.5 -94.5q0 -48 -27.5 -84t-79 -58t-120.5 -22q-95 0 -152.5 25.5t-57.5 70.5q0 31 12 50.5t31 25.5q16 -15 54 -28.5t81 -13.5q84 0 84 39q0 8 -11 15.5t-54.5 18t-59.5 14.5
q-65 17 -93 52.5t-28 97.5q0 47 29 87.5t82.5 60.5t109.5 20q84 0 133 -28t49 -75z" />
    <glyph glyph-name="Scedilla" unicode="&#x15e;" horiz-adv-x="596" 
d="M538 558q0 -26 -15 -49.5t-40 -35.5q-77 49 -169 49q-38 0 -59 -14.5t-21 -37.5q0 -15 14 -28t61 -24q90 -21 145 -47.5t83 -64t28 -99.5q0 -80 -59 -138t-159 -73l-6 -19h8q31 0 49.5 -20t18.5 -50q0 -48 -37.5 -74.5t-91.5 -26.5q-22 0 -48.5 7t-44.5 26t-18 45
q0 23 14 36.5t28 13.5q6 -12 22 -18.5t37 -6.5q17 0 29.5 6t12.5 16q0 8 -8 13.5t-26 5.5h-9q-8 0 -12.5 3.5t-4.5 8.5q0 7 9 29q-61 1 -118.5 16.5t-88.5 44t-31 60.5q0 26 13 52t46 41q13 -14 50 -31t77 -25.5t70 -8.5q37 0 60.5 15t23.5 39q0 21 -23.5 35t-78.5 25
q-113 23 -170 73.5t-57 138.5q0 47 19 87t53.5 69t83 44.5t105.5 15.5q51 0 94.5 -8t75 -23.5t48.5 -39t17 -53.5z" />
    <glyph glyph-name="scedilla" unicode="&#x15f;" horiz-adv-x="476" 
d="M439 425q0 -22 -11.5 -40t-33.5 -28q-14 11 -42.5 20t-59.5 9q-49 0 -65 -9.5t-16 -25.5q0 -6 5.5 -11.5t20 -11t47 -13.5t37.5 -9q75 -19 105.5 -54.5t30.5 -94.5q0 -42 -24 -78.5t-68.5 -57t-92.5 -25.5l-5 -15h8q31 0 49.5 -20t18.5 -50q0 -48 -37.5 -74.5
t-91.5 -26.5q-22 0 -48.5 7t-44.5 26t-18 45q0 23 14 36.5t28 13.5q6 -12 22 -18.5t37 -6.5q17 0 29.5 6t12.5 16q0 8 -8 13.5t-26 5.5h-9q-8 0 -12.5 3.5t-4.5 8.5q0 4 8 28q-80 5 -127 29.5t-47 65.5q0 31 12 50.5t31 25.5q16 -15 54 -28.5t81 -13.5q84 0 84 39
q0 8 -11 15.5t-54.5 18t-59.5 14.5q-65 17 -93 52.5t-28 97.5q0 47 29 87.5t82.5 60.5t109.5 20q84 0 133 -28t49 -75z" />
    <glyph glyph-name="Scaron" unicode="&#x160;" horiz-adv-x="596" 
d="M221 884l75 -47l75 47q15 10 38 10q20 0 37 -14.5t17 -41.5q0 -7 -4.5 -17.5t-36.5 -32.5l-75 -52q-19 -13 -51 -13q-30 0 -51 14l-76 51q-18 12 -29 23.5t-11 26.5q0 26 17 41t37 15q23 0 38 -10zM538 558q0 -26 -15 -49.5t-40 -35.5q-77 49 -169 49q-38 0 -59 -14.5
t-21 -37.5q0 -15 14 -28t61 -24q90 -21 145 -47.5t83 -64t28 -99.5q0 -45 -20 -84.5t-57 -69t-90 -46t-115 -16.5q-64 0 -125 15t-94 44t-33 62q0 26 13 52t46 41q13 -14 50 -31t77 -25.5t70 -8.5q37 0 60.5 15t23.5 39q0 21 -23.5 35t-78.5 25q-113 23 -170 73.5t-57 138.5
q0 47 19 87t53.5 69t83 44.5t105.5 15.5q51 0 94.5 -8t75 -23.5t48.5 -39t17 -53.5z" />
    <glyph glyph-name="scaron" unicode="&#x161;" horiz-adv-x="476" 
d="M162 731l75 -47l75 47q15 10 38 10q20 0 37 -14.5t17 -41.5q0 -7 -4.5 -17.5t-36.5 -32.5l-75 -52q-19 -13 -51 -13q-30 0 -51 14l-76 51q-18 12 -29 23.5t-11 26.5q0 26 17 41t37 15q23 0 38 -10zM439 425q0 -22 -11.5 -40t-33.5 -28q-14 11 -42.5 20t-59.5 9
q-49 0 -65 -9.5t-16 -25.5q0 -6 5.5 -11.5t20 -11t47 -13.5t37.5 -9q75 -19 105.5 -54.5t30.5 -94.5q0 -48 -27.5 -84t-79 -58t-120.5 -22q-95 0 -152.5 25.5t-57.5 70.5q0 31 12 50.5t31 25.5q16 -15 54 -28.5t81 -13.5q84 0 84 39q0 8 -11 15.5t-54.5 18t-59.5 14.5
q-65 17 -93 52.5t-28 97.5q0 47 29 87.5t82.5 60.5t109.5 20q84 0 133 -28t49 -75z" />
    <glyph glyph-name="Tcommaaccent" unicode="&#x162;" horiz-adv-x="620" 
d="M101 673h418q36 0 56.5 -21t20.5 -62t-21 -62.5t-56 -21.5h-116v-427q0 -41 -20 -60t-65 -19h-17q-45 0 -64.5 18.5t-19.5 60.5v427h-116q-35 0 -56 21.5t-21 62.5t20.5 62t56.5 21zM413 -160q0 -47 -20.5 -91t-56 -67.5t-70.5 -23.5q-28 0 -41 13t-13 30q39 13 63.5 39
t24.5 58q-33 -5 -56 8q-36 20 -36 62q0 19 9 41t32.5 38t54.5 16q20 0 45.5 -11.5t44.5 -42t19 -69.5z" />
    <glyph glyph-name="tcommaaccent" unicode="&#x163;" horiz-adv-x="434" 
d="M182 625h11q81 0 81 -82v-49h63q41 0 62 -19.5t21 -51.5q0 -41 -22 -56t-72 -15h-52v-136q0 -42 16 -57.5t47 -15.5q6 0 27 3.5t38 12.5q18 -24 18 -71q0 -22 -13.5 -43.5t-51 -35t-86.5 -13.5q-79 0 -123 46.5t-44 139.5v170h-26q-19 0 -35.5 9.5t-23.5 26.5t-7 35
q0 71 73 71h19v39q0 45 18.5 68.5t61.5 23.5zM320 -160q0 -47 -20.5 -91t-56 -67.5t-70.5 -23.5q-28 0 -41 13t-13 30q39 13 63.5 39t24.5 58q-33 -5 -56 8q-36 20 -36 62q0 19 9 41t32.5 38t54.5 16q20 0 45.5 -11.5t44.5 -42t19 -69.5z" />
    <glyph glyph-name="Tcaron" unicode="&#x164;" horiz-adv-x="620" 
d="M233 884l75 -47l75 47q15 10 38 10q20 0 37 -14.5t17 -41.5q0 -7 -4.5 -17.5t-36.5 -32.5l-75 -52q-19 -13 -51 -13q-30 0 -51 14l-76 51q-18 12 -29 23.5t-11 26.5q0 26 17 41t37 15q23 0 38 -10zM101 673h418q36 0 56.5 -21t20.5 -62t-21 -62.5t-56 -21.5h-116v-427
q0 -41 -20 -60t-65 -19h-17q-45 0 -64.5 18.5t-19.5 60.5v427h-116q-35 0 -56 21.5t-21 62.5t20.5 62t56.5 21z" />
    <glyph glyph-name="tcaron" unicode="&#x165;" horiz-adv-x="645" 
d="M424 376q39 13 63.5 39t24.5 58q-33 -5 -57 8q-14 8 -25 23.5t-11 38.5q0 19 9 41t32.5 38t54.5 16q21 0 46.5 -11.5t44 -42t18.5 -69.5q0 -28 -8 -59t-27 -58t-47.5 -46t-63.5 -19q-28 0 -41 13t-13 30zM182 625h11q81 0 81 -82v-49h63q41 0 62 -19.5t21 -51.5
q0 -41 -22 -56t-72 -15h-52v-136q0 -42 16 -57.5t47 -15.5q6 0 27 3.5t38 12.5q18 -24 18 -71q0 -22 -13.5 -43.5t-51 -35t-86.5 -13.5q-79 0 -123 46.5t-44 139.5v170h-26q-19 0 -35.5 9.5t-23.5 26.5t-7 35q0 71 73 71h19v39q0 45 18.5 68.5t61.5 23.5z" />
    <glyph glyph-name="Tbar" unicode="&#x166;" horiz-adv-x="620" 
d="M101 673h418q36 0 56.5 -21t20.5 -62t-21 -62.5t-56 -21.5h-116v-109h63q30 0 45 -13.5t15 -44.5q0 -58 -60 -58h-63v-202q0 -41 -20 -60t-65 -19h-17q-45 0 -64.5 18.5t-19.5 60.5v202h-83q-30 0 -45 14t-15 44t15 44t45 14h83v109h-116q-35 0 -56 21.5t-21 62.5
t20.5 62t56.5 21z" />
    <glyph glyph-name="tbar" unicode="&#x167;" horiz-adv-x="434" 
d="M182 625h11q81 0 81 -82v-49h63q41 0 62 -19.5t21 -51.5q0 -41 -22 -56t-72 -15h-52v-36h87q55 0 55 -51q0 -52 -55 -52h-87q1 -31 10 -46.5t23.5 -19.5t29.5 -4q6 0 27 3.5t38 12.5q18 -24 18 -71q0 -22 -13.5 -43.5t-51 -35t-86.5 -13.5q-79 0 -123 46.5t-44 139.5v31
h-31q-54 0 -54 52q0 27 13.5 39t40.5 12h31v36h-26q-19 0 -35.5 9.5t-23.5 26.5t-7 35q0 71 73 71h19v39q0 45 18.5 68.5t61.5 23.5z" />
    <glyph glyph-name="Utilde" unicode="&#x168;" horiz-adv-x="699" 
d="M362 838q18 -8 32.5 -12t35.5 -4q17 0 36 15q5 4 15.5 2t20.5 -16t10 -31q0 -36 -18 -58q-12 -14 -31.5 -22t-40.5 -8q-31 0 -84 21q-18 8 -33 12t-36 4q-18 0 -36 -14q-5 -4 -15 -2t-20 16t-10 30q0 36 18 58q12 14 31 22t40 8q34 0 85 -21zM140 673h14q46 0 66 -19.5
t20 -62.5v-318q0 -62 28.5 -92t81.5 -30q31 0 57 12t39.5 42t13.5 68v318q0 43 20 62.5t65 19.5h14q87 0 87 -82v-277q0 -117 -34 -185.5t-99.5 -101.5t-162.5 -33t-162.5 33t-99.5 101.5t-34 185.5v277q0 82 86 82z" />
    <glyph glyph-name="utilde" unicode="&#x169;" 
d="M296 684q18 -8 32.5 -12t35.5 -4q17 0 36 15q5 4 15.5 2t20.5 -16t10 -31q0 -36 -18 -58q-12 -14 -31.5 -22t-40.5 -8q-31 0 -84 21q-18 8 -33 12t-36 4q-18 0 -36 -14q-5 -4 -15 -2t-20 16t-10 30q0 36 18 58q12 14 31 22t40 8q34 0 85 -21zM122 522h8q24 0 43 -9.5
t28.5 -34t9.5 -62.5v-164q0 -48 16 -76t50 -28q41 0 57.5 37t16.5 104v127q0 52 18 79t67 27h4q50 0 67 -21t17 -72v-335q0 -52 -17.5 -73t-67.5 -21q-49 0 -68.5 20.5t-19.5 66.5v11q-15 -44 -56.5 -73.5t-108.5 -29.5q-30 0 -57 11.5t-48 35t-32.5 61.5t-11.5 87v239
q0 49 19 71t66 22z" />
    <glyph glyph-name="Umacron" unicode="&#x16a;" horiz-adv-x="699" 
d="M219 830h259q61 0 61 -57t-61 -57h-259q-30 0 -45 13.5t-15 43.5t15 43.5t45 13.5zM140 673h14q46 0 66 -19.5t20 -62.5v-318q0 -62 28.5 -92t81.5 -30q31 0 57 12t39.5 42t13.5 68v318q0 43 20 62.5t65 19.5h14q87 0 87 -82v-277q0 -117 -34 -185.5t-99.5 -101.5
t-162.5 -33t-162.5 33t-99.5 101.5t-34 185.5v277q0 82 86 82z" />
    <glyph glyph-name="umacron" unicode="&#x16b;" 
d="M153 676h259q61 0 61 -57t-61 -57h-259q-30 0 -45 13.5t-15 43.5t15 43.5t45 13.5zM122 522h8q24 0 43 -9.5t28.5 -34t9.5 -62.5v-164q0 -48 16 -76t50 -28q41 0 57.5 37t16.5 104v127q0 52 18 79t67 27h4q50 0 67 -21t17 -72v-335q0 -52 -17.5 -73t-67.5 -21
q-49 0 -68.5 20.5t-19.5 66.5v11q-15 -44 -56.5 -73.5t-108.5 -29.5q-30 0 -57 11.5t-48 35t-32.5 61.5t-11.5 87v239q0 49 19 71t66 22z" />
    <glyph glyph-name="Ubreve" unicode="&#x16c;" horiz-adv-x="699" 
d="M464 872q18 0 30.5 -10.5t12.5 -28.5q0 -27 -26 -58t-62.5 -44.5t-70.5 -13.5q-33 0 -69 14t-63 44t-27 57q0 17 12.5 28.5t30.5 11.5q17 0 38 -17t29.5 -23t22 -10t26.5 -4q10 0 22.5 2.5t23 9t32.5 24.5t38 18zM140 673h14q46 0 66 -19.5t20 -62.5v-318q0 -62 28.5 -92
t81.5 -30q31 0 57 12t39.5 42t13.5 68v318q0 43 20 62.5t65 19.5h14q87 0 87 -82v-277q0 -117 -34 -185.5t-99.5 -101.5t-162.5 -33t-162.5 33t-99.5 101.5t-34 185.5v277q0 82 86 82z" />
    <glyph glyph-name="ubreve" unicode="&#x16d;" 
d="M402 719q18 0 30.5 -10.5t12.5 -28.5q0 -27 -26 -58t-62.5 -44.5t-70.5 -13.5q-33 0 -69 14t-63 44t-27 57q0 17 12.5 28.5t30.5 11.5q17 0 38 -17t29.5 -23t22 -10t26.5 -4q10 0 22.5 2.5t23 9t32.5 24.5t38 18zM122 522h8q24 0 43 -9.5t28.5 -34t9.5 -62.5v-164
q0 -48 16 -76t50 -28q41 0 57.5 37t16.5 104v127q0 52 18 79t67 27h4q50 0 67 -21t17 -72v-335q0 -52 -17.5 -73t-67.5 -21q-49 0 -68.5 20.5t-19.5 66.5v11q-15 -44 -56.5 -73.5t-108.5 -29.5q-30 0 -57 11.5t-48 35t-32.5 61.5t-11.5 87v239q0 49 19 71t66 22z" />
    <glyph glyph-name="Uring" unicode="&#x16e;" horiz-adv-x="699" 
d="M458 810q0 -48 -30.5 -76t-77.5 -28q-21 0 -46.5 9t-43.5 34.5t-18 60.5q0 23 10.5 48t37 41.5t60.5 16.5q22 0 47.5 -9.5t43 -35.5t17.5 -61zM317 810q0 -16 9 -26t24 -10t24.5 10t9.5 26q0 17 -9.5 27t-24.5 10t-24 -10t-9 -27zM140 673h14q46 0 66 -19.5t20 -62.5
v-318q0 -62 28.5 -92t81.5 -30q31 0 57 12t39.5 42t13.5 68v318q0 43 20 62.5t65 19.5h14q87 0 87 -82v-277q0 -117 -34 -185.5t-99.5 -101.5t-162.5 -33t-162.5 33t-99.5 101.5t-34 185.5v277q0 82 86 82z" />
    <glyph glyph-name="uring" unicode="&#x16f;" 
d="M389 657q0 -48 -30.5 -76t-77.5 -28q-21 0 -46.5 9t-43.5 34.5t-18 60.5q0 23 10.5 48t37 41.5t60.5 16.5q22 0 47.5 -9.5t43 -35.5t17.5 -61zM248 657q0 -16 9 -26t24 -10t24.5 10t9.5 26q0 17 -9.5 27t-24.5 10t-24 -10t-9 -27zM122 522h8q24 0 43 -9.5t28.5 -34
t9.5 -62.5v-164q0 -48 16 -76t50 -28q41 0 57.5 37t16.5 104v127q0 52 18 79t67 27h4q50 0 67 -21t17 -72v-335q0 -52 -17.5 -73t-67.5 -21q-49 0 -68.5 20.5t-19.5 66.5v11q-15 -44 -56.5 -73.5t-108.5 -29.5q-30 0 -57 11.5t-48 35t-32.5 61.5t-11.5 87v239q0 49 19 71
t66 22z" />
    <glyph glyph-name="Uhungarumlaut" unicode="&#x170;" horiz-adv-x="699" 
d="M164 730q-15 -2 -26 5t-11 23v9q0 26 23 41q29 21 91 55.5t87 41.5q16 4 28 -4t12 -29v-16q0 -52 -35 -66q-14 -5 -59 -24t-70 -26.5t-40 -9.5zM393 730q-15 -2 -26 5t-11 23v9q0 26 23 41q29 21 91 55.5t87 41.5q16 4 28 -4t12 -29v-16q0 -52 -35 -66q-14 -5 -59 -24
t-70 -26.5t-40 -9.5zM140 673h14q46 0 66 -19.5t20 -62.5v-318q0 -62 28.5 -92t81.5 -30q31 0 57 12t39.5 42t13.5 68v318q0 43 20 62.5t65 19.5h14q87 0 87 -82v-277q0 -117 -34 -185.5t-99.5 -101.5t-162.5 -33t-162.5 33t-99.5 101.5t-34 185.5v277q0 82 86 82z" />
    <glyph glyph-name="uhungarumlaut" unicode="&#x171;" 
d="M91 563q-15 -2 -26 5t-11 23v9q0 26 23 41q29 21 91 55.5t87 41.5q16 4 28 -4t12 -29v-16q0 -52 -35 -66q-14 -5 -59 -24t-70 -26.5t-40 -9.5zM320 563q-15 -2 -26 5t-11 23v9q0 26 23 41q29 21 91 55.5t87 41.5q16 4 28 -4t12 -29v-16q0 -52 -35 -66q-14 -5 -59 -24
t-70 -26.5t-40 -9.5zM122 522h8q24 0 43 -9.5t28.5 -34t9.5 -62.5v-164q0 -48 16 -76t50 -28q41 0 57.5 37t16.5 104v127q0 52 18 79t67 27h4q50 0 67 -21t17 -72v-335q0 -52 -17.5 -73t-67.5 -21q-49 0 -68.5 20.5t-19.5 66.5v11q-15 -44 -56.5 -73.5t-108.5 -29.5
q-30 0 -57 11.5t-48 35t-32.5 61.5t-11.5 87v239q0 49 19 71t66 22z" />
    <glyph glyph-name="Uogonek" unicode="&#x172;" horiz-adv-x="699" 
d="M140 673h14q46 0 66 -19.5t20 -62.5v-318q0 -62 28.5 -92t81.5 -30q31 0 57 12t39.5 42t13.5 68v318q0 43 20 62.5t65 19.5h14q87 0 87 -82v-277q0 -114 -32.5 -182.5t-95.5 -101.5t-151 -35q-11 -2 -18.5 -8.5t-7.5 -15.5q0 -11 12 -20t32 -9q15 0 25.5 5t12.5 12
q12 -3 22 -14.5t10 -30.5q0 -28 -26.5 -47.5t-68.5 -19.5q-36 0 -60.5 13t-38.5 35.5t-14 48.5q0 34 20 57q-67 12 -115 47.5t-73 100t-25 165.5v277q0 82 86 82z" />
    <glyph glyph-name="uogonek" unicode="&#x173;" 
d="M122 522h8q24 0 43 -9.5t28.5 -34t9.5 -62.5v-164q0 -48 16 -76t50 -28q41 0 57.5 37t16.5 104v127q0 52 18 79t67 27h4q50 0 67 -21t17 -72v-335q0 -51 -17.5 -72t-64.5 -22q-12 -1 -21 -7t-9 -17t12 -20t32 -9q15 0 25.5 5t12.5 12q12 -3 22 -14.5t10 -30.5
q0 -28 -26.5 -47.5t-68.5 -19.5q-36 0 -60.5 13t-38.5 35.5t-14 48.5q0 52 46 77q-13 18 -13 61v11q-15 -44 -56.5 -73.5t-108.5 -29.5q-30 0 -57 11.5t-48 35t-32.5 61.5t-11.5 87v239q0 49 19 71t66 22z" />
    <glyph glyph-name="Wcircumflex" unicode="&#x174;" horiz-adv-x="935" 
d="M518 860l75 -52q27 -19 34 -28.5t7 -21.5q0 -26 -17 -40.5t-37 -14.5q-23 0 -38 9l-75 47l-75 -47q-15 -9 -38 -9q-14 0 -28 8t-20 21t-6 26q0 8 4.5 18.5t35.5 31.5l76 52q21 14 51 14t51 -14zM510 66q14 -33 40.5 -49.5t58.5 -16.5h11q36 0 62.5 8.5t48 31.5t35.5 66
q24 73 52.5 203t47.5 249q3 19 3 46q0 29 -23 49t-61 20h-16q-40 0 -67 -19t-32 -55q-1 -4 -2 -15.5t-10.5 -95.5t-21.5 -164t-22 -135q-40 186 -68 331q-18 94 -96 94h-12q-78 0 -96 -94q-28 -145 -68 -331q-4 23 -16 94.5t-26 193t-14 122.5q-5 36 -32 55t-67 19h-16
q-38 0 -61 -20t-23 -49q0 -27 3 -46q15 -95 43.5 -229.5t56.5 -222.5q8 -26 24 -51.5t44.5 -40t77.5 -14.5h11q32 0 58.5 16.5t40.5 49.5q11 25 21 54.5t18 64.5t16 72.5t11 49.5q29 -132 39.5 -167.5t26.5 -73.5z" />
    <glyph glyph-name="wcircumflex" unicode="&#x175;" horiz-adv-x="728" 
d="M414 706l75 -52q27 -19 34 -28.5t7 -21.5q0 -26 -17 -40.5t-37 -14.5q-23 0 -38 9l-75 47l-75 -47q-15 -9 -38 -9q-14 0 -28 8t-20 21t-6 26q0 8 4.5 18.5t35.5 31.5l76 52q21 14 51 14t51 -14zM81 522h29q35 0 53.5 -18.5t26.5 -52.5q3 -19 10.5 -76.5t14.5 -99.5
t13 -77h4q10 41 24.5 115t21.5 106q14 60 79 60h8q32 0 52.5 -15.5t27.5 -44.5l51 -221h4q13 76 24 160t12 93q8 34 26.5 52.5t53.5 18.5h28q29 0 47.5 -13.5t18.5 -37.5l-2 -36q0 -1 -0.5 -5t-10 -67.5t-26 -139t-35.5 -128.5q-35 -95 -118 -95h-17q-30 0 -54 15t-44 62
q-29 67 -42 123q-14 -69 -39 -123q-21 -47 -45 -62t-52 -15h-17q-30 0 -56 11.5t-40 35.5q-12 20 -24.5 52t-24 77t-19.5 86t-12.5 70t-7 48.5t-4.5 36.5t-2 18l-3 26q0 28 16.5 44.5t49.5 16.5z" />
    <glyph glyph-name="Ycircumflex" unicode="&#x176;" horiz-adv-x="639" 
d="M370 874l75 -52q27 -19 34 -28.5t7 -21.5q0 -26 -17 -40.5t-37 -14.5q-23 0 -38 9l-75 47l-75 -47q-15 -9 -38 -9q-14 0 -28 8t-20 21t-6 26q0 8 4.5 18.5t35.5 31.5l76 52q21 14 51 14t51 -14zM100 673h39q30 0 51.5 -15t29.5 -42q53 -170 97 -253h4q15 25 34 68.5
t58 174.5q11 38 33 52.5t60 14.5h42q64 0 64 -54q0 -20 -13 -56q-69 -184 -184 -347v-111q0 -52 -18 -78.5t-67 -26.5h-24q-40 0 -62 20t-22 85v114q-126 177 -188 357q-8 21 -8 43q0 25 20 39.5t54 14.5z" />
    <glyph glyph-name="ycircumflex" unicode="&#x177;" horiz-adv-x="563" 
d="M332 727l75 -52q27 -19 34 -28.5t7 -21.5q0 -26 -17 -40.5t-37 -14.5q-23 0 -38 9l-75 47l-75 -47q-15 -9 -38 -9q-14 0 -28 8t-20 21t-6 26q0 8 4.5 18.5t35.5 31.5l76 52q21 14 51 14t51 -14zM87 522h33q64 0 78 -56l3 -12q2 -7 28.5 -118t51.5 -187q53 170 81 317
q11 56 78 56h32q31 0 51.5 -12t20.5 -36q0 -7 -4 -21t-4 -16q-66 -280 -190 -555q-22 -48 -43.5 -65.5t-45.5 -17.5h-46q-29 0 -46 15t-17 40q0 13 9 35.5t33 65t29 53.5h-1q-44 12 -77 74q-22 41 -50 111t-72 257q-4 16 -4 24q0 25 20.5 36.5t51.5 11.5z" />
    <glyph glyph-name="Ydieresis" unicode="&#x178;" horiz-adv-x="639" 
d="M284 786q0 -18 -7.5 -34.5t-25.5 -25.5t-39 -9q-30 0 -52 17t-22 52q0 17 8 34t26.5 26t39.5 9t39 -9t25.5 -26t7.5 -34zM499 786q0 -18 -7.5 -34.5t-25.5 -25.5t-39 -9q-30 0 -51.5 17t-21.5 52q0 17 7.5 34t26 26t39.5 9t39 -9t25.5 -26t7.5 -34zM100 673h39
q30 0 51.5 -15t29.5 -42q53 -170 97 -253h4q15 25 34 68.5t58 174.5q11 38 33 52.5t60 14.5h42q64 0 64 -54q0 -20 -13 -56q-69 -184 -184 -347v-111q0 -52 -18 -78.5t-67 -26.5h-24q-40 0 -62 20t-22 85v114q-126 177 -188 357q-8 21 -8 43q0 25 20 39.5t54 14.5z" />
    <glyph glyph-name="Zacute" unicode="&#x179;" horiz-adv-x="678" 
d="M278 729q-21 -6 -42 -6q-13 0 -23.5 9.5t-10.5 27.5v9q0 16 7.5 27.5t26.5 21.5l158 81q28 13 47 13q35 0 35 -50q0 -73 -35 -84zM132 673h364q57 0 87 -27.5t30 -80.5q0 -14 -7.5 -35t-51.5 -79q-6 -7 -96.5 -112t-143.5 -161v-11h221q46 0 70 -19.5t24 -64.5
q0 -20 -7 -40t-26 -31.5t-44 -11.5h-382q-63 0 -90 22t-27 70q0 22 12 47.5t48 67.5q97 116 248 286l1 12h-230q-36 0 -56.5 21t-20.5 63q0 41 21 62.5t56 21.5z" />
    <glyph glyph-name="zacute" unicode="&#x17a;" horiz-adv-x="496" 
d="M186 576q-21 -6 -42 -6q-13 0 -23.5 9.5t-10.5 27.5v9q0 16 7.5 27.5t26.5 21.5l158 81q28 13 47 13q35 0 35 -50q0 -73 -35 -84zM98 518h256q61 0 87.5 -23t26.5 -72q0 -50 -44 -91q-26 -24 -187 -172v-2l151 -1q45 0 68 -16.5t23 -60.5q0 -46 -20 -63t-63 -17h-278
q-50 0 -72.5 21.5t-22.5 66.5q0 17 8.5 36.5t21.5 34.5q32 38 103 105t91 88v7h-149q-35 0 -51.5 20t-16.5 67q0 30 18 51t50 21z" />
    <glyph glyph-name="Zdotaccent" unicode="&#x17b;" horiz-adv-x="678" 
d="M338 896q38 0 63.5 -23t25.5 -63t-25.5 -63.5t-63.5 -23.5t-63.5 23.5t-25.5 63.5t25.5 63t63.5 23zM132 673h364q57 0 87 -27.5t30 -80.5q0 -14 -7.5 -35t-51.5 -79q-6 -7 -96.5 -112t-143.5 -161v-11h221q46 0 70 -19.5t24 -64.5q0 -20 -7 -40t-26 -31.5t-44 -11.5
h-382q-63 0 -90 22t-27 70q0 22 12 47.5t48 67.5q97 116 248 286l1 12h-230q-36 0 -56.5 21t-20.5 63q0 41 21 62.5t56 21.5z" />
    <glyph glyph-name="zdotaccent" unicode="&#x17c;" horiz-adv-x="499" 
d="M248 743q38 0 63.5 -23t25.5 -63t-25.5 -63.5t-63.5 -23.5t-63.5 23.5t-25.5 63.5t25.5 63t63.5 23zM98 518h256q61 0 87.5 -23t26.5 -72q0 -50 -44 -91q-26 -24 -187 -172v-2l151 -1q45 0 68 -16.5t23 -60.5q0 -46 -20 -63t-63 -17h-278q-50 0 -72.5 21.5t-22.5 66.5
q0 17 8.5 36.5t21.5 34.5q32 38 103 105t91 88v7h-149q-35 0 -51.5 20t-16.5 67q0 30 18 51t50 21z" />
    <glyph glyph-name="Zcaron" unicode="&#x17d;" horiz-adv-x="678" 
d="M264 884l75 -47l75 47q15 10 38 10q20 0 37 -14.5t17 -41.5q0 -7 -4.5 -17.5t-36.5 -32.5l-75 -52q-19 -13 -51 -13q-30 0 -51 14l-76 51q-18 12 -29 23.5t-11 26.5q0 26 17 41t37 15q23 0 38 -10zM132 673h364q57 0 87 -27.5t30 -80.5q0 -14 -7.5 -35t-51.5 -79
q-6 -7 -96.5 -112t-143.5 -161v-11h221q46 0 70 -19.5t24 -64.5q0 -20 -7 -40t-26 -31.5t-44 -11.5h-382q-63 0 -90 22t-27 70q0 22 12 47.5t48 67.5q97 116 248 286l1 12h-230q-36 0 -56.5 21t-20.5 63q0 41 21 62.5t56 21.5z" />
    <glyph glyph-name="zcaron" unicode="&#x17e;" horiz-adv-x="496" 
d="M176 731l75 -47l75 47q15 10 38 10q20 0 37 -14.5t17 -41.5q0 -7 -4.5 -17.5t-36.5 -32.5l-75 -52q-19 -13 -51 -13q-30 0 -51 14l-76 51q-18 12 -29 23.5t-11 26.5q0 26 17 41t37 15q23 0 38 -10zM98 518h256q61 0 87.5 -23t26.5 -72q0 -50 -44 -91q-26 -24 -187 -172
v-2l151 -1q45 0 68 -16.5t23 -60.5q0 -46 -20 -63t-63 -17h-278q-50 0 -72.5 21.5t-22.5 66.5q0 17 8.5 36.5t21.5 34.5q32 38 103 105t91 88v7h-149q-35 0 -51.5 20t-16.5 67q0 30 18 51t50 21z" />
    <glyph glyph-name="florin" unicode="&#x192;" horiz-adv-x="536" 
d="M513 568q0 -31 -16.5 -55.5t-45.5 -33.5q-7 12 -22.5 20t-39.5 8q-33 0 -45.5 -16t-19.5 -58l-4 -32h77q26 0 38 -11t12 -36q0 -44 -50 -46h-90l-37 -296q-11 -77 -63.5 -110.5t-144.5 -33.5l55 440l-41 1q-27 0 -38.5 10t-11.5 36q0 45 47 46h57l8 55q13 103 72 160.5
t167 57.5q68 0 102 -31t34 -75z" />
    <glyph glyph-name="Scommaaccent" unicode="&#x218;" horiz-adv-x="596" 
d="M538 558q0 -26 -15 -49.5t-40 -35.5q-77 49 -169 49q-38 0 -59 -14.5t-21 -37.5q0 -15 14 -28t61 -24q90 -21 145 -47.5t83 -64t28 -99.5q0 -45 -20 -84.5t-57 -69t-90 -46t-115 -16.5q-64 0 -125 15t-94 44t-33 62q0 26 13 52t46 41q13 -14 50 -31t77 -25.5t70 -8.5
q37 0 60.5 15t23.5 39q0 21 -23.5 35t-78.5 25q-113 23 -170 73.5t-57 138.5q0 47 19 87t53.5 69t83 44.5t105.5 15.5q51 0 94.5 -8t75 -23.5t48.5 -39t17 -53.5zM399 -160q0 -47 -20.5 -91t-56 -67.5t-70.5 -23.5q-28 0 -41 13t-13 30q39 13 63.5 39t24.5 58q-33 -5 -56 8
q-36 20 -36 62q0 19 9 41t32.5 38t54.5 16q20 0 45.5 -11.5t44.5 -42t19 -69.5z" />
    <glyph glyph-name="scommaaccent" unicode="&#x219;" horiz-adv-x="476" 
d="M439 425q0 -22 -11.5 -40t-33.5 -28q-14 11 -42.5 20t-59.5 9q-49 0 -65 -9.5t-16 -25.5q0 -6 5.5 -11.5t20 -11t47 -13.5t37.5 -9q75 -19 105.5 -54.5t30.5 -94.5q0 -48 -27.5 -84t-79 -58t-120.5 -22q-95 0 -152.5 25.5t-57.5 70.5q0 31 12 50.5t31 25.5
q16 -15 54 -28.5t81 -13.5q84 0 84 39q0 8 -11 15.5t-54.5 18t-59.5 14.5q-65 17 -93 52.5t-28 97.5q0 47 29 87.5t82.5 60.5t109.5 20q84 0 133 -28t49 -75zM341 -160q0 -47 -20.5 -91t-56 -67.5t-70.5 -23.5q-28 0 -41 13t-13 30q39 13 63.5 39t24.5 58q-33 -5 -56 8
q-36 20 -36 62q0 19 9 41t32.5 38t54.5 16q20 0 45.5 -11.5t44.5 -42t19 -69.5z" />
    <glyph glyph-name="circumflex" unicode="&#x2c6;" horiz-adv-x="454" 
d="M278 706l75 -52q27 -19 34 -28.5t7 -21.5q0 -26 -17 -40.5t-37 -14.5q-23 0 -38 9l-75 47l-75 -47q-15 -9 -38 -9q-14 0 -28 8t-20 21t-6 26q0 8 4.5 18.5t35.5 31.5l76 52q21 14 51 14t51 -14z" />
    <glyph glyph-name="caron" unicode="&#x2c7;" horiz-adv-x="454" 
d="M152 710l75 -47l75 47q15 10 38 10q20 0 37 -14.5t17 -41.5q0 -7 -4.5 -17.5t-36.5 -32.5l-75 -52q-19 -13 -51 -13q-30 0 -51 14l-76 51q-18 12 -29 23.5t-11 26.5q0 26 17 41t37 15q23 0 38 -10z" />
    <glyph glyph-name="breve" unicode="&#x2d8;" horiz-adv-x="420" 
d="M328 698q18 0 30.5 -10.5t12.5 -28.5q0 -27 -26 -58t-62.5 -44.5t-70.5 -13.5q-33 0 -69 14t-63 44t-27 57q0 17 12.5 28.5t30.5 11.5q17 0 38 -17t29.5 -23t22 -10t26.5 -4q10 0 22.5 2.5t23 9t32.5 24.5t38 18z" />
    <glyph glyph-name="dotaccent" unicode="&#x2d9;" horiz-adv-x="297" 
d="M147 722q38 0 63.5 -23t25.5 -63t-25.5 -63.5t-63.5 -23.5t-63.5 23.5t-25.5 63.5t25.5 63t63.5 23z" />
    <glyph glyph-name="ring" unicode="&#x2da;" horiz-adv-x="304" 
d="M260 636q0 -48 -30.5 -76t-77.5 -28q-21 0 -46.5 9t-43.5 34.5t-18 60.5q0 23 10.5 48t37 41.5t60.5 16.5q22 0 47.5 -9.5t43 -35.5t17.5 -61zM119 636q0 -16 9 -26t24 -10t24.5 10t9.5 26q0 17 -9.5 27t-24.5 10t-24 -10t-9 -27z" />
    <glyph glyph-name="ogonek" unicode="&#x2db;" horiz-adv-x="328" 
d="M198 45v-45q-13 0 -24.5 -6t-11.5 -18q0 -11 12 -20t32 -9q15 0 25.5 5t12.5 12q12 -3 22 -14.5t10 -30.5q0 -28 -26.5 -47.5t-68.5 -19.5q-36 0 -60.5 13t-38.5 35.5t-14 48.5q0 44 36 70t94 26z" />
    <glyph glyph-name="tilde" unicode="&#x2dc;" horiz-adv-x="425" 
d="M224 684q18 -8 32.5 -12t35.5 -4q17 0 36 15q5 4 15.5 2t20.5 -16t10 -31q0 -36 -18 -58q-12 -14 -31.5 -22t-40.5 -8q-31 0 -84 21q-18 8 -33 12t-36 4q-18 0 -36 -14q-5 -4 -15 -2t-20 16t-10 30q0 36 18 58q12 14 31 22t40 8q34 0 85 -21z" />
    <glyph glyph-name="hungarumlaut" unicode="&#x2dd;" horiz-adv-x="526" 
d="M72 556q-15 -2 -26 5t-11 23v9q0 26 23 41q29 21 91 55.5t87 41.5q16 4 28 -4t12 -29v-16q0 -52 -35 -66q-14 -5 -59 -24t-70 -26.5t-40 -9.5zM301 556q-15 -2 -26 5t-11 23v9q0 26 23 41q29 21 91 55.5t87 41.5q16 4 28 -4t12 -29v-16q0 -52 -35 -66q-14 -5 -59 -24
t-70 -26.5t-40 -9.5z" />
    <glyph glyph-name="Wgrave" unicode="&#x1e80;" horiz-adv-x="935" 
d="M538 705l-163 48q-19 7 -32 25.5t-13 63.5v4q0 23 9.5 35.5t25.5 12.5q15 0 41 -12l159 -81q39 -20 39 -59q0 -21 -12.5 -31t-29.5 -10q-13 0 -24 4zM510 66q14 -33 40.5 -49.5t58.5 -16.5h11q36 0 62.5 8.5t48 31.5t35.5 66q24 73 52.5 203t47.5 249q3 19 3 46
q0 29 -23 49t-61 20h-16q-40 0 -67 -19t-32 -55q-1 -4 -2 -15.5t-10.5 -95.5t-21.5 -164t-22 -135q-40 186 -68 331q-18 94 -96 94h-12q-78 0 -96 -94q-28 -145 -68 -331q-4 23 -16 94.5t-26 193t-14 122.5q-5 36 -32 55t-67 19h-16q-38 0 -61 -20t-23 -49q0 -27 3 -46
q15 -95 43.5 -229.5t56.5 -222.5q8 -26 24 -51.5t44.5 -40t77.5 -14.5h11q32 0 58.5 16.5t40.5 49.5q11 25 21 54.5t18 64.5t16 72.5t11 49.5q29 -132 39.5 -167.5t26.5 -73.5z" />
    <glyph glyph-name="wgrave" unicode="&#x1e81;" horiz-adv-x="728" 
d="M434 552l-163 48q-19 7 -32 25.5t-13 63.5v4q0 23 9.5 35.5t25.5 12.5q15 0 41 -12l159 -81q39 -20 39 -59q0 -21 -12.5 -31t-29.5 -10q-13 0 -24 4zM81 522h29q35 0 53.5 -18.5t26.5 -52.5q3 -19 10.5 -76.5t14.5 -99.5t13 -77h4q10 41 24.5 115t21.5 106q14 60 79 60h8
q32 0 52.5 -15.5t27.5 -44.5l51 -221h4q13 76 24 160t12 93q8 34 26.5 52.5t53.5 18.5h28q29 0 47.5 -13.5t18.5 -37.5l-2 -36q0 -1 -0.5 -5t-10 -67.5t-26 -139t-35.5 -128.5q-35 -95 -118 -95h-17q-30 0 -54 15t-44 62q-29 67 -42 123q-14 -69 -39 -123q-21 -47 -45 -62
t-52 -15h-17q-30 0 -56 11.5t-40 35.5q-12 20 -24.5 52t-24 77t-19.5 86t-12.5 70t-7 48.5t-4.5 36.5t-2 18l-3 26q0 28 16.5 44.5t49.5 16.5z" />
    <glyph glyph-name="Wacute" unicode="&#x1e82;" horiz-adv-x="935" 
d="M406 709q-21 -6 -42 -6q-13 0 -23.5 9.5t-10.5 27.5v9q0 16 7.5 27.5t26.5 21.5l158 81q28 13 47 13q35 0 35 -50q0 -73 -35 -84zM510 66q14 -33 40.5 -49.5t58.5 -16.5h11q36 0 62.5 8.5t48 31.5t35.5 66q24 73 52.5 203t47.5 249q3 19 3 46q0 29 -23 49t-61 20h-16
q-40 0 -67 -19t-32 -55q-1 -4 -2 -15.5t-10.5 -95.5t-21.5 -164t-22 -135q-40 186 -68 331q-18 94 -96 94h-12q-78 0 -96 -94q-28 -145 -68 -331q-4 23 -16 94.5t-26 193t-14 122.5q-5 36 -32 55t-67 19h-16q-38 0 -61 -20t-23 -49q0 -27 3 -46q15 -95 43.5 -229.5
t56.5 -222.5q8 -26 24 -51.5t44.5 -40t77.5 -14.5h11q32 0 58.5 16.5t40.5 49.5q11 25 21 54.5t18 64.5t16 72.5t11 49.5q29 -132 39.5 -167.5t26.5 -73.5z" />
    <glyph glyph-name="wacute" unicode="&#x1e83;" horiz-adv-x="728" 
d="M302 556q-21 -6 -42 -6q-13 0 -23.5 9.5t-10.5 27.5v9q0 16 7.5 27.5t26.5 21.5l158 81q28 13 47 13q35 0 35 -50q0 -73 -35 -84zM81 522h29q35 0 53.5 -18.5t26.5 -52.5q3 -19 10.5 -76.5t14.5 -99.5t13 -77h4q10 41 24.5 115t21.5 106q14 60 79 60h8q32 0 52.5 -15.5
t27.5 -44.5l51 -221h4q13 76 24 160t12 93q8 34 26.5 52.5t53.5 18.5h28q29 0 47.5 -13.5t18.5 -37.5l-2 -36q0 -1 -0.5 -5t-10 -67.5t-26 -139t-35.5 -128.5q-35 -95 -118 -95h-17q-30 0 -54 15t-44 62q-29 67 -42 123q-14 -69 -39 -123q-21 -47 -45 -62t-52 -15h-17
q-30 0 -56 11.5t-40 35.5q-12 20 -24.5 52t-24 77t-19.5 86t-12.5 70t-7 48.5t-4.5 36.5t-2 18l-3 26q0 28 16.5 44.5t49.5 16.5z" />
    <glyph glyph-name="Wdieresis" unicode="&#x1e84;" horiz-adv-x="935" 
d="M432 772q0 -18 -7.5 -34.5t-25.5 -25.5t-39 -9q-30 0 -52 17t-22 52q0 17 8 34t26.5 26t39.5 9t39 -9t25.5 -26t7.5 -34zM647 772q0 -18 -7.5 -34.5t-25.5 -25.5t-39 -9q-30 0 -51.5 17t-21.5 52q0 17 7.5 34t26 26t39.5 9t39 -9t25.5 -26t7.5 -34zM510 66
q14 -33 40.5 -49.5t58.5 -16.5h11q36 0 62.5 8.5t48 31.5t35.5 66q24 73 52.5 203t47.5 249q3 19 3 46q0 29 -23 49t-61 20h-16q-40 0 -67 -19t-32 -55q-1 -4 -2 -15.5t-10.5 -95.5t-21.5 -164t-22 -135q-40 186 -68 331q-18 94 -96 94h-12q-78 0 -96 -94q-28 -145 -68 -331
q-4 23 -16 94.5t-26 193t-14 122.5q-5 36 -32 55t-67 19h-16q-38 0 -61 -20t-23 -49q0 -27 3 -46q15 -95 43.5 -229.5t56.5 -222.5q8 -26 24 -51.5t44.5 -40t77.5 -14.5h11q32 0 58.5 16.5t40.5 49.5q11 25 21 54.5t18 64.5t16 72.5t11 49.5q29 -132 39.5 -167.5t26.5 -73.5
z" />
    <glyph glyph-name="wdieresis" unicode="&#x1e85;" horiz-adv-x="728" 
d="M328 618q0 -18 -7.5 -34.5t-25.5 -25.5t-39 -9q-30 0 -52 17t-22 52q0 17 8 34t26.5 26t39.5 9t39 -9t25.5 -26t7.5 -34zM543 618q0 -18 -7.5 -34.5t-25.5 -25.5t-39 -9q-30 0 -51.5 17t-21.5 52q0 17 7.5 34t26 26t39.5 9t39 -9t25.5 -26t7.5 -34zM81 522h29
q35 0 53.5 -18.5t26.5 -52.5q3 -19 10.5 -76.5t14.5 -99.5t13 -77h4q10 41 24.5 115t21.5 106q14 60 79 60h8q32 0 52.5 -15.5t27.5 -44.5l51 -221h4q13 76 24 160t12 93q8 34 26.5 52.5t53.5 18.5h28q29 0 47.5 -13.5t18.5 -37.5l-2 -36q0 -1 -0.5 -5t-10 -67.5t-26 -139
t-35.5 -128.5q-35 -95 -118 -95h-17q-30 0 -54 15t-44 62q-29 67 -42 123q-14 -69 -39 -123q-21 -47 -45 -62t-52 -15h-17q-30 0 -56 11.5t-40 35.5q-12 20 -24.5 52t-24 77t-19.5 86t-12.5 70t-7 48.5t-4.5 36.5t-2 18l-3 26q0 28 16.5 44.5t49.5 16.5z" />
    <glyph glyph-name="Ygrave" unicode="&#x1ef2;" horiz-adv-x="639" 
d="M389 705l-163 48q-19 7 -32 25.5t-13 63.5v4q0 23 9.5 35.5t25.5 12.5q15 0 41 -12l159 -81q39 -20 39 -59q0 -21 -12.5 -31t-29.5 -10q-13 0 -24 4zM100 673h39q30 0 51.5 -15t29.5 -42q53 -170 97 -253h4q15 25 34 68.5t58 174.5q11 38 33 52.5t60 14.5h42q64 0 64 -54
q0 -20 -13 -56q-69 -184 -184 -347v-111q0 -52 -18 -78.5t-67 -26.5h-24q-40 0 -62 20t-22 85v114q-126 177 -188 357q-8 21 -8 43q0 25 20 39.5t54 14.5z" />
    <glyph glyph-name="ygrave" unicode="&#x1ef3;" horiz-adv-x="577" 
d="M351 565l-163 48q-19 7 -32 25.5t-13 63.5v4q0 23 9.5 35.5t25.5 12.5q15 0 41 -12l159 -81q39 -20 39 -59q0 -21 -12.5 -31t-29.5 -10q-13 0 -24 4zM87 522h33q64 0 78 -56l3 -12q2 -7 28.5 -118t51.5 -187q53 170 81 317q11 56 78 56h32q31 0 51.5 -12t20.5 -36
q0 -7 -4 -21t-4 -16q-66 -280 -190 -555q-22 -48 -43.5 -65.5t-45.5 -17.5h-46q-29 0 -46 15t-17 40q0 13 9 35.5t33 65t29 53.5h-1q-44 12 -77 74q-22 41 -50 111t-72 257q-4 16 -4 24q0 25 20.5 36.5t51.5 11.5z" />
    <glyph glyph-name="endash" unicode="&#x2013;" horiz-adv-x="627" 
d="M123 377h381q39 0 60 -20t21 -57t-21 -57t-60 -20h-381q-39 0 -60 20t-21 57t21 57t60 20z" />
    <glyph glyph-name="emdash" unicode="&#x2014;" horiz-adv-x="895" 
d="M123 377h650q39 0 60 -20t21 -57t-21 -57t-60 -20h-650q-39 0 -60 20t-21 57t21 57t60 20z" />
    <glyph glyph-name="quoteleft" unicode="&#x2018;" horiz-adv-x="275" 
d="M229 657q-39 -13 -63.5 -39t-24.5 -58q33 5 56 -8q37 -21 37 -62q0 -18 -9 -40.5t-32.5 -38.5t-54.5 -16q-21 0 -46.5 11.5t-44.5 42t-19 69.5q0 47 20.5 91t56 67.5t70.5 23.5q28 0 41 -13t13 -30z" />
    <glyph glyph-name="quoteright" unicode="&#x2019;" horiz-adv-x="275" 
d="M46 438q39 13 63.5 39t24.5 58q-33 -5 -57 8q-14 8 -25 23.5t-11 38.5q0 19 9 41t32.5 38t54.5 16q21 0 46.5 -11.5t44 -42t18.5 -69.5q0 -28 -8 -59t-27 -58t-47.5 -46t-63.5 -19q-28 0 -41 13t-13 30z" />
    <glyph glyph-name="quotesinglbase" unicode="&#x201a;" horiz-adv-x="295" 
d="M255 64q0 -47 -20.5 -91t-56 -67.5t-70.5 -23.5q-28 0 -41 13t-13 30q39 13 63.5 39t24.5 58q-33 -5 -56 8q-36 20 -36 62q0 19 9 41t32.5 38t54.5 16q20 0 45.5 -11.5t44.5 -42t19 -69.5z" />
    <glyph glyph-name="quotedblleft" unicode="&#x201c;" horiz-adv-x="501" 
d="M230 657q-39 -13 -63.5 -39t-24.5 -58q33 5 56 -8q37 -21 37 -62q0 -18 -9 -40.5t-32.5 -38.5t-54.5 -16q-21 0 -46.5 11.5t-44.5 42t-19 69.5q0 47 20.5 91t56 67.5t70.5 23.5q28 0 41 -13t13 -30zM454 657q-39 -13 -63.5 -39t-24.5 -58q33 5 56 -8q37 -21 37 -62
q0 -18 -9 -40.5t-32.5 -38.5t-54.5 -16q-21 0 -46.5 11.5t-44.5 42t-19 69.5q0 47 20.5 91t56 67.5t70.5 23.5q28 0 41 -13t13 -30z" />
    <glyph glyph-name="quotedblright" unicode="&#x201d;" horiz-adv-x="501" 
d="M47 438q39 13 63.5 39t24.5 58q-33 -5 -57 8q-14 8 -25 23.5t-11 38.5q0 19 9 41t32.5 38t54.5 16q21 0 46.5 -11.5t44 -42t18.5 -69.5q0 -28 -8 -59t-27 -58t-47.5 -46t-63.5 -19q-28 0 -41 13t-13 30zM272 438q39 13 63.5 39t24.5 58q-33 -5 -57 8q-14 8 -25 23.5
t-11 38.5q0 19 9 41t32.5 38t54.5 16q21 0 46.5 -11.5t44 -42t18.5 -69.5q0 -28 -8 -59t-27 -58t-47.5 -46t-63.5 -19q-28 0 -41 13t-13 30z" />
    <glyph glyph-name="quotedblbase" unicode="&#x201e;" horiz-adv-x="509" 
d="M39 -69q39 13 63.5 39t24.5 58q-33 -6 -56 7q-37 21 -37 63q0 18 9 40.5t32.5 38.5t54.5 16q21 0 46.5 -11.5t44.5 -42t19 -69.5q0 -48 -20.5 -92t-56 -67.5t-70.5 -23.5q-28 0 -41 13t-13 31zM272 -69q39 13 63.5 39t24.5 58q-33 -6 -57 7q-15 8 -25.5 24t-10.5 39
q0 18 9 40.5t32.5 38.5t54.5 16q21 0 46.5 -11.5t44 -42t18.5 -69.5q0 -28 -8 -59.5t-27 -58.5t-47.5 -46t-63.5 -19q-28 0 -41 13t-13 31z" />
    <glyph glyph-name="dagger" unicode="&#x2020;" horiz-adv-x="494" 
d="M245 686h1q31 0 48.5 -11t24.5 -33.5t7 -63.5v-73h61q82 0 82 -77t-82 -77h-61v-244q0 -40 -7 -62.5t-23.5 -33.5t-46.5 -11h-3q-32 0 -49 11t-23.5 33t-6.5 63v244h-61q-82 0 -82 77t82 77h61v73q0 66 20 87t58 21z" />
    <glyph glyph-name="daggerdbl" unicode="&#x2021;" horiz-adv-x="536" 
d="M326 158v-51q0 -40 -7 -62.5t-23.5 -33.5t-46.5 -11h-3q-32 0 -49 11t-23.5 33t-6.5 63v51h-61q-82 0 -82 77t82 77h61v39h-61q-82 0 -82 77t82 77h61v73q0 66 20 87t58 21h1q31 0 48.5 -11t24.5 -33.5t7 -63.5v-73h61q82 0 82 -77t-82 -77h-61v-39h61q82 0 82 -77
t-82 -77h-61z" />
    <glyph glyph-name="bullet" unicode="&#x2022;" horiz-adv-x="422" 
d="M349 343q0 -41 -16.5 -71.5t-48 -48t-72.5 -17.5q-27 0 -59.5 11.5t-55.5 44t-23 81.5q0 41 16.5 71t48.5 47t73 17q27 0 59.5 -11t55 -43t22.5 -81z" />
    <glyph glyph-name="ellipsis" unicode="&#x2026;" horiz-adv-x="808" 
d="M245 90q0 -33 -16.5 -56.5t-39.5 -31.5t-42 -8q-29 0 -53 14.5t-34 37t-10 44.5t10 44.5t34 37t53 14.5q42 0 70 -25.5t28 -70.5zM500 90q0 -33 -16.5 -56.5t-39.5 -31.5t-42 -8q-29 0 -53 14.5t-34 37t-10 44.5t10 44.5t34 37t53 14.5q42 0 70 -25.5t28 -70.5zM758 90
q0 -33 -16.5 -56.5t-39.5 -31.5t-42 -8q-29 0 -53 14.5t-34 37t-10 44.5t10 44.5t34 37t53 14.5q42 0 70 -25.5t28 -70.5z" />
    <glyph glyph-name="perthousand" unicode="&#x2030;" horiz-adv-x="1101" 
d="M682 645q0 -7 -5 -18.5t-33 -46.5l-463 -555q-25 -30 -47 -30q-18 0 -39 18h-1q-25 22 -25 42q0 18 22 45l15 18l463 556q25 31 48 31q16 0 40 -18q25 -22 25 -42zM342 536q0 -49 -21.5 -83.5t-58 -53.5t-76.5 -19q-25 0 -54 9.5t-52 28.5t-37.5 49t-14.5 69
q0 49 23.5 86.5t62 54.5t72.5 17q39 0 76 -19.5t58.5 -54.5t21.5 -84zM128 538q0 -31 17.5 -46.5t39.5 -15.5q16 0 30 8.5t20 23.5t6 30t-6 30t-20 23t-30 8q-22 0 -39.5 -15t-17.5 -46zM714 151q0 -48 -21.5 -82.5t-58 -53t-76.5 -18.5t-77 18.5t-58.5 53t-21.5 82.5
q0 29 9.5 58t34 54.5t57 36t56.5 10.5q41 0 81 -22.5t57.5 -60t17.5 -76.5zM1063 151q0 -48 -21.5 -82.5t-58 -53t-76.5 -18.5t-77 18.5t-58.5 53t-21.5 82.5q0 29 9.5 58t34 54.5t57 36t56.5 10.5q41 0 81 -22.5t57.5 -60t17.5 -76.5zM501 154q0 -31 17 -46.5t39 -15.5
t39.5 15.5t17.5 46.5q0 15 -6.5 30t-20.5 23t-30 8t-30 -8t-20 -23t-6 -30zM850 154q0 -31 17 -46.5t39 -15.5t39.5 15.5t17.5 46.5q0 15 -6.5 30t-20.5 23t-30 8t-30 -8t-20 -23t-6 -30z" />
    <glyph glyph-name="guilsinglleft" unicode="&#x2039;" horiz-adv-x="380" 
d="M82 329q81 86 107 111.5t42 36t24 10.5q12 0 30.5 -8t34.5 -29t16 -46q0 -27 -61.5 -89.5t-62.5 -63.5q8 -9 47 -49.5t58 -66t19 -38.5q0 -21 -16 -42.5t-34.5 -31t-30.5 -9.5q-1 0 -5 0.5t-16 6.5t-36 27.5t-48 47t-51 56t-35 39.5q-26 29 -26 60q0 16 5.5 30.5
t38.5 47.5z" />
    <glyph glyph-name="guilsinglright" unicode="&#x203a;" horiz-adv-x="380" 
d="M292 329q21 -21 32.5 -36.5t11.5 -41.5q0 -31 -26 -60q-90 -100 -112 -122t-40.5 -36t-27 -16.5t-11.5 -2.5q-12 0 -30.5 9.5t-34.5 31t-16 42.5q0 13 19 38.5t58 66t47 49.5q-1 1 -62.5 63.5t-61.5 89.5q0 16 9.5 35.5t31 33.5t40.5 14q8 0 24 -10.5t42 -36t107 -111.5z
" />
    <glyph glyph-name="fraction" unicode="&#x2044;" horiz-adv-x="500" 
d="M475 609l-318 -558q-16 -27 -32.5 -39.5t-41.5 -10.5q-42 2 -57.5 26t3.5 56l318 557q16 30 31.5 41.5t43.5 9.5q19 -1 37.5 -10t23.5 -29.5t-8 -42.5z" />
    <glyph glyph-name="Euro" unicode="&#x20ac;" horiz-adv-x="714" 
d="M463 356h-155l-1 -23l1 -7v-10h155q21 0 31 -9t10 -30q0 -18 -11 -27.5t-30 -10.5h-136q16 -36 46.5 -55.5t69.5 -19.5q45 0 76 19t44 50q40 -5 72 -35.5t32 -68.5t-26.5 -68t-78 -50t-120.5 -20q-85 0 -150.5 31.5t-107 85.5t-57.5 131h-55q-21 0 -31 9t-10 30
q0 38 38 38h49v40h-46q-16 0 -28.5 6.5t-12.5 33.5q0 37 38 37h59q25 121 109.5 185t200.5 64q104 0 167.5 -42.5t63.5 -106.5q0 -20 -11.5 -41t-38 -36t-57.5 -20q-5 16 -18.5 33t-40.5 28t-60 11q-37 0 -67 -20.5t-46 -54.5h133q21 0 31 -9.5t10 -29.5q0 -36 -41 -38z" />
    <glyph glyph-name="trademark" unicode="&#x2122;" horiz-adv-x="795" 
d="M81 693h207q50 0 50 -47q0 -22 -11 -33.5t-31 -11.5h-62v-217q0 -23 -11 -33.5t-35 -10.5h-7q-25 0 -36 10.5t-11 33.5v217h-53q-51 0 -51 45q0 20 10 33.5t41 13.5zM420 693h24q35 0 49 -20q8 -12 19 -38.5t27 -80.5t21 -70q5 17 22 68t25 78q9 32 23.5 47.5t46.5 15.5
h23q24 0 37.5 -8t13.5 -45v-246q0 -29 -9 -41.5t-36 -12.5h-5q-21 0 -33 9.5t-12 44.5l3 173h-1q-1 -4 -19.5 -65.5t-35 -89.5t-35.5 -28h-16q-20 0 -36 27t-32.5 86t-20.5 70h-1q-1 -30 1 -90t2 -83q0 -29 -9.5 -41.5t-36.5 -12.5h-3q-22 0 -35 9.5t-13 44.5l1 246
q0 31 10 42t41 11z" />
    <glyph glyph-name="minus" unicode="&#x2212;" horiz-adv-x="611" 
d="M131 391h351q44 0 62 -18t18 -59t-18.5 -59.5t-61.5 -18.5h-351q-44 0 -62 18.5t-18 59.5q0 40 18.5 58.5t61.5 18.5z" />
    <glyph glyph-name="approxequal" unicode="&#x2248;" horiz-adv-x="509" 
d="M272 460q52 -19 99 -19q23 0 46 18q7 5 19 1.5t24 -20.5t12 -36q0 -41 -22 -65q-32 -36 -89 -36q-45 0 -119 27q-54 19 -98 19q-22 0 -47 -17q-7 -5 -19 -2t-24 19.5t-12 36.5q0 41 22 66q30 35 89 35q46 0 119 -27zM273 264q52 -19 99 -19q23 0 46 18q7 5 19 1.5
t24 -20.5t12 -36q0 -41 -22 -65q-32 -36 -89 -36q-45 0 -119 27q-54 19 -98 19q-22 0 -47 -17q-7 -5 -19 -2t-24 19.5t-12 36.5q0 41 22 66q30 35 89 35q46 0 119 -27z" />
    <glyph glyph-name="notequal" unicode="&#x2260;" horiz-adv-x="608" 
d="M406 451l79 95q18 22 44 13q20 -7 23.5 -20.5t-8.5 -28.5l-50 -59q38 -2 55.5 -21t17.5 -59q0 -36 -21.5 -55.5t-59.5 -19.5h-121l-53 -63h174q42 0 61.5 -18.5t19.5 -60.5q0 -37 -21.5 -56.5t-59.5 -19.5h-303l-66 -79q-18 -23 -43 -14q-21 7 -24.5 20t8.5 29l38 46
q-27 4 -40.5 23t-13.5 54q0 76 77 76h105l52 63h-153q-41 0 -61 18.5t-20 60.5q0 76 77 76h287z" />
    <glyph glyph-name="lessequal" unicode="&#x2264;" horiz-adv-x="583" 
d="M440 613l9 3q9 4 21 4q26 0 42 -23.5t16 -60.5v-12q0 -57 -63 -78l-202 -70v-13l212 -74q23 -7 38 -27t15 -47v-12q0 -37 -16.5 -60.5t-41.5 -23.5q-11 0 -30 7l-322 137q-68 23 -68 94v24q0 28 12 52t56 43zM474 0h-362q-31 0 -45 12.5t-14 38.5q0 50 59 50h362
q31 0 45 -12t14 -38q0 -51 -59 -51z" />
    <glyph glyph-name="greaterequal" unicode="&#x2265;" horiz-adv-x="583" 
d="M460 479q44 -22 55.5 -44.5t11.5 -50.5v-24q0 -29 -11.5 -52t-55.5 -42l-323 -137q-22 -9 -29 -9q-24 0 -41 25.5t-17 62.5v10q0 56 62 78l203 70v13q-165 57 -212 74q-24 6 -38.5 26t-14.5 48v10q0 17 5.5 37.5t20 35.5t32.5 15q10 0 23 -6zM474 0h-361
q-31 0 -45.5 12.5t-14.5 38.5q0 50 59 50h362q31 0 45 -11.5t14 -38.5q0 -51 -59 -51z" />
    <glyph glyph-name="uniF6C3" unicode="&#xf6c3;" horiz-adv-x="0" 
d="M255 -160q0 -47 -20.5 -91t-56 -67.5t-70.5 -23.5q-28 0 -41 13t-13 30q39 13 63.5 39t24.5 58q-33 -5 -56 8q-36 20 -36 62q0 19 9 41t32.5 38t54.5 16q20 0 45.5 -11.5t44.5 -42t19 -69.5z" />
  </font>
</defs>
</svg>
